<?xml version="1.0" encoding="UTF-8" standalone="no"?>
<!DOCTYPE svg PUBLIC "-//W3C//DTD SVG 1.1//EN"
 "http://www.w3.org/Graphics/SVG/1.1/DTD/svg11.dtd">
<!-- Generated by graphviz version 2.38.0 (20140413.2041)
 -->
<!-- Title: snakemake_dag Pages: 1 -->
<svg width="2547pt" height="2281pt"
 viewBox="0.00 0.00 2547.00 2281.30" xmlns="http://www.w3.org/2000/svg" xmlns:xlink="http://www.w3.org/1999/xlink">
<g id="graph0" class="graph" transform="scale(1 1) rotate(0) translate(4 2277.3)">
<title>snakemake_dag</title>
<polygon fill="white" stroke="none" points="-4,4 -4,-2277.3 2543,-2277.3 2543,4 -4,4"/>
<!-- 0 -->
<g id="node1" class="node"><title>0</title>
<path fill="none" stroke="#d8c356" stroke-width="2" stroke-dasharray="5,2" d="M2527,-1144C2527,-1144 2497,-1144 2497,-1144 2491,-1144 2485,-1138 2485,-1132 2485,-1132 2485,-1120 2485,-1120 2485,-1114 2491,-1108 2497,-1108 2497,-1108 2527,-1108 2527,-1108 2533,-1108 2539,-1114 2539,-1120 2539,-1120 2539,-1132 2539,-1132 2539,-1138 2533,-1144 2527,-1144"/>
<text text-anchor="middle" x="2512" y="-1123.5" font-family="sans" font-size="10.00">all</text>
</g>
<!-- 1 -->
<g id="node2" class="node"><title>1</title>
<path fill="none" stroke="#565bd8" stroke-width="2" stroke-dasharray="5,2" d="M2426.5,-1171C2426.5,-1171 2396.5,-1171 2396.5,-1171 2390.5,-1171 2384.5,-1165 2384.5,-1159 2384.5,-1159 2384.5,-1147 2384.5,-1147 2384.5,-1141 2390.5,-1135 2396.5,-1135 2396.5,-1135 2426.5,-1135 2426.5,-1135 2432.5,-1135 2438.5,-1141 2438.5,-1147 2438.5,-1147 2438.5,-1159 2438.5,-1159 2438.5,-1165 2432.5,-1171 2426.5,-1171"/>
<text text-anchor="middle" x="2411.5" y="-1150.5" font-family="sans" font-size="10.00">Index</text>
</g>
<!-- 1&#45;&gt;0 -->
<g id="edge1" class="edge"><title>1&#45;&gt;0</title>
<path fill="none" stroke="grey" stroke-width="2" d="M2438.64,-1145.84C2449.77,-1142.78 2462.94,-1139.17 2474.97,-1135.88"/>
<polygon fill="grey" stroke="grey" stroke-width="2" points="2476.02,-1139.22 2484.74,-1133.2 2474.17,-1132.47 2476.02,-1139.22"/>
</g>
<!-- 2 -->
<g id="node3" class="node"><title>2</title>
<path fill="none" stroke="#c6d856" stroke-width="2" stroke-dasharray="5,2" d="M2437,-1117C2437,-1117 2386,-1117 2386,-1117 2380,-1117 2374,-1111 2374,-1105 2374,-1105 2374,-1093 2374,-1093 2374,-1087 2380,-1081 2386,-1081 2386,-1081 2437,-1081 2437,-1081 2443,-1081 2449,-1087 2449,-1093 2449,-1093 2449,-1105 2449,-1105 2449,-1111 2443,-1117 2437,-1117"/>
<text text-anchor="middle" x="2411.5" y="-1102" font-family="sans" font-size="10.00">markdown</text>
<text text-anchor="middle" x="2411.5" y="-1091" font-family="sans" font-size="10.00">file: readme</text>
</g>
<!-- 2&#45;&gt;0 -->
<g id="edge2" class="edge"><title>2&#45;&gt;0</title>
<path fill="none" stroke="grey" stroke-width="2" d="M2449.18,-1109.05C2457.58,-1111.36 2466.5,-1113.8 2474.88,-1116.1"/>
<polygon fill="grey" stroke="grey" stroke-width="2" points="2474.18,-1119.54 2484.75,-1118.8 2476.03,-1112.79 2474.18,-1119.54"/>
</g>
<!-- 3 -->
<g id="node4" class="node"><title>3</title>
<path fill="none" stroke="#d8a456" stroke-width="2" stroke-dasharray="5,2" d="M889.5,-391C889.5,-391 556.5,-391 556.5,-391 550.5,-391 544.5,-385 544.5,-379 544.5,-379 544.5,-367 544.5,-367 544.5,-361 550.5,-355 556.5,-355 556.5,-355 889.5,-355 889.5,-355 895.5,-355 901.5,-361 901.5,-367 901.5,-367 901.5,-379 901.5,-379 901.5,-385 895.5,-391 889.5,-391"/>
<text text-anchor="middle" x="723" y="-370.5" font-family="sans" font-size="10.00">Scripts_MultiOmics_HPO_phenotype_Compare_HPOmatch_SemSim_R</text>
</g>
<!-- 3&#45;&gt;1 -->
<g id="edge3" class="edge"><title>3&#45;&gt;1</title>
<path fill="none" stroke="grey" stroke-width="2" d="M901.592,-369.093C1310.41,-360.962 2287.07,-346.819 2338,-396 2396.42,-452.41 2335.67,-1054.41 2374,-1126 2374.95,-1127.77 2376.07,-1129.46 2377.32,-1131.06"/>
<polygon fill="grey" stroke="grey" stroke-width="2" points="2374.96,-1133.65 2384.45,-1138.35 2379.96,-1128.75 2374.96,-1133.65"/>
</g>
<!-- 8 -->
<g id="node9" class="node"><title>8</title>
<path fill="none" stroke="#d86656" stroke-width="2" stroke-dasharray="5,2" d="M1345,-1219C1345,-1219 1105,-1219 1105,-1219 1099,-1219 1093,-1213 1093,-1207 1093,-1207 1093,-1195 1093,-1195 1093,-1189 1099,-1183 1105,-1183 1105,-1183 1345,-1183 1345,-1183 1351,-1183 1357,-1189 1357,-1195 1357,-1195 1357,-1207 1357,-1207 1357,-1213 1351,-1219 1345,-1219"/>
<text text-anchor="middle" x="1225" y="-1198.5" font-family="sans" font-size="10.00">Scripts_MultiOmics_Integration_integrate_omics_R</text>
</g>
<!-- 3&#45;&gt;8 -->
<g id="edge59" class="edge"><title>3&#45;&gt;8</title>
<path fill="none" stroke="grey" stroke-width="2" d="M734.908,-391.064C799.346,-497.774 1130.05,-1045.43 1207.68,-1173.97"/>
<polygon fill="grey" stroke="grey" stroke-width="2" points="1204.86,-1176.07 1213.02,-1182.82 1210.85,-1172.45 1204.86,-1176.07"/>
</g>
<!-- 4 -->
<g id="node5" class="node"><title>4</title>
<path fill="none" stroke="#56d8c9" stroke-width="2" stroke-dasharray="5,2" d="M346.5,-418C346.5,-418 103.5,-418 103.5,-418 97.5,-418 91.5,-412 91.5,-406 91.5,-406 91.5,-394 91.5,-394 91.5,-388 97.5,-382 103.5,-382 103.5,-382 346.5,-382 346.5,-382 352.5,-382 358.5,-388 358.5,-394 358.5,-394 358.5,-406 358.5,-406 358.5,-412 352.5,-418 346.5,-418"/>
<text text-anchor="middle" x="225" y="-397.5" font-family="sans" font-size="10.00">Scripts_MultiOmics_HPO_phenotype_HPO_match_R</text>
</g>
<!-- 4&#45;&gt;1 -->
<g id="edge4" class="edge"><title>4&#45;&gt;1</title>
<path fill="none" stroke="grey" stroke-width="2" d="M358.79,-400.153C816.503,-400.987 2302.47,-406.361 2338,-441 2392.58,-494.202 2337.92,-1058.87 2374,-1126 2374.95,-1127.77 2376.08,-1129.46 2377.33,-1131.06"/>
<polygon fill="grey" stroke="grey" stroke-width="2" points="2374.97,-1133.65 2384.46,-1138.34 2379.97,-1128.75 2374.97,-1133.65"/>
</g>
<!-- 4&#45;&gt;3 -->
<g id="edge53" class="edge"><title>4&#45;&gt;3</title>
<path fill="none" stroke="grey" stroke-width="2" d="M358.593,-392.782C412.441,-389.851 475.631,-386.411 534.082,-383.229"/>
<polygon fill="grey" stroke="grey" stroke-width="2" points="534.382,-386.718 544.177,-382.68 534.001,-379.729 534.382,-386.718"/>
</g>
<!-- 5 -->
<g id="node6" class="node"><title>5</title>
<path fill="none" stroke="#d8d356" stroke-width="2" stroke-dasharray="5,2" d="M1830,-828C1830,-828 1554,-828 1554,-828 1548,-828 1542,-822 1542,-816 1542,-816 1542,-804 1542,-804 1542,-798 1548,-792 1554,-792 1554,-792 1830,-792 1830,-792 1836,-792 1842,-798 1842,-804 1842,-804 1842,-816 1842,-816 1842,-822 1836,-828 1830,-828"/>
<text text-anchor="middle" x="1692" y="-807.5" font-family="sans" font-size="10.00">Scripts_MultiOmics_HPO_phenotype_Organ_involvment_R</text>
</g>
<!-- 5&#45;&gt;1 -->
<g id="edge5" class="edge"><title>5&#45;&gt;1</title>
<path fill="none" stroke="grey" stroke-width="2" d="M1842.26,-801.94C2021.34,-793.82 2302.11,-786.626 2338,-819 2389,-865.012 2339.55,-1066.57 2374,-1126 2374.9,-1127.55 2375.92,-1129.03 2377.04,-1130.45"/>
<polygon fill="grey" stroke="grey" stroke-width="2" points="2374.84,-1133.2 2384.34,-1137.9 2379.84,-1128.3 2374.84,-1133.2"/>
</g>
<!-- 28 -->
<g id="node29" class="node"><title>28</title>
<path fill="none" stroke="#56d892" stroke-width="2" stroke-dasharray="5,2" d="M2235,-918C2235,-918 2033,-918 2033,-918 2027,-918 2021,-912 2021,-906 2021,-906 2021,-894 2021,-894 2021,-888 2027,-882 2033,-882 2033,-882 2235,-882 2235,-882 2241,-882 2247,-888 2247,-894 2247,-894 2247,-906 2247,-906 2247,-912 2241,-918 2235,-918"/>
<text text-anchor="middle" x="2134" y="-897.5" font-family="sans" font-size="10.00">Scripts_Paper_figures_Figure2_b_EPG5_p_R</text>
</g>
<!-- 5&#45;&gt;28 -->
<g id="edge84" class="edge"><title>5&#45;&gt;28</title>
<path fill="none" stroke="grey" stroke-width="2" d="M1752.41,-828.051C1800.05,-841.976 1868.82,-860.852 1930,-873 1955.97,-878.158 1984.02,-882.6 2010.73,-886.306"/>
<polygon fill="grey" stroke="grey" stroke-width="2" points="2010.51,-889.809 2020.9,-887.691 2011.46,-882.873 2010.51,-889.809"/>
</g>
<!-- 29 -->
<g id="node30" class="node"><title>29</title>
<path fill="none" stroke="#56d89a" stroke-width="2" stroke-dasharray="5,2" d="M2259.5,-864C2259.5,-864 2008.5,-864 2008.5,-864 2002.5,-864 1996.5,-858 1996.5,-852 1996.5,-852 1996.5,-840 1996.5,-840 1996.5,-834 2002.5,-828 2008.5,-828 2008.5,-828 2259.5,-828 2259.5,-828 2265.5,-828 2271.5,-834 2271.5,-840 2271.5,-840 2271.5,-852 2271.5,-852 2271.5,-858 2265.5,-864 2259.5,-864"/>
<text text-anchor="middle" x="2134" y="-843.5" font-family="sans" font-size="10.00">Scripts_Paper_figures_Figure2_c_MORC2_dominant_R</text>
</g>
<!-- 5&#45;&gt;29 -->
<g id="edge86" class="edge"><title>5&#45;&gt;29</title>
<path fill="none" stroke="grey" stroke-width="2" d="M1842.27,-822.213C1888.71,-826.012 1939.85,-830.197 1986.12,-833.983"/>
<polygon fill="grey" stroke="grey" stroke-width="2" points="1985.97,-837.482 1996.23,-834.809 1986.54,-830.506 1985.97,-837.482"/>
</g>
<!-- 30 -->
<g id="node31" class="node"><title>30</title>
<path fill="none" stroke="#ced856" stroke-width="2" stroke-dasharray="5,2" d="M2240.5,-772C2240.5,-772 2027.5,-772 2027.5,-772 2021.5,-772 2015.5,-766 2015.5,-760 2015.5,-760 2015.5,-748 2015.5,-748 2015.5,-742 2021.5,-736 2027.5,-736 2027.5,-736 2240.5,-736 2240.5,-736 2246.5,-736 2252.5,-742 2252.5,-748 2252.5,-748 2252.5,-760 2252.5,-760 2252.5,-766 2246.5,-772 2240.5,-772"/>
<text text-anchor="middle" x="2134" y="-751.5" font-family="sans" font-size="10.00">Scripts_Paper_figures_Figure2_d_DARS2_rp_R</text>
</g>
<!-- 5&#45;&gt;30 -->
<g id="edge88" class="edge"><title>5&#45;&gt;30</title>
<path fill="none" stroke="grey" stroke-width="2" d="M1834.64,-791.973C1889.4,-785.004 1951.6,-777.087 2004.99,-770.292"/>
<polygon fill="grey" stroke="grey" stroke-width="2" points="2005.72,-773.728 2015.2,-768.993 2004.83,-766.784 2005.72,-773.728"/>
</g>
<!-- 31 -->
<g id="node32" class="node"><title>31</title>
<path fill="none" stroke="#56d86b" stroke-width="2" stroke-dasharray="5,2" d="M2267,-718C2267,-718 2001,-718 2001,-718 1995,-718 1989,-712 1989,-706 1989,-706 1989,-694 1989,-694 1989,-688 1995,-682 2001,-682 2001,-682 2267,-682 2267,-682 2273,-682 2279,-688 2279,-694 2279,-694 2279,-706 2279,-706 2279,-712 2273,-718 2267,-718"/>
<text text-anchor="middle" x="2134" y="-697.5" font-family="sans" font-size="10.00">Scripts_Paper_figures_Figure2_e_MRPS25_rp_complex_R</text>
</g>
<!-- 5&#45;&gt;31 -->
<g id="edge90" class="edge"><title>5&#45;&gt;31</title>
<path fill="none" stroke="grey" stroke-width="2" d="M1743.82,-791.907C1810.6,-768.171 1920.61,-729.245 1930,-727 1945.68,-723.254 1962.17,-719.988 1978.7,-717.149"/>
<polygon fill="grey" stroke="grey" stroke-width="2" points="1979.7,-720.531 1988.98,-715.436 1978.55,-713.626 1979.7,-720.531"/>
</g>
<!-- 32 -->
<g id="node33" class="node"><title>32</title>
<path fill="none" stroke="#56c9d8" stroke-width="2" stroke-dasharray="5,2" d="M2235.5,-664C2235.5,-664 2032.5,-664 2032.5,-664 2026.5,-664 2020.5,-658 2020.5,-652 2020.5,-652 2020.5,-640 2020.5,-640 2020.5,-634 2026.5,-628 2032.5,-628 2032.5,-628 2235.5,-628 2235.5,-628 2241.5,-628 2247.5,-634 2247.5,-640 2247.5,-640 2247.5,-652 2247.5,-652 2247.5,-658 2241.5,-664 2235.5,-664"/>
<text text-anchor="middle" x="2134" y="-643.5" font-family="sans" font-size="10.00">Scripts_Paper_figures_Figure3_a_MRPL38_R</text>
</g>
<!-- 5&#45;&gt;32 -->
<g id="edge92" class="edge"><title>5&#45;&gt;32</title>
<path fill="none" stroke="grey" stroke-width="2" d="M1730.73,-791.873C1771.93,-771.548 1839.34,-736.73 1894,-701 1910.97,-689.909 1911.3,-680.831 1930,-673 1955.04,-662.51 1983.21,-655.877 2010.41,-651.731"/>
<polygon fill="grey" stroke="grey" stroke-width="2" points="2010.97,-655.187 2020.38,-650.314 2009.99,-648.257 2010.97,-655.187"/>
</g>
<!-- 34 -->
<g id="node35" class="node"><title>34</title>
<path fill="none" stroke="#68d856" stroke-width="2" stroke-dasharray="5,2" d="M2227.5,-972C2227.5,-972 2040.5,-972 2040.5,-972 2034.5,-972 2028.5,-966 2028.5,-960 2028.5,-960 2028.5,-948 2028.5,-948 2028.5,-942 2034.5,-936 2040.5,-936 2040.5,-936 2227.5,-936 2227.5,-936 2233.5,-936 2239.5,-942 2239.5,-948 2239.5,-948 2239.5,-960 2239.5,-960 2239.5,-966 2233.5,-972 2227.5,-972"/>
<text text-anchor="middle" x="2134" y="-951.5" font-family="sans" font-size="10.00">Scripts_Paper_figures_Figure3_e_LIG3_R</text>
</g>
<!-- 5&#45;&gt;34 -->
<g id="edge96" class="edge"><title>5&#45;&gt;34</title>
<path fill="none" stroke="grey" stroke-width="2" d="M1721.65,-828.017C1764.97,-854.345 1850.54,-902.821 1930,-927 1957.99,-935.518 1988.97,-941.35 2018.11,-945.342"/>
<polygon fill="grey" stroke="grey" stroke-width="2" points="2017.97,-948.853 2028.34,-946.679 2018.87,-941.912 2017.97,-948.853"/>
</g>
<!-- 36 -->
<g id="node37" class="node"><title>36</title>
<path fill="none" stroke="#566bd8" stroke-width="2" stroke-dasharray="5,2" d="M2237.5,-1026C2237.5,-1026 2030.5,-1026 2030.5,-1026 2024.5,-1026 2018.5,-1020 2018.5,-1014 2018.5,-1014 2018.5,-1002 2018.5,-1002 2018.5,-996 2024.5,-990 2030.5,-990 2030.5,-990 2237.5,-990 2237.5,-990 2243.5,-990 2249.5,-996 2249.5,-1002 2249.5,-1002 2249.5,-1014 2249.5,-1014 2249.5,-1020 2243.5,-1026 2237.5,-1026"/>
<text text-anchor="middle" x="2134" y="-1005.5" font-family="sans" font-size="10.00">Scripts_Patient_analysis_Patient_analysis_R</text>
</g>
<!-- 5&#45;&gt;36 -->
<g id="edge99" class="edge"><title>5&#45;&gt;36</title>
<path fill="none" stroke="grey" stroke-width="2" d="M1711.3,-828.271C1748.68,-864.354 1838.07,-944.428 1930,-981 1954.46,-990.731 1981.75,-997.091 2008.19,-1001.22"/>
<polygon fill="grey" stroke="grey" stroke-width="2" points="2007.87,-1004.71 2018.28,-1002.69 2008.89,-997.781 2007.87,-1004.71"/>
</g>
<!-- 6 -->
<g id="node7" class="node"><title>6</title>
<path fill="none" stroke="#80d856" stroke-width="2" stroke-dasharray="5,2" d="M367,-355C367,-355 83,-355 83,-355 77,-355 71,-349 71,-343 71,-343 71,-331 71,-331 71,-325 77,-319 83,-319 83,-319 367,-319 367,-319 373,-319 379,-325 379,-331 379,-331 379,-343 379,-343 379,-349 373,-355 367,-355"/>
<text text-anchor="middle" x="225" y="-334.5" font-family="sans" font-size="10.00">Scripts_MultiOmics_HPO_phenotype_Semantic_similarity_R</text>
</g>
<!-- 6&#45;&gt;1 -->
<g id="edge6" class="edge"><title>6&#45;&gt;1</title>
<path fill="none" stroke="grey" stroke-width="2" d="M379.213,-332.982C853.138,-321.291 2267.75,-292.241 2338,-360 2399.33,-419.153 2333.87,-1050.84 2374,-1126 2374.95,-1127.77 2376.07,-1129.46 2377.32,-1131.06"/>
<polygon fill="grey" stroke="grey" stroke-width="2" points="2374.95,-1133.65 2384.44,-1138.35 2379.96,-1128.75 2374.95,-1133.65"/>
</g>
<!-- 6&#45;&gt;3 -->
<g id="edge54" class="edge"><title>6&#45;&gt;3</title>
<path fill="none" stroke="grey" stroke-width="2" d="M379.202,-348.12C428.158,-351.673 482.916,-355.647 534.05,-359.358"/>
<polygon fill="grey" stroke="grey" stroke-width="2" points="533.999,-362.864 544.226,-360.097 534.506,-355.882 533.999,-362.864"/>
</g>
<!-- 7 -->
<g id="node8" class="node"><title>7</title>
<path fill="none" stroke="#56d863" stroke-width="2" stroke-dasharray="5,2" d="M2269.5,-1730C2269.5,-1730 1998.5,-1730 1998.5,-1730 1992.5,-1730 1986.5,-1724 1986.5,-1718 1986.5,-1718 1986.5,-1706 1986.5,-1706 1986.5,-1700 1992.5,-1694 1998.5,-1694 1998.5,-1694 2269.5,-1694 2269.5,-1694 2275.5,-1694 2281.5,-1700 2281.5,-1706 2281.5,-1706 2281.5,-1718 2281.5,-1718 2281.5,-1724 2275.5,-1730 2269.5,-1730"/>
<text text-anchor="middle" x="2134" y="-1709.5" font-family="sans" font-size="10.00">Scripts_MultiOmics_Integration_RNA_proteome_match_R</text>
</g>
<!-- 7&#45;&gt;1 -->
<g id="edge7" class="edge"><title>7&#45;&gt;1</title>
<path fill="none" stroke="grey" stroke-width="2" d="M2281.62,-1711.86C2302.78,-1705.73 2322.58,-1695.73 2338,-1680 2408.11,-1608.49 2411.46,-1279.93 2410.85,-1181.16"/>
<polygon fill="grey" stroke="grey" stroke-width="2" points="2414.35,-1181.02 2410.77,-1171.05 2407.35,-1181.08 2414.35,-1181.02"/>
</g>
<!-- 8&#45;&gt;1 -->
<g id="edge8" class="edge"><title>8&#45;&gt;1</title>
<path fill="none" stroke="grey" stroke-width="2" d="M1357.26,-1197.83C1392.69,-1203.39 1428.29,-1215.84 1454,-1241 1512.93,-1298.67 1428.81,-1367.73 1490,-1423 1556.92,-1483.45 1807.58,-1435.24 1894,-1461 1911.34,-1466.17 1912.44,-1475.65 1930,-1480 2018.01,-1501.8 2267.29,-1536.75 2338,-1480 2384.69,-1442.52 2403.18,-1253.75 2408.62,-1181.33"/>
<polygon fill="grey" stroke="grey" stroke-width="2" points="2412.13,-1181.37 2409.36,-1171.14 2405.15,-1180.86 2412.13,-1181.37"/>
</g>
<!-- 9 -->
<g id="node10" class="node"><title>9</title>
<path fill="none" stroke="#afd856" stroke-width="2" stroke-dasharray="5,2" d="M1829.5,-1668C1829.5,-1668 1554.5,-1668 1554.5,-1668 1548.5,-1668 1542.5,-1662 1542.5,-1656 1542.5,-1656 1542.5,-1644 1542.5,-1644 1542.5,-1638 1548.5,-1632 1554.5,-1632 1554.5,-1632 1829.5,-1632 1829.5,-1632 1835.5,-1632 1841.5,-1638 1841.5,-1644 1841.5,-1644 1841.5,-1656 1841.5,-1656 1841.5,-1662 1835.5,-1668 1829.5,-1668"/>
<text text-anchor="middle" x="1692" y="-1647.5" font-family="sans" font-size="10.00">Scripts_MultiOmics_Integration_rna_protein_correlation_R</text>
</g>
<!-- 8&#45;&gt;9 -->
<g id="edge60" class="edge"><title>8&#45;&gt;9</title>
<path fill="none" stroke="grey" stroke-width="2" d="M1334.44,-1219.08C1378.3,-1232.02 1425.25,-1254.16 1454,-1292 1498.76,-1350.92 1438.34,-1570.03 1490,-1623 1502.02,-1635.33 1516.78,-1643.93 1532.8,-1649.78"/>
<polygon fill="grey" stroke="grey" stroke-width="2" points="1531.77,-1653.13 1542.37,-1652.92 1533.95,-1646.48 1531.77,-1653.13"/>
</g>
<!-- 20 -->
<g id="node21" class="node"><title>20</title>
<path fill="none" stroke="#56a9d8" stroke-width="2" stroke-dasharray="5,2" d="M1837,-1360C1837,-1360 1547,-1360 1547,-1360 1541,-1360 1535,-1354 1535,-1348 1535,-1348 1535,-1336 1535,-1336 1535,-1330 1541,-1324 1547,-1324 1547,-1324 1837,-1324 1837,-1324 1843,-1324 1849,-1330 1849,-1336 1849,-1336 1849,-1348 1849,-1348 1849,-1354 1843,-1360 1837,-1360"/>
<text text-anchor="middle" x="1692" y="-1339.5" font-family="sans" font-size="10.00">Scripts_MultiOmics_Variant_analysis_enrichment_analysis_R</text>
</g>
<!-- 8&#45;&gt;20 -->
<g id="edge74" class="edge"><title>8&#45;&gt;20</title>
<path fill="none" stroke="grey" stroke-width="2" d="M1274.53,-1219.01C1321.03,-1236.59 1392.95,-1264.61 1454,-1292 1470.32,-1299.32 1472.97,-1304.53 1490,-1310 1504.14,-1314.54 1519.06,-1318.46 1534.12,-1321.82"/>
<polygon fill="grey" stroke="grey" stroke-width="2" points="1533.52,-1325.27 1544.03,-1323.96 1534.99,-1318.43 1533.52,-1325.27"/>
</g>
<!-- 21 -->
<g id="node22" class="node"><title>21</title>
<path fill="none" stroke="#d88556" stroke-width="2" stroke-dasharray="5,2" d="M2312,-1356C2312,-1356 1956,-1356 1956,-1356 1950,-1356 1944,-1350 1944,-1344 1944,-1344 1944,-1332 1944,-1332 1944,-1326 1950,-1320 1956,-1320 1956,-1320 2312,-1320 2312,-1320 2318,-1320 2324,-1326 2324,-1332 2324,-1332 2324,-1344 2324,-1344 2324,-1350 2318,-1356 2312,-1356"/>
<text text-anchor="middle" x="2134" y="-1335.5" font-family="sans" font-size="10.00">Scripts_MultiOmics_Variant_analysis_enrichment_analysis_variant_type_R</text>
</g>
<!-- 8&#45;&gt;21 -->
<g id="edge75" class="edge"><title>8&#45;&gt;21</title>
<path fill="none" stroke="grey" stroke-width="2" d="M1297.61,-1219.02C1350.5,-1231.84 1424.39,-1248.72 1490,-1260 1637.83,-1285.42 1806.17,-1305.53 1933.52,-1318.95"/>
<polygon fill="grey" stroke="grey" stroke-width="2" points="1933.46,-1322.47 1943.77,-1320.03 1934.19,-1315.51 1933.46,-1322.47"/>
</g>
<!-- 22 -->
<g id="node23" class="node"><title>22</title>
<path fill="none" stroke="#d89c56" stroke-width="2" stroke-dasharray="5,2" d="M2274.5,-1302C2274.5,-1302 1993.5,-1302 1993.5,-1302 1987.5,-1302 1981.5,-1296 1981.5,-1290 1981.5,-1290 1981.5,-1278 1981.5,-1278 1981.5,-1272 1987.5,-1266 1993.5,-1266 1993.5,-1266 2274.5,-1266 2274.5,-1266 2280.5,-1266 2286.5,-1272 2286.5,-1278 2286.5,-1278 2286.5,-1290 2286.5,-1290 2286.5,-1296 2280.5,-1302 2274.5,-1302"/>
<text text-anchor="middle" x="2134" y="-1281.5" font-family="sans" font-size="10.00">Scripts_MultiOmics_Variant_analysis_outlier_proportions_R</text>
</g>
<!-- 8&#45;&gt;22 -->
<g id="edge76" class="edge"><title>8&#45;&gt;22</title>
<path fill="none" stroke="grey" stroke-width="2" d="M1357.21,-1215.45C1399.57,-1219.97 1446.76,-1224.86 1490,-1229 1653.73,-1244.68 1841.12,-1260.47 1971.19,-1271.08"/>
<polygon fill="grey" stroke="grey" stroke-width="2" points="1970.99,-1274.57 1981.24,-1271.89 1971.56,-1267.59 1970.99,-1274.57"/>
</g>
<!-- 23 -->
<g id="node24" class="node"><title>23</title>
<path fill="none" stroke="#56d8d8" stroke-width="2" stroke-dasharray="5,2" d="M2307.5,-1248C2307.5,-1248 1960.5,-1248 1960.5,-1248 1954.5,-1248 1948.5,-1242 1948.5,-1236 1948.5,-1236 1948.5,-1224 1948.5,-1224 1948.5,-1218 1954.5,-1212 1960.5,-1212 1960.5,-1212 2307.5,-1212 2307.5,-1212 2313.5,-1212 2319.5,-1218 2319.5,-1224 2319.5,-1224 2319.5,-1236 2319.5,-1236 2319.5,-1242 2313.5,-1248 2307.5,-1248"/>
<text text-anchor="middle" x="2134" y="-1227.5" font-family="sans" font-size="10.00">Scripts_MultiOmics_Variant_analysis_outlier_proportions_variant_type_R</text>
</g>
<!-- 8&#45;&gt;23 -->
<g id="edge77" class="edge"><title>8&#45;&gt;23</title>
<path fill="none" stroke="grey" stroke-width="2" d="M1357.4,-1205.2C1509.95,-1210.08 1762.99,-1218.17 1938.37,-1223.78"/>
<polygon fill="grey" stroke="grey" stroke-width="2" points="1938.39,-1227.28 1948.49,-1224.1 1938.61,-1220.28 1938.39,-1227.28"/>
</g>
<!-- 25 -->
<g id="node26" class="node"><title>25</title>
<path fill="none" stroke="#d87556" stroke-width="2" stroke-dasharray="5,2" d="M2258,-1194C2258,-1194 2010,-1194 2010,-1194 2004,-1194 1998,-1188 1998,-1182 1998,-1182 1998,-1170 1998,-1170 1998,-1164 2004,-1158 2010,-1158 2010,-1158 2258,-1158 2258,-1158 2264,-1158 2270,-1164 2270,-1170 2270,-1170 2270,-1182 2270,-1182 2270,-1188 2264,-1194 2258,-1194"/>
<text text-anchor="middle" x="2134" y="-1173.5" font-family="sans" font-size="10.00">Scripts_Paper_figures_Figure1_c_positive_controls_R</text>
</g>
<!-- 8&#45;&gt;25 -->
<g id="edge80" class="edge"><title>8&#45;&gt;25</title>
<path fill="none" stroke="grey" stroke-width="2" d="M1357.4,-1197.38C1525,-1192.76 1813.9,-1184.8 1987.84,-1180"/>
<polygon fill="grey" stroke="grey" stroke-width="2" points="1987.94,-1183.5 1997.84,-1179.73 1987.74,-1176.5 1987.94,-1183.5"/>
</g>
<!-- 26 -->
<g id="node27" class="node"><title>26</title>
<path fill="none" stroke="#70d856" stroke-width="2" stroke-dasharray="5,2" d="M1811.5,-1154C1811.5,-1154 1572.5,-1154 1572.5,-1154 1566.5,-1154 1560.5,-1148 1560.5,-1142 1560.5,-1142 1560.5,-1130 1560.5,-1130 1560.5,-1124 1566.5,-1118 1572.5,-1118 1572.5,-1118 1811.5,-1118 1811.5,-1118 1817.5,-1118 1823.5,-1124 1823.5,-1130 1823.5,-1130 1823.5,-1142 1823.5,-1142 1823.5,-1148 1817.5,-1154 1811.5,-1154"/>
<text text-anchor="middle" x="1692" y="-1133.5" font-family="sans" font-size="10.00">Scripts_Paper_figures_Figure1_d_VUS_validation_R</text>
</g>
<!-- 8&#45;&gt;26 -->
<g id="edge81" class="edge"><title>8&#45;&gt;26</title>
<path fill="none" stroke="grey" stroke-width="2" d="M1354.91,-1182.98C1416.14,-1174.42 1489.42,-1164.18 1551.91,-1155.44"/>
<polygon fill="grey" stroke="grey" stroke-width="2" points="1552.42,-1158.91 1561.84,-1154.05 1551.45,-1151.97 1552.42,-1158.91"/>
</g>
<!-- 27 -->
<g id="node28" class="node"><title>27</title>
<path fill="none" stroke="#56d88a" stroke-width="2" stroke-dasharray="5,2" d="M1801,-1100C1801,-1100 1583,-1100 1583,-1100 1577,-1100 1571,-1094 1571,-1088 1571,-1088 1571,-1076 1571,-1076 1571,-1070 1577,-1064 1583,-1064 1583,-1064 1801,-1064 1801,-1064 1807,-1064 1813,-1070 1813,-1076 1813,-1076 1813,-1088 1813,-1088 1813,-1094 1807,-1100 1801,-1100"/>
<text text-anchor="middle" x="1692" y="-1079.5" font-family="sans" font-size="10.00">Scripts_Paper_figures_Figure2_a_integration_R</text>
</g>
<!-- 8&#45;&gt;27 -->
<g id="edge82" class="edge"><title>8&#45;&gt;27</title>
<path fill="none" stroke="grey" stroke-width="2" d="M1269.1,-1182.95C1320.72,-1162.04 1410.22,-1128.05 1490,-1109 1512.7,-1103.58 1537.12,-1099.16 1560.84,-1095.58"/>
<polygon fill="grey" stroke="grey" stroke-width="2" points="1561.58,-1099.01 1570.96,-1094.09 1560.56,-1092.08 1561.58,-1099.01"/>
</g>
<!-- 8&#45;&gt;28 -->
<g id="edge83" class="edge"><title>8&#45;&gt;28</title>
<path fill="none" stroke="grey" stroke-width="2" d="M1236.14,-1182.79C1266.47,-1130.43 1362.34,-979.563 1490,-922 1579.67,-881.566 1850.33,-886.356 2010.48,-893.281"/>
<polygon fill="grey" stroke="grey" stroke-width="2" points="2010.72,-896.795 2020.87,-893.74 2011.03,-889.802 2010.72,-896.795"/>
</g>
<!-- 8&#45;&gt;29 -->
<g id="edge85" class="edge"><title>8&#45;&gt;29</title>
<path fill="none" stroke="grey" stroke-width="2" d="M1234.53,-1182.66C1262.01,-1126.01 1354.4,-953.486 1490,-885 1573.72,-842.714 1823.79,-839.098 1986.26,-841.631"/>
<polygon fill="grey" stroke="grey" stroke-width="2" points="1986.29,-845.132 1996.35,-841.798 1986.41,-838.133 1986.29,-845.132"/>
</g>
<!-- 8&#45;&gt;30 -->
<g id="edge87" class="edge"><title>8&#45;&gt;30</title>
<path fill="none" stroke="grey" stroke-width="2" d="M1230.9,-1182.78C1250.17,-1115.11 1327.84,-877.205 1490,-783 1574.41,-733.964 1843.11,-738.353 2005.22,-746.084"/>
<polygon fill="grey" stroke="grey" stroke-width="2" points="2005.1,-749.582 2015.26,-746.573 2005.45,-742.59 2005.1,-749.582"/>
</g>
<!-- 8&#45;&gt;31 -->
<g id="edge89" class="edge"><title>8&#45;&gt;31</title>
<path fill="none" stroke="grey" stroke-width="2" d="M1229.95,-1182.53C1246.48,-1110.37 1317.39,-846.286 1490,-739 1530.44,-713.862 1801.69,-704.91 1978.72,-701.734"/>
<polygon fill="grey" stroke="grey" stroke-width="2" points="1978.99,-705.23 1988.92,-701.556 1978.86,-698.231 1978.99,-705.23"/>
</g>
<!-- 8&#45;&gt;32 -->
<g id="edge91" class="edge"><title>8&#45;&gt;32</title>
<path fill="none" stroke="grey" stroke-width="2" d="M1229.22,-1182.75C1243.51,-1107.68 1308.75,-821.095 1490,-701 1500.72,-693.898 1826.87,-668.688 2010.44,-655"/>
<polygon fill="grey" stroke="grey" stroke-width="2" points="2010.71,-658.49 2020.42,-654.257 2010.19,-651.509 2010.71,-658.49"/>
</g>
<!-- 33 -->
<g id="node34" class="node"><title>33</title>
<path fill="none" stroke="#56d8d0" stroke-width="2" stroke-dasharray="5,2" d="M1811,-620C1811,-620 1573,-620 1573,-620 1567,-620 1561,-614 1561,-608 1561,-608 1561,-596 1561,-596 1561,-590 1567,-584 1573,-584 1573,-584 1811,-584 1811,-584 1817,-584 1823,-590 1823,-596 1823,-596 1823,-608 1823,-608 1823,-614 1817,-620 1811,-620"/>
<text text-anchor="middle" x="1692" y="-599.5" font-family="sans" font-size="10.00">Scripts_Paper_figures_Figure3_c_mito_ribosome_R</text>
</g>
<!-- 8&#45;&gt;33 -->
<g id="edge93" class="edge"><title>8&#45;&gt;33</title>
<path fill="none" stroke="grey" stroke-width="2" d="M1229.88,-1182.75C1246.66,-1108.13 1320.03,-823.087 1490,-673 1516.57,-649.534 1551.41,-633.688 1584.59,-623.046"/>
<polygon fill="grey" stroke="grey" stroke-width="2" points="1585.83,-626.326 1594.36,-620.044 1583.78,-619.635 1585.83,-626.326"/>
</g>
<!-- 8&#45;&gt;34 -->
<g id="edge95" class="edge"><title>8&#45;&gt;34</title>
<path fill="none" stroke="grey" stroke-width="2" d="M1240.15,-1182.7C1276.07,-1137.87 1376.06,-1023.07 1490,-979 1664.54,-911.498 1885.97,-921.631 2018.19,-936.701"/>
<polygon fill="grey" stroke="grey" stroke-width="2" points="2018.01,-940.202 2028.35,-937.887 2018.82,-933.25 2018.01,-940.202"/>
</g>
<!-- 35 -->
<g id="node36" class="node"><title>35</title>
<path fill="none" stroke="#d8ac56" stroke-width="2" stroke-dasharray="5,2" d="M1801,-1560C1801,-1560 1583,-1560 1583,-1560 1577,-1560 1571,-1554 1571,-1548 1571,-1548 1571,-1536 1571,-1536 1571,-1530 1577,-1524 1583,-1524 1583,-1524 1801,-1524 1801,-1524 1807,-1524 1813,-1530 1813,-1536 1813,-1536 1813,-1548 1813,-1548 1813,-1554 1807,-1560 1801,-1560"/>
<text text-anchor="middle" x="1692" y="-1539.5" font-family="sans" font-size="10.00">Scripts_Paper_figures_Figure3_h_complexes_R</text>
</g>
<!-- 8&#45;&gt;35 -->
<g id="edge97" class="edge"><title>8&#45;&gt;35</title>
<path fill="none" stroke="grey" stroke-width="2" d="M1330.88,-1219.02C1375.29,-1231.99 1423.68,-1254.17 1454,-1292 1516.78,-1370.34 1418.08,-1444.96 1490,-1515 1509.12,-1533.62 1534.55,-1543.58 1560.87,-1548.38"/>
<polygon fill="grey" stroke="grey" stroke-width="2" points="1560.56,-1551.87 1570.99,-1549.97 1561.65,-1544.96 1560.56,-1551.87"/>
</g>
<!-- 8&#45;&gt;36 -->
<g id="edge98" class="edge"><title>8&#45;&gt;36</title>
<path fill="none" stroke="grey" stroke-width="2" d="M1241.59,-1183C1279.18,-1141.13 1379.9,-1038 1490,-1001 1582.48,-969.924 1848.42,-984.546 2007.85,-996.951"/>
<polygon fill="grey" stroke="grey" stroke-width="2" points="2007.95,-1000.47 2018.19,-997.764 2008.5,-993.491 2007.95,-1000.47"/>
</g>
<!-- 37 -->
<g id="node38" class="node"><title>37</title>
<path fill="none" stroke="#5663d8" stroke-width="2" stroke-dasharray="5,2" d="M1794.5,-2112C1794.5,-2112 1589.5,-2112 1589.5,-2112 1583.5,-2112 1577.5,-2106 1577.5,-2100 1577.5,-2100 1577.5,-2088 1577.5,-2088 1577.5,-2082 1583.5,-2076 1589.5,-2076 1589.5,-2076 1794.5,-2076 1794.5,-2076 1800.5,-2076 1806.5,-2082 1806.5,-2088 1806.5,-2088 1806.5,-2100 1806.5,-2100 1806.5,-2106 1800.5,-2112 1794.5,-2112"/>
<text text-anchor="middle" x="1692" y="-2091.5" font-family="sans" font-size="10.00">Scripts_Patient_analysis_detected_genes_R</text>
</g>
<!-- 8&#45;&gt;37 -->
<g id="edge101" class="edge"><title>8&#45;&gt;37</title>
<path fill="none" stroke="grey" stroke-width="2" d="M1234.44,-1219.29C1266.51,-1289.3 1382.63,-1547.51 1454,-1769 1474.5,-1832.61 1455.5,-1857.76 1490,-1915 1531.13,-1983.24 1606.64,-2039.98 1652.49,-2070.28"/>
<polygon fill="grey" stroke="grey" stroke-width="2" points="1650.67,-2073.27 1660.96,-2075.8 1654.5,-2067.41 1650.67,-2073.27"/>
</g>
<!-- 38 -->
<g id="node39" class="node"><title>38</title>
<path fill="none" stroke="#d88d56" stroke-width="2" stroke-dasharray="5,2" d="M1797.5,-1506C1797.5,-1506 1586.5,-1506 1586.5,-1506 1580.5,-1506 1574.5,-1500 1574.5,-1494 1574.5,-1494 1574.5,-1482 1574.5,-1482 1574.5,-1476 1580.5,-1470 1586.5,-1470 1586.5,-1470 1797.5,-1470 1797.5,-1470 1803.5,-1470 1809.5,-1476 1809.5,-1482 1809.5,-1482 1809.5,-1494 1809.5,-1494 1809.5,-1500 1803.5,-1506 1797.5,-1506"/>
<text text-anchor="middle" x="1692" y="-1485.5" font-family="sans" font-size="10.00">Scripts_Patient_analysis_diagnosed_cases_R</text>
</g>
<!-- 8&#45;&gt;38 -->
<g id="edge106" class="edge"><title>8&#45;&gt;38</title>
<path fill="none" stroke="grey" stroke-width="2" d="M1327.29,-1219.06C1372.2,-1232.08 1422.02,-1254.3 1454,-1292 1502.28,-1348.9 1435.72,-1404.79 1490,-1456 1510.2,-1475.06 1536.95,-1485.43 1564.31,-1490.65"/>
<polygon fill="grey" stroke="grey" stroke-width="2" points="1563.97,-1494.15 1574.41,-1492.35 1565.13,-1487.24 1563.97,-1494.15"/>
</g>
<!-- 45 -->
<g id="node46" class="node"><title>45</title>
<path fill="none" stroke="#78d856" stroke-width="2" stroke-dasharray="5,2" d="M1819,-1414C1819,-1414 1565,-1414 1565,-1414 1559,-1414 1553,-1408 1553,-1402 1553,-1402 1553,-1390 1553,-1390 1553,-1384 1559,-1378 1565,-1378 1565,-1378 1819,-1378 1819,-1378 1825,-1378 1831,-1384 1831,-1390 1831,-1390 1831,-1402 1831,-1402 1831,-1408 1825,-1414 1819,-1414"/>
<text text-anchor="middle" x="1692" y="-1393.5" font-family="sans" font-size="10.00">Scripts_Supplementary_figures_S_Fig1_f_validation_R</text>
</g>
<!-- 8&#45;&gt;45 -->
<g id="edge114" class="edge"><title>8&#45;&gt;45</title>
<path fill="none" stroke="grey" stroke-width="2" d="M1312.46,-1219.05C1359.11,-1232.52 1414.95,-1255.14 1454,-1292 1481.47,-1317.93 1459.55,-1346.64 1490,-1369 1505.72,-1380.55 1524.05,-1388.36 1543.12,-1393.51"/>
<polygon fill="grey" stroke="grey" stroke-width="2" points="1542.29,-1396.91 1552.84,-1395.9 1543.96,-1390.12 1542.29,-1396.91"/>
</g>
<!-- 46 -->
<g id="node47" class="node"><title>46</title>
<path fill="none" stroke="#d8b456" stroke-width="2" stroke-dasharray="5,2" d="M1832.5,-566C1832.5,-566 1551.5,-566 1551.5,-566 1545.5,-566 1539.5,-560 1539.5,-554 1539.5,-554 1539.5,-542 1539.5,-542 1539.5,-536 1545.5,-530 1551.5,-530 1551.5,-530 1832.5,-530 1832.5,-530 1838.5,-530 1844.5,-536 1844.5,-542 1844.5,-542 1844.5,-554 1844.5,-554 1844.5,-560 1838.5,-566 1832.5,-566"/>
<text text-anchor="middle" x="1692" y="-545.5" font-family="sans" font-size="10.00">Scripts_Supplementary_figures_S_Fig1_g_mito_ribosome_R</text>
</g>
<!-- 8&#45;&gt;46 -->
<g id="edge115" class="edge"><title>8&#45;&gt;46</title>
<path fill="none" stroke="grey" stroke-width="2" d="M1235.03,-1182.67C1267.28,-1116.83 1378.84,-885.688 1454,-688 1472.73,-638.731 1449.62,-608.874 1490,-575 1501.73,-565.162 1515.27,-557.888 1529.67,-552.589"/>
<polygon fill="grey" stroke="grey" stroke-width="2" points="1530.88,-555.877 1539.25,-549.385 1528.65,-549.238 1530.88,-555.877"/>
</g>
<!-- 52 -->
<g id="node53" class="node"><title>52</title>
<path fill="none" stroke="#567bd8" stroke-width="2" stroke-dasharray="5,2" d="M1787.5,-1614C1787.5,-1614 1596.5,-1614 1596.5,-1614 1590.5,-1614 1584.5,-1608 1584.5,-1602 1584.5,-1602 1584.5,-1590 1584.5,-1590 1584.5,-1584 1590.5,-1578 1596.5,-1578 1596.5,-1578 1787.5,-1578 1787.5,-1578 1793.5,-1578 1799.5,-1584 1799.5,-1590 1799.5,-1590 1799.5,-1602 1799.5,-1602 1799.5,-1608 1793.5,-1614 1787.5,-1614"/>
<text text-anchor="middle" x="1692" y="-1593.5" font-family="sans" font-size="10.00">Scripts_Supplementary_figures_S_Fig3_R</text>
</g>
<!-- 8&#45;&gt;52 -->
<g id="edge121" class="edge"><title>8&#45;&gt;52</title>
<path fill="none" stroke="grey" stroke-width="2" d="M1332.89,-1219.02C1377.01,-1231.97 1424.6,-1254.13 1454,-1292 1530.13,-1390.06 1402.4,-1481.03 1490,-1569 1512.14,-1591.23 1543.22,-1601.26 1574.33,-1604.88"/>
<polygon fill="grey" stroke="grey" stroke-width="2" points="1574.13,-1608.38 1584.42,-1605.84 1574.8,-1601.41 1574.13,-1608.38"/>
</g>
<!-- 9&#45;&gt;1 -->
<g id="edge9" class="edge"><title>9&#45;&gt;1</title>
<path fill="none" stroke="grey" stroke-width="2" d="M1841.86,-1662.65C2009.49,-1673.44 2267.73,-1678.48 2338,-1615 2402.55,-1556.69 2409.83,-1272.28 2410.49,-1181.15"/>
<polygon fill="grey" stroke="grey" stroke-width="2" points="2413.99,-1181.04 2410.55,-1171.03 2406.99,-1181.01 2413.99,-1181.04"/>
</g>
<!-- 9&#45;&gt;7 -->
<g id="edge56" class="edge"><title>9&#45;&gt;7</title>
<path fill="none" stroke="grey" stroke-width="2" d="M1820.86,-1668.02C1875.55,-1675.72 1939.52,-1684.74 1995.26,-1692.59"/>
<polygon fill="grey" stroke="grey" stroke-width="2" points="1994.81,-1696.06 2005.2,-1693.99 1995.79,-1689.13 1994.81,-1696.06"/>
</g>
<!-- 10 -->
<g id="node11" class="node"><title>10</title>
<path fill="none" stroke="#d88556" stroke-width="2" stroke-dasharray="5,2" d="M2326,-1860C2326,-1860 1942,-1860 1942,-1860 1936,-1860 1930,-1854 1930,-1848 1930,-1848 1930,-1836 1930,-1836 1930,-1830 1936,-1824 1942,-1824 1942,-1824 2326,-1824 2326,-1824 2332,-1824 2338,-1830 2338,-1836 2338,-1836 2338,-1848 2338,-1848 2338,-1854 2332,-1860 2326,-1860"/>
<text text-anchor="middle" x="2134" y="-1839.5" font-family="sans" font-size="10.00">Scripts_MultiOmics_Proteomics_Aberrant_Expression_LIMMA_LIMMASummary_R</text>
</g>
<!-- 10&#45;&gt;1 -->
<g id="edge10" class="edge"><title>10&#45;&gt;1</title>
<path fill="none" stroke="grey" stroke-width="2" d="M2321.91,-1823.71C2327.68,-1819.71 2333.07,-1815.16 2338,-1810 2382.09,-1763.82 2404.31,-1301.4 2409.37,-1181.35"/>
<polygon fill="grey" stroke="grey" stroke-width="2" points="2412.87,-1181.27 2409.79,-1171.13 2405.88,-1180.98 2412.87,-1181.27"/>
</g>
<!-- 11 -->
<g id="node12" class="node"><title>11</title>
<path fill="none" stroke="#5682d8" stroke-width="2" stroke-dasharray="5,2" d="M925.5,-2028C925.5,-2028 520.5,-2028 520.5,-2028 514.5,-2028 508.5,-2022 508.5,-2016 508.5,-2016 508.5,-2004 508.5,-2004 508.5,-1998 514.5,-1992 520.5,-1992 520.5,-1992 925.5,-1992 925.5,-1992 931.5,-1992 937.5,-1998 937.5,-2004 937.5,-2004 937.5,-2016 937.5,-2016 937.5,-2022 931.5,-2028 925.5,-2028"/>
<text text-anchor="middle" x="723" y="-2007.5" font-family="sans" font-size="10.00">Scripts_MultiOmics_Proteomics_Aberrant_Expression_LIMMA_batch_normalization_R</text>
</g>
<!-- 11&#45;&gt;1 -->
<g id="edge11" class="edge"><title>11&#45;&gt;1</title>
<path fill="none" stroke="grey" stroke-width="2" d="M937.754,-2013.71C1365.02,-2020.11 2288.07,-2028.32 2338,-1981 2397.27,-1924.82 2408.41,-1320.57 2410.19,-1181.45"/>
<polygon fill="grey" stroke="grey" stroke-width="2" points="2413.7,-1181.23 2410.32,-1171.19 2406.7,-1181.15 2413.7,-1181.23"/>
</g>
<!-- 16 -->
<g id="node17" class="node"><title>16</title>
<path fill="none" stroke="#56a9d8" stroke-width="2" stroke-dasharray="5,2" d="M1365,-2074C1365,-2074 1085,-2074 1085,-2074 1079,-2074 1073,-2068 1073,-2062 1073,-2062 1073,-2050 1073,-2050 1073,-2044 1079,-2038 1085,-2038 1085,-2038 1365,-2038 1365,-2038 1371,-2038 1377,-2044 1377,-2050 1377,-2050 1377,-2062 1377,-2062 1377,-2068 1371,-2074 1365,-2074"/>
<text text-anchor="middle" x="1225" y="-2053.5" font-family="sans" font-size="10.00">Scripts_MultiOmics_Proteomics_disease_gene_coverage_R</text>
</g>
<!-- 11&#45;&gt;16 -->
<g id="edge69" class="edge"><title>11&#45;&gt;16</title>
<path fill="none" stroke="grey" stroke-width="2" d="M919.82,-2028.02C967.029,-2032.36 1016.95,-2036.95 1062.39,-2041.13"/>
<polygon fill="grey" stroke="grey" stroke-width="2" points="1062.34,-2044.64 1072.62,-2042.07 1062.98,-2037.67 1062.34,-2044.64"/>
</g>
<!-- 54 -->
<g id="node55" class="node"><title>54</title>
<path fill="none" stroke="#d89556" stroke-width="2" stroke-dasharray="5,2" d="M1432.5,-1814C1432.5,-1814 1017.5,-1814 1017.5,-1814 1011.5,-1814 1005.5,-1808 1005.5,-1802 1005.5,-1802 1005.5,-1790 1005.5,-1790 1005.5,-1784 1011.5,-1778 1017.5,-1778 1017.5,-1778 1432.5,-1778 1432.5,-1778 1438.5,-1778 1444.5,-1784 1444.5,-1790 1444.5,-1790 1444.5,-1802 1444.5,-1802 1444.5,-1808 1438.5,-1814 1432.5,-1814"/>
<text text-anchor="middle" x="1225" y="-1793.5" font-family="sans" font-size="10.00">Scripts_MultiOmics_Proteomics_Aberrant_Expression_LIMMA_detect_outliers_limma_R</text>
</g>
<!-- 11&#45;&gt;54 -->
<g id="edge123" class="edge"><title>11&#45;&gt;54</title>
<path fill="none" stroke="grey" stroke-width="2" d="M872.239,-1991.97C903.101,-1983.5 934.087,-1971.11 960,-1953 983.644,-1936.48 974.005,-1917.66 996,-1899 1041.16,-1860.68 1102.9,-1833.96 1150.74,-1817.36"/>
<polygon fill="grey" stroke="grey" stroke-width="2" points="1152.08,-1820.6 1160.42,-1814.07 1149.83,-1813.97 1152.08,-1820.6"/>
</g>
<!-- 12 -->
<g id="node13" class="node"><title>12</title>
<path fill="none" stroke="#61d856" stroke-width="2" stroke-dasharray="5,2" d="M1442,-543C1442,-543 1008,-543 1008,-543 1002,-543 996,-537 996,-531 996,-531 996,-519 996,-519 996,-513 1002,-507 1008,-507 1008,-507 1442,-507 1442,-507 1448,-507 1454,-513 1454,-519 1454,-519 1454,-531 1454,-531 1454,-537 1448,-543 1442,-543"/>
<text text-anchor="middle" x="1225" y="-522.5" font-family="sans" font-size="10.00">Scripts_MultiOmics_Proteomics_Aberrant_Expression_PROTRIDER_PROTRIDERSummary_R</text>
</g>
<!-- 12&#45;&gt;1 -->
<g id="edge12" class="edge"><title>12&#45;&gt;1</title>
<path fill="none" stroke="grey" stroke-width="2" d="M1454.13,-514.334C1770.23,-500.705 2306.42,-482.216 2338,-512 2387.72,-558.888 2341.46,-1065.9 2374,-1126 2374.96,-1127.77 2376.09,-1129.45 2377.34,-1131.05"/>
<polygon fill="grey" stroke="grey" stroke-width="2" points="2374.98,-1133.64 2384.49,-1138.33 2379.98,-1128.74 2374.98,-1133.64"/>
</g>
<!-- 13 -->
<g id="node14" class="node"><title>13</title>
<path fill="none" stroke="#59d856" stroke-width="2" stroke-dasharray="5,2" d="M1419.5,-679C1419.5,-679 1030.5,-679 1030.5,-679 1024.5,-679 1018.5,-673 1018.5,-667 1018.5,-667 1018.5,-655 1018.5,-655 1018.5,-649 1024.5,-643 1030.5,-643 1030.5,-643 1419.5,-643 1419.5,-643 1425.5,-643 1431.5,-649 1431.5,-655 1431.5,-655 1431.5,-667 1431.5,-667 1431.5,-673 1425.5,-679 1419.5,-679"/>
<text text-anchor="middle" x="1225" y="-658.5" font-family="sans" font-size="10.00">Scripts_MultiOmics_Proteomics_Protein_complexes_AE_MITO_groups_Protrider_R</text>
</g>
<!-- 13&#45;&gt;1 -->
<g id="edge13" class="edge"><title>13&#45;&gt;1</title>
<path fill="none" stroke="grey" stroke-width="2" d="M1431.5,-662.955C1564.24,-661.32 1740.25,-653.719 1894,-629 1910.4,-626.364 1913.55,-621.243 1930,-619 2019.84,-606.755 2271.66,-557.201 2338,-619 2420.65,-695.988 2319.61,-1027.01 2374,-1126 2374.86,-1127.57 2375.86,-1129.07 2376.95,-1130.5"/>
<polygon fill="grey" stroke="grey" stroke-width="2" points="2374.71,-1133.22 2384.17,-1137.99 2379.75,-1128.36 2374.71,-1133.22"/>
</g>
<!-- 14 -->
<g id="node15" class="node"><title>14</title>
<path fill="none" stroke="#56d882" stroke-width="2" stroke-dasharray="5,2" d="M1882,-474C1882,-474 1502,-474 1502,-474 1496,-474 1490,-468 1490,-462 1490,-462 1490,-450 1490,-450 1490,-444 1496,-438 1502,-438 1502,-438 1882,-438 1882,-438 1888,-438 1894,-444 1894,-450 1894,-450 1894,-462 1894,-462 1894,-468 1888,-474 1882,-474"/>
<text text-anchor="middle" x="1692" y="-453.5" font-family="sans" font-size="10.00">Scripts_MultiOmics_Proteomics_Protein_complexes_AE_complexes_Protrider_R</text>
</g>
<!-- 14&#45;&gt;1 -->
<g id="edge14" class="edge"><title>14&#45;&gt;1</title>
<path fill="none" stroke="grey" stroke-width="2" d="M1894.04,-447.579C2071.38,-442.302 2306.47,-441.409 2338,-472 2390.23,-522.678 2339.46,-1061.94 2374,-1126 2374.95,-1127.77 2376.08,-1129.45 2377.33,-1131.05"/>
<polygon fill="grey" stroke="grey" stroke-width="2" points="2374.97,-1133.64 2384.47,-1138.34 2379.97,-1128.74 2374.97,-1133.64"/>
</g>
<!-- 15 -->
<g id="node16" class="node"><title>15</title>
<path fill="none" stroke="#568ad8" stroke-width="2" stroke-dasharray="5,2" d="M1876.5,-1046C1876.5,-1046 1507.5,-1046 1507.5,-1046 1501.5,-1046 1495.5,-1040 1495.5,-1034 1495.5,-1034 1495.5,-1022 1495.5,-1022 1495.5,-1016 1501.5,-1010 1507.5,-1010 1507.5,-1010 1876.5,-1010 1876.5,-1010 1882.5,-1010 1888.5,-1016 1888.5,-1022 1888.5,-1022 1888.5,-1034 1888.5,-1034 1888.5,-1040 1882.5,-1046 1876.5,-1046"/>
<text text-anchor="middle" x="1692" y="-1025.5" font-family="sans" font-size="10.00">Scripts_MultiOmics_Proteomics_Protein_complexes_AE_complexes_limma_R</text>
</g>
<!-- 15&#45;&gt;1 -->
<g id="edge15" class="edge"><title>15&#45;&gt;1</title>
<path fill="none" stroke="grey" stroke-width="2" d="M1888.66,-1039.67C2063.49,-1051.22 2298.09,-1069.88 2338,-1089 2358.69,-1098.91 2356.72,-1110.91 2374,-1126 2374.97,-1126.85 2375.96,-1127.69 2376.97,-1128.54"/>
<polygon fill="grey" stroke="grey" stroke-width="2" points="2374.96,-1131.41 2384.95,-1134.93 2379.33,-1125.94 2374.96,-1131.41"/>
</g>
<!-- 15&#45;&gt;36 -->
<g id="edge100" class="edge"><title>15&#45;&gt;36</title>
<path fill="none" stroke="grey" stroke-width="2" d="M1888.55,-1019.11C1929.15,-1017.27 1970.87,-1015.37 2008.09,-1013.68"/>
<polygon fill="grey" stroke="grey" stroke-width="2" points="2008.63,-1017.16 2018.46,-1013.21 2008.32,-1010.16 2008.63,-1017.16"/>
</g>
<!-- 16&#45;&gt;1 -->
<g id="edge16" class="edge"><title>16&#45;&gt;1</title>
<path fill="none" stroke="grey" stroke-width="2" d="M1377.22,-2056.92C1673.29,-2058 2303.73,-2056.46 2338,-2024 2400.54,-1964.76 2409.18,-1325.27 2410.33,-1181.56"/>
<polygon fill="grey" stroke="grey" stroke-width="2" points="2413.83,-1181.38 2410.4,-1171.36 2406.83,-1181.33 2413.83,-1181.38"/>
</g>
<!-- 24 -->
<g id="node25" class="node"><title>24</title>
<path fill="none" stroke="#56d8a9" stroke-width="2" stroke-dasharray="5,2" d="M1834,-2166C1834,-2166 1550,-2166 1550,-2166 1544,-2166 1538,-2160 1538,-2154 1538,-2154 1538,-2142 1538,-2142 1538,-2136 1544,-2130 1550,-2130 1550,-2130 1834,-2130 1834,-2130 1840,-2130 1846,-2136 1846,-2142 1846,-2142 1846,-2154 1846,-2154 1846,-2160 1840,-2166 1834,-2166"/>
<text text-anchor="middle" x="1692" y="-2145.5" font-family="sans" font-size="10.00">Scripts_Paper_figures_Figure1_b_rna_proteome_coverage_R</text>
</g>
<!-- 16&#45;&gt;24 -->
<g id="edge78" class="edge"><title>16&#45;&gt;24</title>
<path fill="none" stroke="grey" stroke-width="2" d="M1290.94,-2074.07C1344.11,-2088.36 1421.48,-2108 1490,-2121 1503.91,-2123.64 1518.41,-2126.12 1532.98,-2128.42"/>
<polygon fill="grey" stroke="grey" stroke-width="2" points="1532.65,-2131.91 1543.06,-2129.98 1533.72,-2124.99 1532.65,-2131.91"/>
</g>
<!-- 16&#45;&gt;37 -->
<g id="edge104" class="edge"><title>16&#45;&gt;37</title>
<path fill="none" stroke="grey" stroke-width="2" d="M1377.29,-2068.36C1438.82,-2073.39 1509.02,-2079.13 1567.39,-2083.9"/>
<polygon fill="grey" stroke="grey" stroke-width="2" points="1567.15,-2087.39 1577.4,-2084.72 1567.72,-2080.41 1567.15,-2087.39"/>
</g>
<!-- 17 -->
<g id="node18" class="node"><title>17</title>
<path fill="none" stroke="#56b9d8" stroke-width="2" stroke-dasharray="5,2" d="M1397,-1944C1397,-1944 1053,-1944 1053,-1944 1047,-1944 1041,-1938 1041,-1932 1041,-1932 1041,-1920 1041,-1920 1041,-1914 1047,-1908 1053,-1908 1053,-1908 1397,-1908 1397,-1908 1403,-1908 1409,-1914 1409,-1920 1409,-1920 1409,-1932 1409,-1932 1409,-1938 1403,-1944 1397,-1944"/>
<text text-anchor="middle" x="1225" y="-1923.5" font-family="sans" font-size="10.00">Scripts_MultiOmics_RNA_seq_Aberrant_Expression_OutriderSummary_R</text>
</g>
<!-- 17&#45;&gt;1 -->
<g id="edge17" class="edge"><title>17&#45;&gt;1</title>
<path fill="none" stroke="grey" stroke-width="2" d="M1409.17,-1935.91C1707.43,-1950.13 2271.65,-1968.38 2338,-1907 2392.28,-1856.78 2407.15,-1312.74 2409.95,-1181.41"/>
<polygon fill="grey" stroke="grey" stroke-width="2" points="2413.45,-1181.4 2410.16,-1171.33 2406.46,-1181.26 2413.45,-1181.4"/>
</g>
<!-- 18 -->
<g id="node19" class="node"><title>18</title>
<path fill="none" stroke="#56d85b" stroke-width="2" stroke-dasharray="5,2" d="M910,-1944C910,-1944 536,-1944 536,-1944 530,-1944 524,-1938 524,-1932 524,-1932 524,-1920 524,-1920 524,-1914 530,-1908 536,-1908 536,-1908 910,-1908 910,-1908 916,-1908 922,-1914 922,-1920 922,-1920 922,-1932 922,-1932 922,-1938 916,-1944 910,-1944"/>
<text text-anchor="middle" x="723" y="-1923.5" font-family="sans" font-size="10.00">Scripts_MultiOmics_RNA_seq_Aberrant_Expression_detect_outliers_outrider_R</text>
</g>
<!-- 18&#45;&gt;1 -->
<g id="edge18" class="edge"><title>18&#45;&gt;1</title>
<path fill="none" stroke="grey" stroke-width="2" d="M881.312,-1944.01C918.844,-1947.65 958.804,-1950.97 996,-1953 1144.89,-1961.13 2229.67,-2044.47 2338,-1942 2394.38,-1888.67 2407.7,-1316.31 2410.06,-1181.38"/>
<polygon fill="grey" stroke="grey" stroke-width="2" points="2413.57,-1181.12 2410.24,-1171.06 2406.57,-1181 2413.57,-1181.12"/>
</g>
<!-- 18&#45;&gt;7 -->
<g id="edge55" class="edge"><title>18&#45;&gt;7</title>
<path fill="none" stroke="grey" stroke-width="2" d="M747.491,-1907.84C792.714,-1873.96 896.244,-1801.64 996,-1769 1331.55,-1659.22 1752.41,-1674.89 1976.16,-1694.39"/>
<polygon fill="grey" stroke="grey" stroke-width="2" points="1976.06,-1697.9 1986.33,-1695.29 1976.68,-1690.92 1976.06,-1697.9"/>
</g>
<!-- 18&#45;&gt;8 -->
<g id="edge57" class="edge"><title>18&#45;&gt;8</title>
<path fill="none" stroke="grey" stroke-width="2" d="M736.61,-1907.72C804.363,-1809.47 1125.11,-1344.39 1205.63,-1227.64"/>
<polygon fill="grey" stroke="grey" stroke-width="2" points="1208.63,-1229.45 1211.42,-1219.23 1202.87,-1225.48 1208.63,-1229.45"/>
</g>
<!-- 18&#45;&gt;17 -->
<g id="edge70" class="edge"><title>18&#45;&gt;17</title>
<path fill="none" stroke="grey" stroke-width="2" d="M922.331,-1926C957.942,-1926 995.014,-1926 1030.49,-1926"/>
<polygon fill="grey" stroke="grey" stroke-width="2" points="1030.94,-1929.5 1040.94,-1926 1030.94,-1922.5 1030.94,-1929.5"/>
</g>
<!-- 19 -->
<g id="node20" class="node"><title>19</title>
<path fill="none" stroke="#d86e56" stroke-width="2" stroke-dasharray="5,2" d="M1359.5,-2166C1359.5,-2166 1090.5,-2166 1090.5,-2166 1084.5,-2166 1078.5,-2160 1078.5,-2154 1078.5,-2154 1078.5,-2142 1078.5,-2142 1078.5,-2136 1084.5,-2130 1090.5,-2130 1090.5,-2130 1359.5,-2130 1359.5,-2130 1365.5,-2130 1371.5,-2136 1371.5,-2142 1371.5,-2142 1371.5,-2154 1371.5,-2154 1371.5,-2160 1365.5,-2166 1359.5,-2166"/>
<text text-anchor="middle" x="1225" y="-2145.5" font-family="sans" font-size="10.00">Scripts_MultiOmics_RNA_seq_disease_gene_coverage_R</text>
</g>
<!-- 18&#45;&gt;19 -->
<g id="edge73" class="edge"><title>18&#45;&gt;19</title>
<path fill="none" stroke="grey" stroke-width="2" d="M890.146,-1944.01C915.707,-1952.71 940.153,-1965.2 960,-1983 995.164,-2014.54 961.485,-2050.75 996,-2083 1017.62,-2103.2 1045.07,-2117.18 1073.37,-2126.84"/>
<polygon fill="grey" stroke="grey" stroke-width="2" points="1072.41,-2130.2 1083,-2129.95 1074.56,-2123.54 1072.41,-2130.2"/>
</g>
<!-- 47 -->
<g id="node48" class="node"><title>47</title>
<path fill="none" stroke="#68d856" stroke-width="2" stroke-dasharray="5,2" d="M1845.5,-1906C1845.5,-1906 1538.5,-1906 1538.5,-1906 1532.5,-1906 1526.5,-1900 1526.5,-1894 1526.5,-1894 1526.5,-1882 1526.5,-1882 1526.5,-1876 1532.5,-1870 1538.5,-1870 1538.5,-1870 1845.5,-1870 1845.5,-1870 1851.5,-1870 1857.5,-1876 1857.5,-1882 1857.5,-1882 1857.5,-1894 1857.5,-1894 1857.5,-1900 1851.5,-1906 1845.5,-1906"/>
<text text-anchor="middle" x="1692" y="-1885.5" font-family="sans" font-size="10.00">Scripts_Supplementary_figures_S_Fig2_a_outliers_per_sample_R</text>
</g>
<!-- 18&#45;&gt;47 -->
<g id="edge117" class="edge"><title>18&#45;&gt;47</title>
<path fill="none" stroke="grey" stroke-width="2" d="M883.115,-1907.97C920.124,-1904.39 959.402,-1901.1 996,-1899 1172.92,-1888.84 1375.56,-1886.71 1516.19,-1886.75"/>
<polygon fill="grey" stroke="grey" stroke-width="2" points="1516.21,-1890.25 1526.21,-1886.76 1516.21,-1883.25 1516.21,-1890.25"/>
</g>
<!-- 19&#45;&gt;1 -->
<g id="edge19" class="edge"><title>19&#45;&gt;1</title>
<path fill="none" stroke="grey" stroke-width="2" d="M1371.73,-2165.59C1410.14,-2169.49 1451.58,-2173.04 1490,-2175 1678.3,-2184.6 2204.02,-2279.67 2338,-2147 2408.39,-2077.3 2410.86,-1336.89 2410.6,-1181.5"/>
<polygon fill="grey" stroke="grey" stroke-width="2" points="2414.1,-1181.34 2410.58,-1171.35 2407.1,-1181.35 2414.1,-1181.34"/>
</g>
<!-- 19&#45;&gt;24 -->
<g id="edge79" class="edge"><title>19&#45;&gt;24</title>
<path fill="none" stroke="grey" stroke-width="2" d="M1371.53,-2148C1421.11,-2148 1476.85,-2148 1527.73,-2148"/>
<polygon fill="grey" stroke="grey" stroke-width="2" points="1527.84,-2151.5 1537.84,-2148 1527.84,-2144.5 1527.84,-2151.5"/>
</g>
<!-- 19&#45;&gt;37 -->
<g id="edge103" class="edge"><title>19&#45;&gt;37</title>
<path fill="none" stroke="grey" stroke-width="2" d="M1371.53,-2131.1C1434.24,-2123.82 1506.81,-2115.39 1566.92,-2108.41"/>
<polygon fill="grey" stroke="grey" stroke-width="2" points="1567.7,-2111.84 1577.23,-2107.21 1566.89,-2104.89 1567.7,-2111.84"/>
</g>
<!-- 20&#45;&gt;1 -->
<g id="edge20" class="edge"><title>20&#45;&gt;1</title>
<path fill="none" stroke="grey" stroke-width="2" d="M1849.08,-1349.96C1864.89,-1354.53 1880.19,-1360.72 1894,-1369 1917.48,-1383.08 1905.63,-1406.52 1930,-1419 2010.7,-1460.34 2265.95,-1474.04 2338,-1419 2376.11,-1389.88 2398.98,-1243.34 2407.12,-1181.07"/>
<polygon fill="grey" stroke="grey" stroke-width="2" points="2410.59,-1181.51 2408.38,-1171.14 2403.65,-1180.62 2410.59,-1181.51"/>
</g>
<!-- 48 -->
<g id="node49" class="node"><title>48</title>
<path fill="none" stroke="#56d0d8" stroke-width="2" stroke-dasharray="5,2" d="M2265.5,-1410C2265.5,-1410 2002.5,-1410 2002.5,-1410 1996.5,-1410 1990.5,-1404 1990.5,-1398 1990.5,-1398 1990.5,-1386 1990.5,-1386 1990.5,-1380 1996.5,-1374 2002.5,-1374 2002.5,-1374 2265.5,-1374 2265.5,-1374 2271.5,-1374 2277.5,-1380 2277.5,-1386 2277.5,-1386 2277.5,-1398 2277.5,-1398 2277.5,-1404 2271.5,-1410 2265.5,-1410"/>
<text text-anchor="middle" x="2134" y="-1389.5" font-family="sans" font-size="10.00">Scripts_Supplementary_figures_S_Fig2_b_enrichment_R</text>
</g>
<!-- 20&#45;&gt;48 -->
<g id="edge120" class="edge"><title>20&#45;&gt;48</title>
<path fill="none" stroke="grey" stroke-width="2" d="M1849.06,-1359.73C1891.61,-1364.57 1937.65,-1369.8 1980.03,-1374.62"/>
<polygon fill="grey" stroke="grey" stroke-width="2" points="1979.82,-1378.12 1990.15,-1375.77 1980.61,-1371.16 1979.82,-1378.12"/>
</g>
<!-- 21&#45;&gt;1 -->
<g id="edge21" class="edge"><title>21&#45;&gt;1</title>
<path fill="none" stroke="grey" stroke-width="2" d="M2324.12,-1319.96C2328.93,-1317.25 2333.57,-1314.28 2338,-1311 2380.42,-1279.66 2398.71,-1217.48 2406.04,-1181.17"/>
<polygon fill="grey" stroke="grey" stroke-width="2" points="2409.51,-1181.7 2407.91,-1171.23 2402.63,-1180.41 2409.51,-1181.7"/>
</g>
<!-- 22&#45;&gt;1 -->
<g id="edge22" class="edge"><title>22&#45;&gt;1</title>
<path fill="none" stroke="grey" stroke-width="2" d="M2286.72,-1278.07C2304.8,-1273.31 2322.36,-1266.53 2338,-1257 2367.21,-1239.21 2387.67,-1204.7 2399.24,-1180.33"/>
<polygon fill="grey" stroke="grey" stroke-width="2" points="2402.43,-1181.77 2403.38,-1171.22 2396.05,-1178.87 2402.43,-1181.77"/>
</g>
<!-- 23&#45;&gt;1 -->
<g id="edge23" class="edge"><title>23&#45;&gt;1</title>
<path fill="none" stroke="grey" stroke-width="2" d="M2310.73,-1211.98C2320.06,-1209.37 2329.21,-1206.39 2338,-1203 2353.53,-1197.01 2368.97,-1187.07 2381.58,-1177.63"/>
<polygon fill="grey" stroke="grey" stroke-width="2" points="2384.07,-1180.12 2389.82,-1171.22 2379.78,-1174.59 2384.07,-1180.12"/>
</g>
<!-- 24&#45;&gt;1 -->
<g id="edge24" class="edge"><title>24&#45;&gt;1</title>
<path fill="none" stroke="grey" stroke-width="2" d="M1846.29,-2159.3C2015,-2168.07 2271.21,-2169.36 2338,-2103 2404.97,-2036.47 2410.15,-1333.14 2410.49,-1181.65"/>
<polygon fill="grey" stroke="grey" stroke-width="2" points="2413.99,-1181.34 2410.51,-1171.33 2406.99,-1181.33 2413.99,-1181.34"/>
</g>
<!-- 25&#45;&gt;1 -->
<g id="edge25" class="edge"><title>25&#45;&gt;1</title>
<path fill="none" stroke="grey" stroke-width="2" d="M2270.33,-1164.7C2308.65,-1161.5 2347.22,-1158.28 2374.18,-1156.03"/>
<polygon fill="grey" stroke="grey" stroke-width="2" points="2374.59,-1159.51 2384.27,-1155.19 2374.01,-1152.53 2374.59,-1159.51"/>
</g>
<!-- 26&#45;&gt;1 -->
<g id="edge26" class="edge"><title>26&#45;&gt;1</title>
<path fill="none" stroke="grey" stroke-width="2" d="M1823.68,-1137.3C1954,-1138.9 2159.9,-1142.29 2338,-1149 2349.77,-1149.44 2362.6,-1150.1 2374.15,-1150.75"/>
<polygon fill="grey" stroke="grey" stroke-width="2" points="2374.15,-1154.25 2384.34,-1151.34 2374.55,-1147.26 2374.15,-1154.25"/>
</g>
<!-- 27&#45;&gt;1 -->
<g id="edge27" class="edge"><title>27&#45;&gt;1</title>
<path fill="none" stroke="grey" stroke-width="2" d="M1813.18,-1086.08C1943.25,-1091.84 2156.45,-1105.2 2338,-1135 2349.98,-1136.97 2362.89,-1139.9 2374.45,-1142.83"/>
<polygon fill="grey" stroke="grey" stroke-width="2" points="2373.64,-1146.24 2384.2,-1145.38 2375.41,-1139.47 2373.64,-1146.24"/>
</g>
<!-- 28&#45;&gt;1 -->
<g id="edge28" class="edge"><title>28&#45;&gt;1</title>
<path fill="none" stroke="grey" stroke-width="2" d="M2247.21,-891.059C2280.21,-894.21 2313.89,-903.988 2338,-927 2403.02,-989.052 2326.53,-1049.68 2374,-1126 2374.92,-1127.47 2375.94,-1128.89 2377.06,-1130.25"/>
<polygon fill="grey" stroke="grey" stroke-width="2" points="2374.67,-1132.82 2384.2,-1137.45 2379.64,-1127.88 2374.67,-1132.82"/>
</g>
<!-- 29&#45;&gt;1 -->
<g id="edge29" class="edge"><title>29&#45;&gt;1</title>
<path fill="none" stroke="grey" stroke-width="2" d="M2271.73,-840.085C2296.47,-845.243 2320.07,-855.232 2338,-873 2418.68,-952.944 2315.84,-1028.45 2374,-1126 2374.92,-1127.54 2375.96,-1129.01 2377.09,-1130.43"/>
<polygon fill="grey" stroke="grey" stroke-width="2" points="2374.91,-1133.2 2384.43,-1137.84 2379.88,-1128.27 2374.91,-1133.2"/>
</g>
<!-- 30&#45;&gt;1 -->
<g id="edge30" class="edge"><title>30&#45;&gt;1</title>
<path fill="none" stroke="grey" stroke-width="2" d="M2252.73,-747.592C2284.4,-751.92 2315.94,-762.789 2338,-786 2390.34,-841.073 2336.27,-1060.05 2374,-1126 2374.89,-1127.55 2375.91,-1129.04 2377.02,-1130.47"/>
<polygon fill="grey" stroke="grey" stroke-width="2" points="2374.81,-1133.21 2384.3,-1137.92 2379.82,-1128.32 2374.81,-1133.21"/>
</g>
<!-- 31&#45;&gt;1 -->
<g id="edge31" class="edge"><title>31&#45;&gt;1</title>
<path fill="none" stroke="grey" stroke-width="2" d="M2279.19,-694.932C2301.37,-700.519 2322.13,-710.446 2338,-727 2399.61,-791.267 2330.39,-1048.39 2374,-1126 2374.88,-1127.56 2375.88,-1129.05 2376.99,-1130.48"/>
<polygon fill="grey" stroke="grey" stroke-width="2" points="2374.76,-1133.21 2384.24,-1137.95 2379.79,-1128.34 2374.76,-1133.21"/>
</g>
<!-- 32&#45;&gt;1 -->
<g id="edge32" class="edge"><title>32&#45;&gt;1</title>
<path fill="none" stroke="grey" stroke-width="2" d="M2247.57,-635.55C2280.99,-638.51 2314.82,-648.558 2338,-673 2407.49,-746.271 2325,-1037.7 2374,-1126 2374.87,-1127.56 2375.87,-1129.06 2376.97,-1130.49"/>
<polygon fill="grey" stroke="grey" stroke-width="2" points="2374.73,-1133.22 2384.2,-1137.98 2379.77,-1128.35 2374.73,-1133.22"/>
</g>
<!-- 33&#45;&gt;1 -->
<g id="edge33" class="edge"><title>33&#45;&gt;1</title>
<path fill="none" stroke="grey" stroke-width="2" d="M1823.02,-589.234C2000.64,-573.222 2301.4,-551.755 2338,-586 2425.82,-668.164 2316.32,-1020.47 2374,-1126 2374.86,-1127.57 2375.85,-1129.07 2376.95,-1130.51"/>
<polygon fill="grey" stroke="grey" stroke-width="2" points="2374.7,-1133.22 2384.15,-1138 2379.74,-1128.37 2374.7,-1133.22"/>
</g>
<!-- 34&#45;&gt;1 -->
<g id="edge34" class="edge"><title>34&#45;&gt;1</title>
<path fill="none" stroke="grey" stroke-width="2" d="M2239.75,-945.451C2274.73,-947.99 2311.5,-957.295 2338,-981 2387.49,-1025.27 2337.13,-1070.77 2374,-1126 2374.96,-1127.44 2376.03,-1128.84 2377.18,-1130.18"/>
<polygon fill="grey" stroke="grey" stroke-width="2" points="2374.84,-1132.79 2384.43,-1137.3 2379.74,-1127.8 2374.84,-1132.79"/>
</g>
<!-- 35&#45;&gt;1 -->
<g id="edge35" class="edge"><title>35&#45;&gt;1</title>
<path fill="none" stroke="grey" stroke-width="2" d="M1813,-1552.97C1988.54,-1567.77 2298.85,-1588.74 2338,-1556 2395.6,-1507.84 2407.51,-1264.76 2409.91,-1181.23"/>
<polygon fill="grey" stroke="grey" stroke-width="2" points="2413.41,-1181.29 2410.17,-1171.2 2406.41,-1181.1 2413.41,-1181.29"/>
</g>
<!-- 36&#45;&gt;1 -->
<g id="edge36" class="edge"><title>36&#45;&gt;1</title>
<path fill="none" stroke="grey" stroke-width="2" d="M2249.56,-1006.06C2280.87,-1010.56 2313.02,-1020.4 2338,-1040 2370.6,-1065.58 2348.43,-1093.4 2374,-1126 2374.91,-1127.16 2375.89,-1128.3 2376.91,-1129.41"/>
<polygon fill="grey" stroke="grey" stroke-width="2" points="2374.53,-1131.98 2384.21,-1136.3 2379.34,-1126.89 2374.53,-1131.98"/>
</g>
<!-- 37&#45;&gt;1 -->
<g id="edge37" class="edge"><title>37&#45;&gt;1</title>
<path fill="none" stroke="grey" stroke-width="2" d="M1806.53,-2105.45C1971.29,-2119.33 2264.98,-2132.86 2338,-2062 2402.7,-1999.21 2409.66,-1328.4 2410.41,-1181.38"/>
<polygon fill="grey" stroke="grey" stroke-width="2" points="2413.91,-1181.36 2410.46,-1171.34 2406.91,-1181.32 2413.91,-1181.36"/>
</g>
<!-- 38&#45;&gt;1 -->
<g id="edge38" class="edge"><title>38&#45;&gt;1</title>
<path fill="none" stroke="grey" stroke-width="2" d="M1809.64,-1499.39C1837.5,-1503.28 1866.98,-1508.39 1894,-1515 1910.52,-1519.04 1913.24,-1525.07 1930,-1528 2019.31,-1543.63 2268.07,-1585.71 2338,-1528 2391.49,-1483.86 2405.97,-1261.52 2409.48,-1181.63"/>
<polygon fill="grey" stroke="grey" stroke-width="2" points="2412.99,-1181.48 2409.9,-1171.34 2405.99,-1181.19 2412.99,-1181.48"/>
</g>
<!-- 39 -->
<g id="node40" class="node"><title>39</title>
<path fill="none" stroke="#97d856" stroke-width="2" stroke-dasharray="5,2" d="M2243.5,-306C2243.5,-306 2024.5,-306 2024.5,-306 2018.5,-306 2012.5,-300 2012.5,-294 2012.5,-294 2012.5,-282 2012.5,-282 2012.5,-276 2018.5,-270 2024.5,-270 2024.5,-270 2243.5,-270 2243.5,-270 2249.5,-270 2255.5,-276 2255.5,-282 2255.5,-282 2255.5,-294 2255.5,-294 2255.5,-300 2249.5,-306 2243.5,-306"/>
<text text-anchor="middle" x="2134" y="-285.5" font-family="sans" font-size="10.00">Scripts_Patient_analysis_samples_overview_R</text>
</g>
<!-- 39&#45;&gt;1 -->
<g id="edge39" class="edge"><title>39&#45;&gt;1</title>
<path fill="none" stroke="grey" stroke-width="2" d="M2255.76,-281.054C2286.72,-285.562 2317.13,-296.661 2338,-320 2397.75,-386.828 2331.87,-1046.87 2374,-1126 2374.94,-1127.77 2376.06,-1129.46 2377.31,-1131.07"/>
<polygon fill="grey" stroke="grey" stroke-width="2" points="2374.94,-1133.65 2384.43,-1138.36 2379.95,-1128.76 2374.94,-1133.65"/>
</g>
<!-- 40 -->
<g id="node41" class="node"><title>40</title>
<path fill="none" stroke="#5673d8" stroke-width="2" stroke-dasharray="5,2" d="M1799.5,-1760C1799.5,-1760 1584.5,-1760 1584.5,-1760 1578.5,-1760 1572.5,-1754 1572.5,-1748 1572.5,-1748 1572.5,-1736 1572.5,-1736 1572.5,-1730 1578.5,-1724 1584.5,-1724 1584.5,-1724 1799.5,-1724 1799.5,-1724 1805.5,-1724 1811.5,-1730 1811.5,-1736 1811.5,-1736 1811.5,-1748 1811.5,-1748 1811.5,-1754 1805.5,-1760 1799.5,-1760"/>
<text text-anchor="middle" x="1692" y="-1739.5" font-family="sans" font-size="10.00">Scripts_Supplementary_PROTRIDER_S_Fig5_R</text>
</g>
<!-- 40&#45;&gt;1 -->
<g id="edge40" class="edge"><title>40&#45;&gt;1</title>
<path fill="none" stroke="grey" stroke-width="2" d="M1811.81,-1749.75C1987.41,-1759.97 2299.75,-1772.97 2338,-1739 2380.28,-1701.45 2403.54,-1293.28 2409.15,-1181.28"/>
<polygon fill="grey" stroke="grey" stroke-width="2" points="2412.66,-1181.27 2409.66,-1171.1 2405.67,-1180.92 2412.66,-1181.27"/>
</g>
<!-- 41 -->
<g id="node42" class="node"><title>41</title>
<path fill="none" stroke="#b6d856" stroke-width="2" stroke-dasharray="5,2" d="M2267,-252C2267,-252 2001,-252 2001,-252 1995,-252 1989,-246 1989,-240 1989,-240 1989,-228 1989,-228 1989,-222 1995,-216 2001,-216 2001,-216 2267,-216 2267,-216 2273,-216 2279,-222 2279,-228 2279,-228 2279,-240 2279,-240 2279,-246 2273,-252 2267,-252"/>
<text text-anchor="middle" x="2134" y="-231.5" font-family="sans" font-size="10.00">Scripts_Supplementary_PROTRIDER_Summary_fib_all_R</text>
</g>
<!-- 41&#45;&gt;1 -->
<g id="edge41" class="edge"><title>41&#45;&gt;1</title>
<path fill="none" stroke="grey" stroke-width="2" d="M2279.1,-228.1C2301.5,-233.718 2322.36,-243.87 2338,-261 2402.87,-332.031 2328.92,-1041.02 2374,-1126 2374.94,-1127.78 2376.06,-1129.47 2377.31,-1131.07"/>
<polygon fill="grey" stroke="grey" stroke-width="2" points="2374.93,-1133.65 2384.42,-1138.36 2379.94,-1128.76 2374.93,-1133.65"/>
</g>
<!-- 42 -->
<g id="node43" class="node"><title>42</title>
<path fill="none" stroke="#569ad8" stroke-width="2" stroke-dasharray="5,2" d="M1831.5,-1814C1831.5,-1814 1552.5,-1814 1552.5,-1814 1546.5,-1814 1540.5,-1808 1540.5,-1802 1540.5,-1802 1540.5,-1790 1540.5,-1790 1540.5,-1784 1546.5,-1778 1552.5,-1778 1552.5,-1778 1831.5,-1778 1831.5,-1778 1837.5,-1778 1843.5,-1784 1843.5,-1790 1843.5,-1790 1843.5,-1802 1843.5,-1802 1843.5,-1808 1837.5,-1814 1831.5,-1814"/>
<text text-anchor="middle" x="1692" y="-1793.5" font-family="sans" font-size="10.00">Scripts_Supplementary_PROTRIDER_limma_vs_protrider_R</text>
</g>
<!-- 42&#45;&gt;1 -->
<g id="edge42" class="edge"><title>42&#45;&gt;1</title>
<path fill="none" stroke="grey" stroke-width="2" d="M1843.6,-1798.3C2022.91,-1799.52 2302.73,-1795.98 2338,-1763 2381.11,-1722.69 2403.87,-1296.01 2409.24,-1181.27"/>
<polygon fill="grey" stroke="grey" stroke-width="2" points="2412.75,-1181.32 2409.71,-1171.16 2405.75,-1180.99 2412.75,-1181.32"/>
</g>
<!-- 43 -->
<g id="node44" class="node"><title>43</title>
<path fill="none" stroke="#c6d856" stroke-width="2" stroke-dasharray="5,2" d="M2282,-198C2282,-198 1986,-198 1986,-198 1980,-198 1974,-192 1974,-186 1974,-186 1974,-174 1974,-174 1974,-168 1980,-162 1986,-162 1986,-162 2282,-162 2282,-162 2288,-162 2294,-168 2294,-174 2294,-174 2294,-186 2294,-186 2294,-192 2288,-198 2282,-198"/>
<text text-anchor="middle" x="2134" y="-177.5" font-family="sans" font-size="10.00">Scripts_Supplementary_figures_S_Fig1_d_detected_proteins_R</text>
</g>
<!-- 43&#45;&gt;1 -->
<g id="edge43" class="edge"><title>43&#45;&gt;1</title>
<path fill="none" stroke="grey" stroke-width="2" d="M2294.04,-178.605C2310.69,-184.641 2325.91,-193.727 2338,-207 2406.82,-282.542 2326.22,-1035.67 2374,-1126 2374.94,-1127.78 2376.05,-1129.47 2377.3,-1131.07"/>
<polygon fill="grey" stroke="grey" stroke-width="2" points="2374.93,-1133.65 2384.41,-1138.37 2379.94,-1128.76 2374.93,-1133.65"/>
</g>
<!-- 44 -->
<g id="node45" class="node"><title>44</title>
<path fill="none" stroke="#56d87b" stroke-width="2" stroke-dasharray="5,2" d="M1370,-2220C1370,-2220 1080,-2220 1080,-2220 1074,-2220 1068,-2214 1068,-2208 1068,-2208 1068,-2196 1068,-2196 1068,-2190 1074,-2184 1080,-2184 1080,-2184 1370,-2184 1370,-2184 1376,-2184 1382,-2190 1382,-2196 1382,-2196 1382,-2208 1382,-2208 1382,-2214 1376,-2220 1370,-2220"/>
<text text-anchor="middle" x="1225" y="-2199.5" font-family="sans" font-size="10.00">Scripts_Supplementary_figures_S_Fig1_e_gtex_proteomics_R</text>
</g>
<!-- 44&#45;&gt;1 -->
<g id="edge44" class="edge"><title>44&#45;&gt;1</title>
<path fill="none" stroke="grey" stroke-width="2" d="M1340.43,-2220.04C1595.31,-2257.36 2198.27,-2328.92 2338,-2195 2413.19,-2122.94 2411.82,-1341.15 2410.74,-1181.41"/>
<polygon fill="grey" stroke="grey" stroke-width="2" points="2414.24,-1181.37 2410.67,-1171.4 2407.24,-1181.42 2414.24,-1181.37"/>
</g>
<!-- 44&#45;&gt;37 -->
<g id="edge105" class="edge"><title>44&#45;&gt;37</title>
<path fill="none" stroke="grey" stroke-width="2" d="M1382.28,-2201.61C1407.53,-2196.57 1432.43,-2188.24 1454,-2175 1478.59,-2159.92 1465.53,-2136.28 1490,-2121 1513.01,-2106.63 1540.37,-2098.47 1567.38,-2094.07"/>
<polygon fill="grey" stroke="grey" stroke-width="2" points="1567.92,-2097.53 1577.31,-2092.62 1566.91,-2090.61 1567.92,-2097.53"/>
</g>
<!-- 45&#45;&gt;1 -->
<g id="edge45" class="edge"><title>45&#45;&gt;1</title>
<path fill="none" stroke="grey" stroke-width="2" d="M1831.2,-1410.3C1852.61,-1414.71 1874.18,-1420.47 1894,-1428 1911.75,-1434.75 1911.78,-1445.68 1930,-1451 2017.03,-1476.43 2266.71,-1507.02 2338,-1451 2380.62,-1417.51 2401.31,-1248.79 2407.99,-1181.13"/>
<polygon fill="grey" stroke="grey" stroke-width="2" points="2411.47,-1181.46 2408.94,-1171.17 2404.5,-1180.79 2411.47,-1181.46"/>
</g>
<!-- 46&#45;&gt;1 -->
<g id="edge46" class="edge"><title>46&#45;&gt;1</title>
<path fill="none" stroke="grey" stroke-width="2" d="M1838.12,-529.975C2006.3,-512.67 2269.22,-497.861 2338,-564 2383.1,-607.37 2344.06,-1071.06 2374,-1126 2374.86,-1127.57 2375.85,-1129.07 2376.94,-1130.51"/>
<polygon fill="grey" stroke="grey" stroke-width="2" points="2374.69,-1133.22 2384.14,-1138.01 2379.74,-1128.37 2374.69,-1133.22"/>
</g>
<!-- 47&#45;&gt;1 -->
<g id="edge47" class="edge"><title>47&#45;&gt;1</title>
<path fill="none" stroke="grey" stroke-width="2" d="M1850.11,-1906.03C2018.19,-1921.5 2269.84,-1932.45 2338,-1869 2389.26,-1821.28 2406.34,-1307.91 2409.8,-1181.17"/>
<polygon fill="grey" stroke="grey" stroke-width="2" points="2413.3,-1181.18 2410.06,-1171.09 2406.3,-1180.99 2413.3,-1181.18"/>
</g>
<!-- 48&#45;&gt;1 -->
<g id="edge48" class="edge"><title>48&#45;&gt;1</title>
<path fill="none" stroke="grey" stroke-width="2" d="M2277.63,-1393.32C2299.59,-1388.05 2320.68,-1379.2 2338,-1365 2393.97,-1319.11 2406.88,-1227.92 2409.76,-1181.53"/>
<polygon fill="grey" stroke="grey" stroke-width="2" points="2413.26,-1181.45 2410.27,-1171.29 2406.27,-1181.1 2413.26,-1181.45"/>
</g>
<!-- 49 -->
<g id="node50" class="node"><title>49</title>
<path fill="none" stroke="#d85656" stroke-width="2" stroke-dasharray="5,2" d="M2282,-144C2282,-144 1986,-144 1986,-144 1980,-144 1974,-138 1974,-132 1974,-132 1974,-120 1974,-120 1974,-114 1980,-108 1986,-108 1986,-108 2282,-108 2282,-108 2288,-108 2294,-114 2294,-120 2294,-120 2294,-132 2294,-132 2294,-138 2288,-144 2282,-144"/>
<text text-anchor="middle" x="2134" y="-123.5" font-family="sans" font-size="10.00">Scripts_Supplementary_figures_S_Fig2_c_proportion_of_RVs_R</text>
</g>
<!-- 49&#45;&gt;1 -->
<g id="edge49" class="edge"><title>49&#45;&gt;1</title>
<path fill="none" stroke="grey" stroke-width="2" d="M2294.07,-124.579C2310.71,-130.62 2325.92,-139.714 2338,-153 2410.77,-233.053 2323.52,-1030.31 2374,-1126 2374.94,-1127.78 2376.05,-1129.47 2377.3,-1131.07"/>
<polygon fill="grey" stroke="grey" stroke-width="2" points="2374.92,-1133.65 2384.4,-1138.37 2379.93,-1128.77 2374.92,-1133.65"/>
</g>
<!-- 50 -->
<g id="node51" class="node"><title>50</title>
<path fill="none" stroke="#9fd856" stroke-width="2" stroke-dasharray="5,2" d="M2265.5,-90C2265.5,-90 2002.5,-90 2002.5,-90 1996.5,-90 1990.5,-84 1990.5,-78 1990.5,-78 1990.5,-66 1990.5,-66 1990.5,-60 1996.5,-54 2002.5,-54 2002.5,-54 2265.5,-54 2265.5,-54 2271.5,-54 2277.5,-60 2277.5,-66 2277.5,-66 2277.5,-78 2277.5,-78 2277.5,-84 2271.5,-90 2265.5,-90"/>
<text text-anchor="middle" x="2134" y="-69.5" font-family="sans" font-size="10.00">Scripts_Supplementary_figures_S_Fig2_d_Hpo_match_R</text>
</g>
<!-- 50&#45;&gt;1 -->
<g id="edge50" class="edge"><title>50&#45;&gt;1</title>
<path fill="none" stroke="grey" stroke-width="2" d="M2277.65,-65.6338C2300.62,-71.1775 2322.05,-81.4237 2338,-99 2414.72,-183.565 2320.82,-1024.96 2374,-1126 2374.94,-1127.78 2376.05,-1129.47 2377.29,-1131.08"/>
<polygon fill="grey" stroke="grey" stroke-width="2" points="2374.91,-1133.65 2384.4,-1138.38 2379.93,-1128.77 2374.91,-1133.65"/>
</g>
<!-- 51 -->
<g id="node52" class="node"><title>51</title>
<path fill="none" stroke="#d8bc56" stroke-width="2" stroke-dasharray="5,2" d="M2279.5,-36C2279.5,-36 1988.5,-36 1988.5,-36 1982.5,-36 1976.5,-30 1976.5,-24 1976.5,-24 1976.5,-12 1976.5,-12 1976.5,-6 1982.5,-0 1988.5,-0 1988.5,-0 2279.5,-0 2279.5,-0 2285.5,-0 2291.5,-6 2291.5,-12 2291.5,-12 2291.5,-24 2291.5,-24 2291.5,-30 2285.5,-36 2279.5,-36"/>
<text text-anchor="middle" x="2134" y="-15.5" font-family="sans" font-size="10.00">Scripts_Supplementary_figures_S_Fig2_e_proportion_of_PB_R</text>
</g>
<!-- 51&#45;&gt;1 -->
<g id="edge51" class="edge"><title>51&#45;&gt;1</title>
<path fill="none" stroke="grey" stroke-width="2" d="M2291.64,-15.6604C2309.24,-21.6922 2325.35,-31.0332 2338,-45 2418.67,-134.077 2318.12,-1019.6 2374,-1126 2374.93,-1127.78 2376.05,-1129.47 2377.29,-1131.08"/>
<polygon fill="grey" stroke="grey" stroke-width="2" points="2374.91,-1133.65 2384.39,-1138.38 2379.93,-1128.77 2374.91,-1133.65"/>
</g>
<!-- 52&#45;&gt;1 -->
<g id="edge52" class="edge"><title>52&#45;&gt;1</title>
<path fill="none" stroke="grey" stroke-width="2" d="M1799.55,-1608.63C1961.83,-1625.36 2260.28,-1645.47 2338,-1578 2398.03,-1525.89 2408.36,-1267.65 2410.13,-1181.23"/>
<polygon fill="grey" stroke="grey" stroke-width="2" points="2413.63,-1181.18 2410.32,-1171.12 2406.63,-1181.05 2413.63,-1181.18"/>
</g>
<!-- 53 -->
<g id="node54" class="node"><title>53</title>
<path fill="none" stroke="#d6d856" stroke-width="2" stroke-dasharray="5,2" d="M948,-1281C948,-1281 498,-1281 498,-1281 492,-1281 486,-1275 486,-1269 486,-1269 486,-1257 486,-1257 486,-1251 492,-1245 498,-1245 498,-1245 948,-1245 948,-1245 954,-1245 960,-1251 960,-1257 960,-1257 960,-1269 960,-1269 960,-1275 954,-1281 948,-1281"/>
<text text-anchor="middle" x="723" y="-1260.5" font-family="sans" font-size="10.00">Scripts_MultiOmics_Proteomics_Aberrant_Expression_PROTRIDER_detect_outliers_protrider_R</text>
</g>
<!-- 53&#45;&gt;8 -->
<g id="edge58" class="edge"><title>53&#45;&gt;8</title>
<path fill="none" stroke="grey" stroke-width="2" d="M869.292,-1244.98C936.485,-1236.65 1015.99,-1226.79 1082.69,-1218.52"/>
<polygon fill="grey" stroke="grey" stroke-width="2" points="1083.36,-1221.97 1092.85,-1217.26 1082.5,-1215.02 1083.36,-1221.97"/>
</g>
<!-- 53&#45;&gt;12 -->
<g id="edge62" class="edge"><title>53&#45;&gt;12</title>
<path fill="none" stroke="grey" stroke-width="2" d="M724.808,-1244.89C729.896,-1154.27 765.34,-747.096 996,-561 1002.14,-556.046 1008.68,-551.641 1015.53,-547.73"/>
<polygon fill="grey" stroke="grey" stroke-width="2" points="1017.18,-550.82 1024.37,-543.036 1013.89,-544.638 1017.18,-550.82"/>
</g>
<!-- 53&#45;&gt;13 -->
<g id="edge63" class="edge"><title>53&#45;&gt;13</title>
<path fill="none" stroke="grey" stroke-width="2" d="M738.964,-1244.98C810.479,-1158.88 1117.46,-789.274 1202.24,-687.202"/>
<polygon fill="grey" stroke="grey" stroke-width="2" points="1205.15,-689.169 1208.85,-679.24 1199.77,-684.697 1205.15,-689.169"/>
</g>
<!-- 53&#45;&gt;14 -->
<g id="edge64" class="edge"><title>53&#45;&gt;14</title>
<path fill="none" stroke="grey" stroke-width="2" d="M723.831,-1244.8C724.025,-1148.06 738.856,-691.368 996,-498 1069.86,-442.456 1303.44,-438.28 1479.58,-443.925"/>
<polygon fill="grey" stroke="grey" stroke-width="2" points="1479.66,-447.429 1489.77,-444.264 1479.9,-440.433 1479.66,-447.429"/>
</g>
<!-- 53&#45;&gt;40 -->
<g id="edge108" class="edge"><title>53&#45;&gt;40</title>
<path fill="none" stroke="grey" stroke-width="2" d="M912.031,-1245C1079.01,-1240.26 1317.16,-1263.13 1454,-1409 1536.22,-1496.65 1412.97,-1584.75 1490,-1677 1508.66,-1699.35 1535.08,-1714.09 1562.65,-1723.79"/>
<polygon fill="grey" stroke="grey" stroke-width="2" points="1561.85,-1727.21 1572.44,-1727.01 1564.04,-1720.56 1561.85,-1727.21"/>
</g>
<!-- 53&#45;&gt;42 -->
<g id="edge111" class="edge"><title>53&#45;&gt;42</title>
<path fill="none" stroke="grey" stroke-width="2" d="M743.693,-1281.09C826.701,-1356.14 1159.06,-1644.94 1490,-1769 1502.87,-1773.82 1516.48,-1777.8 1530.32,-1781.09"/>
<polygon fill="grey" stroke="grey" stroke-width="2" points="1529.9,-1784.58 1540.43,-1783.35 1531.43,-1777.75 1529.9,-1784.58"/>
</g>
<!-- 53&#45;&gt;47 -->
<g id="edge118" class="edge"><title>53&#45;&gt;47</title>
<path fill="none" stroke="grey" stroke-width="2" d="M726.438,-1281.13C738.263,-1361.23 797.441,-1685.42 996,-1823 1037.83,-1851.99 1324.05,-1870.92 1515.9,-1880.51"/>
<polygon fill="grey" stroke="grey" stroke-width="2" points="1515.94,-1884.02 1526.1,-1881.02 1516.29,-1877.03 1515.94,-1884.02"/>
</g>
<!-- 54&#45;&gt;10 -->
<g id="edge61" class="edge"><title>54&#45;&gt;10</title>
<path fill="none" stroke="grey" stroke-width="2" d="M1383.59,-1814C1418.58,-1817.47 1455.52,-1820.73 1490,-1823 1633.09,-1832.42 1794.39,-1837.17 1919.65,-1839.56"/>
<polygon fill="grey" stroke="grey" stroke-width="2" points="1919.68,-1843.07 1929.74,-1839.75 1919.81,-1836.07 1919.68,-1843.07"/>
</g>
<!-- 54&#45;&gt;15 -->
<g id="edge66" class="edge"><title>54&#45;&gt;15</title>
<path fill="none" stroke="grey" stroke-width="2" d="M1234.69,-1777.79C1267.69,-1708.07 1386.69,-1450.76 1454,-1228 1476.72,-1152.82 1432.51,-1108.51 1490,-1055 1490.98,-1054.09 1491.97,-1053.2 1492.98,-1052.33"/>
<polygon fill="grey" stroke="grey" stroke-width="2" points="1495.27,-1054.99 1500.98,-1046.06 1490.95,-1049.47 1495.27,-1054.99"/>
</g>
<!-- 54&#45;&gt;40 -->
<g id="edge109" class="edge"><title>54&#45;&gt;40</title>
<path fill="none" stroke="grey" stroke-width="2" d="M1381.16,-1777.98C1439.96,-1771.15 1506.21,-1763.46 1562.31,-1756.94"/>
<polygon fill="grey" stroke="grey" stroke-width="2" points="1562.77,-1760.41 1572.3,-1755.78 1561.96,-1753.46 1562.77,-1760.41"/>
</g>
<!-- 54&#45;&gt;42 -->
<g id="edge112" class="edge"><title>54&#45;&gt;42</title>
<path fill="none" stroke="grey" stroke-width="2" d="M1444.54,-1796C1473.42,-1796 1502.58,-1796 1530.23,-1796"/>
<polygon fill="grey" stroke="grey" stroke-width="2" points="1530.35,-1799.5 1540.35,-1796 1530.35,-1792.5 1530.35,-1799.5"/>
</g>
<!-- 54&#45;&gt;47 -->
<g id="edge119" class="edge"><title>54&#45;&gt;47</title>
<path fill="none" stroke="grey" stroke-width="2" d="M1412.98,-1814.02C1427.1,-1817.86 1440.93,-1822.47 1454,-1828 1472.67,-1835.9 1471.41,-1847.93 1490,-1856 1499.8,-1860.25 1510.09,-1863.95 1520.62,-1867.16"/>
<polygon fill="grey" stroke="grey" stroke-width="2" points="1519.77,-1870.56 1530.35,-1869.97 1521.72,-1863.83 1519.77,-1870.56"/>
</g>
<!-- 55 -->
<g id="node56" class="node"><title>55</title>
<path fill="none" stroke="#56a2d8" stroke-width="2" stroke-dasharray="5,2" d="M1413.5,-606C1413.5,-606 1036.5,-606 1036.5,-606 1030.5,-606 1024.5,-600 1024.5,-594 1024.5,-594 1024.5,-582 1024.5,-582 1024.5,-576 1030.5,-570 1036.5,-570 1036.5,-570 1413.5,-570 1413.5,-570 1419.5,-570 1425.5,-576 1425.5,-582 1425.5,-582 1425.5,-594 1425.5,-594 1425.5,-600 1419.5,-606 1413.5,-606"/>
<text text-anchor="middle" x="1225" y="-585.5" font-family="sans" font-size="10.00">Scripts_MultiOmics_Proteomics_Protein_complexes_get_CORUM_complexes_R</text>
</g>
<!-- 55&#45;&gt;14 -->
<g id="edge65" class="edge"><title>55&#45;&gt;14</title>
<path fill="none" stroke="grey" stroke-width="2" d="M1403.49,-569.99C1420.96,-565.27 1438.09,-559.368 1454,-552 1473.16,-543.126 1471.59,-531.342 1490,-521 1524.2,-501.79 1564.9,-487.286 1600.7,-476.909"/>
<polygon fill="grey" stroke="grey" stroke-width="2" points="1602,-480.181 1610.66,-474.091 1600.09,-473.446 1602,-480.181"/>
</g>
<!-- 55&#45;&gt;15 -->
<g id="edge67" class="edge"><title>55&#45;&gt;15</title>
<path fill="none" stroke="grey" stroke-width="2" d="M1414.39,-606.038C1429.05,-613.151 1442.57,-622.3 1454,-634 1518.02,-699.551 1446.62,-756.291 1490,-837 1529.5,-910.493 1607.66,-972.025 1654.01,-1004.1"/>
<polygon fill="grey" stroke="grey" stroke-width="2" points="1652.33,-1007.19 1662.56,-1009.93 1656.27,-1001.41 1652.33,-1007.19"/>
</g>
<!-- 55&#45;&gt;33 -->
<g id="edge94" class="edge"><title>55&#45;&gt;33</title>
<path fill="none" stroke="grey" stroke-width="2" d="M1425.56,-594.008C1467.71,-595.277 1511.33,-596.591 1550.74,-597.777"/>
<polygon fill="grey" stroke="grey" stroke-width="2" points="1550.83,-601.281 1560.93,-598.084 1551.04,-594.284 1550.83,-601.281"/>
</g>
<!-- 55&#45;&gt;46 -->
<g id="edge116" class="edge"><title>55&#45;&gt;46</title>
<path fill="none" stroke="grey" stroke-width="2" d="M1425.56,-570.833C1460.05,-567.866 1495.53,-564.815 1528.87,-561.946"/>
<polygon fill="grey" stroke="grey" stroke-width="2" points="1529.49,-565.407 1539.15,-561.062 1528.89,-558.432 1529.49,-565.407"/>
</g>
<!-- 56 -->
<g id="node57" class="node"><title>56</title>
<path fill="none" stroke="#56c1d8" stroke-width="2" stroke-dasharray="5,2" d="M359.5,-2120C359.5,-2120 90.5,-2120 90.5,-2120 84.5,-2120 78.5,-2114 78.5,-2108 78.5,-2108 78.5,-2096 78.5,-2096 78.5,-2090 84.5,-2084 90.5,-2084 90.5,-2084 359.5,-2084 359.5,-2084 365.5,-2084 371.5,-2090 371.5,-2096 371.5,-2096 371.5,-2108 371.5,-2108 371.5,-2114 365.5,-2120 359.5,-2120"/>
<text text-anchor="middle" x="225" y="-2099.5" font-family="sans" font-size="10.00">Scripts_MultiOmics_RNA_seq_create_gene_annotation_R</text>
</g>
<!-- 56&#45;&gt;16 -->
<g id="edge68" class="edge"><title>56&#45;&gt;16</title>
<path fill="none" stroke="grey" stroke-width="2" d="M371.749,-2093.88C408.995,-2091.88 448.976,-2089.8 486,-2088 684.469,-2078.35 913.033,-2068.66 1062.56,-2062.51"/>
<polygon fill="grey" stroke="grey" stroke-width="2" points="1062.9,-2066 1072.74,-2062.1 1062.61,-2059.01 1062.9,-2066"/>
</g>
<!-- 56&#45;&gt;18 -->
<g id="edge71" class="edge"><title>56&#45;&gt;18</title>
<path fill="none" stroke="grey" stroke-width="2" d="M260.034,-2083.85C308.891,-2058.4 402.26,-2011.97 486,-1983 528.962,-1968.14 577.613,-1955.68 619.534,-1946.24"/>
<polygon fill="grey" stroke="grey" stroke-width="2" points="620.478,-1949.61 629.48,-1944.03 618.958,-1942.78 620.478,-1949.61"/>
</g>
<!-- 56&#45;&gt;19 -->
<g id="edge72" class="edge"><title>56&#45;&gt;19</title>
<path fill="none" stroke="grey" stroke-width="2" d="M371.749,-2110.12C408.995,-2112.12 448.976,-2114.2 486,-2116 686.973,-2125.77 918.806,-2135.58 1068.18,-2141.72"/>
<polygon fill="grey" stroke="grey" stroke-width="2" points="1068.21,-2145.22 1078.35,-2142.13 1068.5,-2138.23 1068.21,-2145.22"/>
</g>
<!-- 56&#45;&gt;37 -->
<g id="edge102" class="edge"><title>56&#45;&gt;37</title>
<path fill="none" stroke="grey" stroke-width="2" d="M371.826,-2101.2C659.969,-2099.63 1297.64,-2096.15 1567.03,-2094.68"/>
<polygon fill="grey" stroke="grey" stroke-width="2" points="1567.26,-2098.18 1577.24,-2094.62 1567.22,-2091.18 1567.26,-2098.18"/>
</g>
<!-- 56&#45;&gt;44 -->
<g id="edge113" class="edge"><title>56&#45;&gt;44</title>
<path fill="none" stroke="grey" stroke-width="2" d="M338.744,-2120.02C384.38,-2126.91 437.621,-2134.44 486,-2140 681.883,-2162.52 907.908,-2180.31 1057.67,-2190.95"/>
<polygon fill="grey" stroke="grey" stroke-width="2" points="1057.65,-2194.46 1067.87,-2191.67 1058.15,-2187.48 1057.65,-2194.46"/>
</g>
<!-- 57 -->
<g id="node58" class="node"><title>57</title>
<path fill="none" stroke="#5692d8" stroke-width="2" stroke-dasharray="5,2" d="M438,-1399C438,-1399 12,-1399 12,-1399 6,-1399 0,-1393 0,-1387 0,-1387 0,-1375 0,-1375 0,-1369 6,-1363 12,-1363 12,-1363 438,-1363 438,-1363 444,-1363 450,-1369 450,-1375 450,-1375 450,-1387 450,-1387 450,-1393 444,-1399 438,-1399"/>
<text text-anchor="middle" x="225" y="-1378.5" font-family="sans" font-size="10.00">Scripts_MultiOmics_Proteomics_Aberrant_Expression_PROTRIDER_protrider_data_prep_R</text>
</g>
<!-- 57&#45;&gt;40 -->
<g id="edge107" class="edge"><title>57&#45;&gt;40</title>
<path fill="none" stroke="grey" stroke-width="2" d="M299.151,-1399.03C545.873,-1459.82 1346.54,-1657.12 1607.75,-1721.49"/>
<polygon fill="grey" stroke="grey" stroke-width="2" points="1607.01,-1724.91 1617.56,-1723.9 1608.68,-1718.11 1607.01,-1724.91"/>
</g>
<!-- 57&#45;&gt;53 -->
<g id="edge122" class="edge"><title>57&#45;&gt;53</title>
<path fill="none" stroke="grey" stroke-width="2" d="M301.872,-1362.95C392.034,-1341.5 542.092,-1305.8 636.345,-1283.38"/>
<polygon fill="grey" stroke="grey" stroke-width="2" points="637.218,-1286.77 646.137,-1281.05 635.598,-1279.96 637.218,-1286.77"/>
</g>
<!-- 58 -->
<g id="node59" class="node"><title>58</title>
<path fill="none" stroke="#88d856" stroke-width="2" stroke-dasharray="5,2" d="M1845,-252C1845,-252 1539,-252 1539,-252 1533,-252 1527,-246 1527,-240 1527,-240 1527,-228 1527,-228 1527,-222 1533,-216 1539,-216 1539,-216 1845,-216 1845,-216 1851,-216 1857,-222 1857,-228 1857,-228 1857,-240 1857,-240 1857,-246 1851,-252 1845,-252"/>
<text text-anchor="middle" x="1692" y="-231.5" font-family="sans" font-size="10.00">Scripts_Supplementary_PROTRIDER_detect_outliers_all_fibros_R</text>
</g>
<!-- 58&#45;&gt;41 -->
<g id="edge110" class="edge"><title>58&#45;&gt;41</title>
<path fill="none" stroke="grey" stroke-width="2" d="M1857.15,-234C1896.92,-234 1939.29,-234 1978.59,-234"/>
<polygon fill="grey" stroke="grey" stroke-width="2" points="1978.77,-237.5 1988.77,-234 1978.77,-230.5 1978.77,-237.5"/>
</g>
</g>
</svg>
