<?xml version="1.0" encoding="UTF-8" standalone="no"?>
<!DOCTYPE svg PUBLIC "-//W3C//DTD SVG 1.1//EN"
 "http://www.w3.org/Graphics/SVG/1.1/DTD/svg11.dtd">
<!-- Generated by graphviz version 2.38.0 (20140413.2041)
 -->
<!-- Title: snakemake_dag Pages: 1 -->
<svg width="2549pt" height="2280pt"
 viewBox="0.00 0.00 2549.00 2280.15" xmlns="http://www.w3.org/2000/svg" xmlns:xlink="http://www.w3.org/1999/xlink">
<g id="graph0" class="graph" transform="scale(1 1) rotate(0) translate(4 2276.15)">
<title>snakemake_dag</title>
<polygon fill="white" stroke="none" points="-4,4 -4,-2276.15 2545,-2276.15 2545,4 -4,4"/>
<!-- 0 -->
<g id="node1" class="node"><title>0</title>
<path fill="none" stroke="#9fd856" stroke-width="2" stroke-dasharray="5,2" d="M2529,-1159C2529,-1159 2499,-1159 2499,-1159 2493,-1159 2487,-1153 2487,-1147 2487,-1147 2487,-1135 2487,-1135 2487,-1129 2493,-1123 2499,-1123 2499,-1123 2529,-1123 2529,-1123 2535,-1123 2541,-1129 2541,-1135 2541,-1135 2541,-1147 2541,-1147 2541,-1153 2535,-1159 2529,-1159"/>
<text text-anchor="middle" x="2514" y="-1138.5" font-family="sans" font-size="10.00">all</text>
</g>
<!-- 1 -->
<g id="node2" class="node"><title>1</title>
<path fill="none" stroke="#d6d856" stroke-width="2" stroke-dasharray="5,2" d="M2428.5,-1186C2428.5,-1186 2398.5,-1186 2398.5,-1186 2392.5,-1186 2386.5,-1180 2386.5,-1174 2386.5,-1174 2386.5,-1162 2386.5,-1162 2386.5,-1156 2392.5,-1150 2398.5,-1150 2398.5,-1150 2428.5,-1150 2428.5,-1150 2434.5,-1150 2440.5,-1156 2440.5,-1162 2440.5,-1162 2440.5,-1174 2440.5,-1174 2440.5,-1180 2434.5,-1186 2428.5,-1186"/>
<text text-anchor="middle" x="2413.5" y="-1165.5" font-family="sans" font-size="10.00">Index</text>
</g>
<!-- 1&#45;&gt;0 -->
<g id="edge1" class="edge"><title>1&#45;&gt;0</title>
<path fill="none" stroke="grey" stroke-width="2" d="M2440.64,-1160.84C2451.77,-1157.78 2464.94,-1154.17 2476.97,-1150.88"/>
<polygon fill="grey" stroke="grey" stroke-width="2" points="2478.02,-1154.22 2486.74,-1148.2 2476.17,-1147.47 2478.02,-1154.22"/>
</g>
<!-- 2 -->
<g id="node3" class="node"><title>2</title>
<path fill="none" stroke="#d88d56" stroke-width="2" stroke-dasharray="5,2" d="M2439,-1132C2439,-1132 2388,-1132 2388,-1132 2382,-1132 2376,-1126 2376,-1120 2376,-1120 2376,-1108 2376,-1108 2376,-1102 2382,-1096 2388,-1096 2388,-1096 2439,-1096 2439,-1096 2445,-1096 2451,-1102 2451,-1108 2451,-1108 2451,-1120 2451,-1120 2451,-1126 2445,-1132 2439,-1132"/>
<text text-anchor="middle" x="2413.5" y="-1117" font-family="sans" font-size="10.00">markdown</text>
<text text-anchor="middle" x="2413.5" y="-1106" font-family="sans" font-size="10.00">file: readme</text>
</g>
<!-- 2&#45;&gt;0 -->
<g id="edge2" class="edge"><title>2&#45;&gt;0</title>
<path fill="none" stroke="grey" stroke-width="2" d="M2451.18,-1124.05C2459.58,-1126.36 2468.5,-1128.8 2476.88,-1131.1"/>
<polygon fill="grey" stroke="grey" stroke-width="2" points="2476.18,-1134.54 2486.75,-1133.8 2478.03,-1127.79 2476.18,-1134.54"/>
</g>
<!-- 3 -->
<g id="node4" class="node"><title>3</title>
<path fill="none" stroke="#56d8d8" stroke-width="2" stroke-dasharray="5,2" d="M1359.5,-233C1359.5,-233 1026.5,-233 1026.5,-233 1020.5,-233 1014.5,-227 1014.5,-221 1014.5,-221 1014.5,-209 1014.5,-209 1014.5,-203 1020.5,-197 1026.5,-197 1026.5,-197 1359.5,-197 1359.5,-197 1365.5,-197 1371.5,-203 1371.5,-209 1371.5,-209 1371.5,-221 1371.5,-221 1371.5,-227 1365.5,-233 1359.5,-233"/>
<text text-anchor="middle" x="1193" y="-212.5" font-family="sans" font-size="10.00">Scripts_MultiOmics_HPO_phenotype_Compare_HPOmatch_SemSim_R</text>
</g>
<!-- 3&#45;&gt;1 -->
<g id="edge3" class="edge"><title>3&#45;&gt;1</title>
<path fill="none" stroke="grey" stroke-width="2" d="M1371.58,-205.517C1676.29,-191.133 2272.64,-171.956 2340,-238 2411.7,-308.297 2329.02,-1052.26 2376,-1141 2376.94,-1142.78 2378.06,-1144.47 2379.3,-1146.07"/>
<polygon fill="grey" stroke="grey" stroke-width="2" points="2376.93,-1148.65 2386.42,-1153.37 2381.94,-1143.76 2376.93,-1148.65"/>
</g>
<!-- 8 -->
<g id="node9" class="node"><title>8</title>
<path fill="none" stroke="#56b9d8" stroke-width="2" stroke-dasharray="5,2" d="M1815,-1032C1815,-1032 1575,-1032 1575,-1032 1569,-1032 1563,-1026 1563,-1020 1563,-1020 1563,-1008 1563,-1008 1563,-1002 1569,-996 1575,-996 1575,-996 1815,-996 1815,-996 1821,-996 1827,-1002 1827,-1008 1827,-1008 1827,-1020 1827,-1020 1827,-1026 1821,-1032 1815,-1032"/>
<text text-anchor="middle" x="1695" y="-1011.5" font-family="sans" font-size="10.00">Scripts_MultiOmics_Integration_integrate_omics_R</text>
</g>
<!-- 3&#45;&gt;8 -->
<g id="edge55" class="edge"><title>3&#45;&gt;8</title>
<path fill="none" stroke="grey" stroke-width="2" d="M1203.41,-233.412C1236.82,-298.384 1353.75,-522.471 1466,-698 1537.12,-809.215 1632.29,-934.487 1673.53,-987.767"/>
<polygon fill="grey" stroke="grey" stroke-width="2" points="1671,-990.225 1679.9,-995.981 1676.53,-985.935 1671,-990.225"/>
</g>
<!-- 4 -->
<g id="node5" class="node"><title>4</title>
<path fill="none" stroke="#c6d856" stroke-width="2" stroke-dasharray="5,2" d="M816.5,-260C816.5,-260 573.5,-260 573.5,-260 567.5,-260 561.5,-254 561.5,-248 561.5,-248 561.5,-236 561.5,-236 561.5,-230 567.5,-224 573.5,-224 573.5,-224 816.5,-224 816.5,-224 822.5,-224 828.5,-230 828.5,-236 828.5,-236 828.5,-248 828.5,-248 828.5,-254 822.5,-260 816.5,-260"/>
<text text-anchor="middle" x="695" y="-239.5" font-family="sans" font-size="10.00">Scripts_MultiOmics_HPO_phenotype_HPO_match_R</text>
</g>
<!-- 4&#45;&gt;1 -->
<g id="edge4" class="edge"><title>4&#45;&gt;1</title>
<path fill="none" stroke="grey" stroke-width="2" d="M828.595,-242.743C1217.12,-245.07 2326.51,-252.861 2340,-266 2409.71,-333.886 2330.42,-1055.03 2376,-1141 2376.94,-1142.78 2378.06,-1144.47 2379.3,-1146.07"/>
<polygon fill="grey" stroke="grey" stroke-width="2" points="2376.93,-1148.65 2386.42,-1153.36 2381.94,-1143.76 2376.93,-1148.65"/>
</g>
<!-- 4&#45;&gt;3 -->
<g id="edge50" class="edge"><title>4&#45;&gt;3</title>
<path fill="none" stroke="grey" stroke-width="2" d="M828.593,-234.782C882.441,-231.851 945.631,-228.411 1004.08,-225.229"/>
<polygon fill="grey" stroke="grey" stroke-width="2" points="1004.38,-228.718 1014.18,-224.68 1004,-221.729 1004.38,-228.718"/>
</g>
<!-- 5 -->
<g id="node6" class="node"><title>5</title>
<path fill="none" stroke="#d8d356" stroke-width="2" stroke-dasharray="5,2" d="M1833,-1506C1833,-1506 1557,-1506 1557,-1506 1551,-1506 1545,-1500 1545,-1494 1545,-1494 1545,-1482 1545,-1482 1545,-1476 1551,-1470 1557,-1470 1557,-1470 1833,-1470 1833,-1470 1839,-1470 1845,-1476 1845,-1482 1845,-1482 1845,-1494 1845,-1494 1845,-1500 1839,-1506 1833,-1506"/>
<text text-anchor="middle" x="1695" y="-1485.5" font-family="sans" font-size="10.00">Scripts_MultiOmics_HPO_phenotype_Organ_involvment_R</text>
</g>
<!-- 5&#45;&gt;1 -->
<g id="edge5" class="edge"><title>5&#45;&gt;1</title>
<path fill="none" stroke="grey" stroke-width="2" d="M1845.2,-1486.38C1872.94,-1491.28 1900.54,-1500.08 1924,-1515 1949.6,-1531.28 1933.49,-1558.25 1960,-1573 2033.8,-1614.05 2275.24,-1627.2 2340,-1573 2397.86,-1524.58 2409.6,-1280.31 2411.93,-1196.37"/>
<polygon fill="grey" stroke="grey" stroke-width="2" points="2415.43,-1196.37 2412.19,-1186.29 2408.44,-1196.2 2415.43,-1196.37"/>
</g>
<!-- 29 -->
<g id="node30" class="node"><title>29</title>
<path fill="none" stroke="#56d8d0" stroke-width="2" stroke-dasharray="5,2" d="M2229,-1510C2229,-1510 2071,-1510 2071,-1510 2065,-1510 2059,-1504 2059,-1498 2059,-1498 2059,-1486 2059,-1486 2059,-1480 2065,-1474 2071,-1474 2071,-1474 2229,-1474 2229,-1474 2235,-1474 2241,-1480 2241,-1486 2241,-1486 2241,-1498 2241,-1498 2241,-1504 2235,-1510 2229,-1510"/>
<text text-anchor="middle" x="2150" y="-1489.5" font-family="sans" font-size="10.00">Scripts_Paper_figures_Figure2_f_R</text>
</g>
<!-- 5&#45;&gt;29 -->
<g id="edge82" class="edge"><title>5&#45;&gt;29</title>
<path fill="none" stroke="grey" stroke-width="2" d="M1845.27,-1489.32C1912.04,-1489.91 1988.99,-1490.59 2048.73,-1491.11"/>
<polygon fill="grey" stroke="grey" stroke-width="2" points="2048.88,-1494.62 2058.91,-1491.2 2048.95,-1487.62 2048.88,-1494.62"/>
</g>
<!-- 30 -->
<g id="node31" class="node"><title>30</title>
<path fill="none" stroke="#68d856" stroke-width="2" stroke-dasharray="5,2" d="M2230,-1456C2230,-1456 2070,-1456 2070,-1456 2064,-1456 2058,-1450 2058,-1444 2058,-1444 2058,-1432 2058,-1432 2058,-1426 2064,-1420 2070,-1420 2070,-1420 2230,-1420 2230,-1420 2236,-1420 2242,-1426 2242,-1432 2242,-1432 2242,-1444 2242,-1444 2242,-1450 2236,-1456 2230,-1456"/>
<text text-anchor="middle" x="2150" y="-1435.5" font-family="sans" font-size="10.00">Scripts_Paper_figures_Figure2_g_R</text>
</g>
<!-- 5&#45;&gt;30 -->
<g id="edge84" class="edge"><title>5&#45;&gt;30</title>
<path fill="none" stroke="grey" stroke-width="2" d="M1845.27,-1471.52C1911.68,-1464.19 1988.15,-1455.75 2047.74,-1449.18"/>
<polygon fill="grey" stroke="grey" stroke-width="2" points="2048.36,-1452.63 2057.91,-1448.05 2047.59,-1445.67 2048.36,-1452.63"/>
</g>
<!-- 31 -->
<g id="node32" class="node"><title>31</title>
<path fill="none" stroke="#d86656" stroke-width="2" stroke-dasharray="5,2" d="M2230,-1402C2230,-1402 2070,-1402 2070,-1402 2064,-1402 2058,-1396 2058,-1390 2058,-1390 2058,-1378 2058,-1378 2058,-1372 2064,-1366 2070,-1366 2070,-1366 2230,-1366 2230,-1366 2236,-1366 2242,-1372 2242,-1378 2242,-1378 2242,-1390 2242,-1390 2242,-1396 2236,-1402 2230,-1402"/>
<text text-anchor="middle" x="2150" y="-1381.5" font-family="sans" font-size="10.00">Scripts_Paper_figures_Figure2_h_R</text>
</g>
<!-- 5&#45;&gt;31 -->
<g id="edge86" class="edge"><title>5&#45;&gt;31</title>
<path fill="none" stroke="grey" stroke-width="2" d="M1749.53,-1469.96C1802.46,-1452.69 1886.03,-1426.99 1960,-1411 1988.26,-1404.89 2019.2,-1399.81 2047.71,-1395.77"/>
<polygon fill="grey" stroke="grey" stroke-width="2" points="2048.27,-1399.23 2057.69,-1394.38 2047.3,-1392.29 2048.27,-1399.23"/>
</g>
<!-- 36 -->
<g id="node37" class="node"><title>36</title>
<path fill="none" stroke="#d89556" stroke-width="2" stroke-dasharray="5,2" d="M2253.5,-1564C2253.5,-1564 2046.5,-1564 2046.5,-1564 2040.5,-1564 2034.5,-1558 2034.5,-1552 2034.5,-1552 2034.5,-1540 2034.5,-1540 2034.5,-1534 2040.5,-1528 2046.5,-1528 2046.5,-1528 2253.5,-1528 2253.5,-1528 2259.5,-1528 2265.5,-1534 2265.5,-1540 2265.5,-1540 2265.5,-1552 2265.5,-1552 2265.5,-1558 2259.5,-1564 2253.5,-1564"/>
<text text-anchor="middle" x="2150" y="-1543.5" font-family="sans" font-size="10.00">Scripts_Patient_analysis_Patient_analysis_R</text>
</g>
<!-- 5&#45;&gt;36 -->
<g id="edge93" class="edge"><title>5&#45;&gt;36</title>
<path fill="none" stroke="grey" stroke-width="2" d="M1845.06,-1505.24C1871.37,-1508.4 1898.5,-1511.73 1924,-1515 1956.52,-1519.17 1991.65,-1523.9 2024.27,-1528.38"/>
<polygon fill="grey" stroke="grey" stroke-width="2" points="2023.92,-1531.87 2034.3,-1529.77 2024.88,-1524.93 2023.92,-1531.87"/>
</g>
<!-- 6 -->
<g id="node7" class="node"><title>6</title>
<path fill="none" stroke="#568ad8" stroke-width="2" stroke-dasharray="5,2" d="M837,-197C837,-197 553,-197 553,-197 547,-197 541,-191 541,-185 541,-185 541,-173 541,-173 541,-167 547,-161 553,-161 553,-161 837,-161 837,-161 843,-161 849,-167 849,-173 849,-173 849,-185 849,-185 849,-191 843,-197 837,-197"/>
<text text-anchor="middle" x="695" y="-176.5" font-family="sans" font-size="10.00">Scripts_MultiOmics_HPO_phenotype_Semantic_similarity_R</text>
</g>
<!-- 6&#45;&gt;1 -->
<g id="edge6" class="edge"><title>6&#45;&gt;1</title>
<path fill="none" stroke="grey" stroke-width="2" d="M849.243,-174.174C1247.32,-162.387 2287.01,-136.69 2340,-188 2416.13,-261.709 2326.52,-1047.3 2376,-1141 2376.94,-1142.78 2378.05,-1144.47 2379.3,-1146.07"/>
<polygon fill="grey" stroke="grey" stroke-width="2" points="2376.92,-1148.65 2386.41,-1153.37 2381.94,-1143.77 2376.92,-1148.65"/>
</g>
<!-- 6&#45;&gt;3 -->
<g id="edge51" class="edge"><title>6&#45;&gt;3</title>
<path fill="none" stroke="grey" stroke-width="2" d="M849.202,-190.12C898.158,-193.673 952.916,-197.647 1004.05,-201.358"/>
<polygon fill="grey" stroke="grey" stroke-width="2" points="1004,-204.864 1014.23,-202.097 1004.51,-197.882 1004,-204.864"/>
</g>
<!-- 7 -->
<g id="node8" class="node"><title>7</title>
<path fill="none" stroke="#565bd8" stroke-width="2" stroke-dasharray="5,2" d="M1830.5,-2228C1830.5,-2228 1559.5,-2228 1559.5,-2228 1553.5,-2228 1547.5,-2222 1547.5,-2216 1547.5,-2216 1547.5,-2204 1547.5,-2204 1547.5,-2198 1553.5,-2192 1559.5,-2192 1559.5,-2192 1830.5,-2192 1830.5,-2192 1836.5,-2192 1842.5,-2198 1842.5,-2204 1842.5,-2204 1842.5,-2216 1842.5,-2216 1842.5,-2222 1836.5,-2228 1830.5,-2228"/>
<text text-anchor="middle" x="1695" y="-2207.5" font-family="sans" font-size="10.00">Scripts_MultiOmics_Integration_RNA_proteome_match_R</text>
</g>
<!-- 7&#45;&gt;1 -->
<g id="edge7" class="edge"><title>7&#45;&gt;1</title>
<path fill="none" stroke="grey" stroke-width="2" d="M1753.04,-2228.09C1878.74,-2264.02 2181.07,-2328.09 2340,-2171 2411.16,-2100.66 2413.01,-1351.97 2412.62,-1196.27"/>
<polygon fill="grey" stroke="grey" stroke-width="2" points="2416.12,-1196.09 2412.59,-1186.1 2409.12,-1196.11 2416.12,-1196.09"/>
</g>
<!-- 8&#45;&gt;1 -->
<g id="edge8" class="edge"><title>8&#45;&gt;1</title>
<path fill="none" stroke="grey" stroke-width="2" d="M1827.06,-1009.96C2003.48,-1005.72 2300,-1003.26 2340,-1033 2380.61,-1063.19 2346.28,-1100.05 2376,-1141 2376.9,-1142.24 2377.87,-1143.44 2378.89,-1144.61"/>
<polygon fill="grey" stroke="grey" stroke-width="2" points="2376.71,-1147.36 2386.33,-1151.8 2381.57,-1142.33 2376.71,-1147.36"/>
</g>
<!-- 9 -->
<g id="node10" class="node"><title>9</title>
<path fill="none" stroke="#bed856" stroke-width="2" stroke-dasharray="5,2" d="M2287.5,-986C2287.5,-986 2012.5,-986 2012.5,-986 2006.5,-986 2000.5,-980 2000.5,-974 2000.5,-974 2000.5,-962 2000.5,-962 2000.5,-956 2006.5,-950 2012.5,-950 2012.5,-950 2287.5,-950 2287.5,-950 2293.5,-950 2299.5,-956 2299.5,-962 2299.5,-962 2299.5,-974 2299.5,-974 2299.5,-980 2293.5,-986 2287.5,-986"/>
<text text-anchor="middle" x="2150" y="-965.5" font-family="sans" font-size="10.00">Scripts_MultiOmics_Integration_rna_protein_correlation_R</text>
</g>
<!-- 8&#45;&gt;9 -->
<g id="edge56" class="edge"><title>8&#45;&gt;9</title>
<path fill="none" stroke="grey" stroke-width="2" d="M1827.03,-1000.69C1877.96,-995.522 1936.79,-989.549 1990.11,-984.135"/>
<polygon fill="grey" stroke="grey" stroke-width="2" points="1990.75,-987.588 2000.34,-983.095 1990.04,-980.623 1990.75,-987.588"/>
</g>
<!-- 20 -->
<g id="node21" class="node"><title>20</title>
<path fill="none" stroke="#d8ac56" stroke-width="2" stroke-dasharray="5,2" d="M2295,-932C2295,-932 2005,-932 2005,-932 1999,-932 1993,-926 1993,-920 1993,-920 1993,-908 1993,-908 1993,-902 1999,-896 2005,-896 2005,-896 2295,-896 2295,-896 2301,-896 2307,-902 2307,-908 2307,-908 2307,-920 2307,-920 2307,-926 2301,-932 2295,-932"/>
<text text-anchor="middle" x="2150" y="-911.5" font-family="sans" font-size="10.00">Scripts_MultiOmics_Variant_analysis_enrichment_analysis_R</text>
</g>
<!-- 8&#45;&gt;20 -->
<g id="edge71" class="edge"><title>8&#45;&gt;20</title>
<path fill="none" stroke="grey" stroke-width="2" d="M1752.9,-995.991C1806.02,-979.724 1887.73,-956.089 1960,-941 1972.48,-938.395 1985.47,-935.964 1998.54,-933.713"/>
<polygon fill="grey" stroke="grey" stroke-width="2" points="1999.26,-937.14 2008.54,-932.026 1998.1,-930.237 1999.26,-937.14"/>
</g>
<!-- 21 -->
<g id="node22" class="node"><title>21</title>
<path fill="none" stroke="#56d8a2" stroke-width="2" stroke-dasharray="5,2" d="M2328,-878C2328,-878 1972,-878 1972,-878 1966,-878 1960,-872 1960,-866 1960,-866 1960,-854 1960,-854 1960,-848 1966,-842 1972,-842 1972,-842 2328,-842 2328,-842 2334,-842 2340,-848 2340,-854 2340,-854 2340,-866 2340,-866 2340,-872 2334,-878 2328,-878"/>
<text text-anchor="middle" x="2150" y="-857.5" font-family="sans" font-size="10.00">Scripts_MultiOmics_Variant_analysis_enrichment_analysis_variant_type_R</text>
</g>
<!-- 8&#45;&gt;21 -->
<g id="edge72" class="edge"><title>8&#45;&gt;21</title>
<path fill="none" stroke="grey" stroke-width="2" d="M1725.65,-995.973C1773.25,-967.92 1870.46,-914.221 1960,-887 1968.03,-884.557 1976.33,-882.334 1984.76,-880.31"/>
<polygon fill="grey" stroke="grey" stroke-width="2" points="1985.74,-883.675 1994.7,-878.024 1984.17,-876.853 1985.74,-883.675"/>
</g>
<!-- 22 -->
<g id="node23" class="node"><title>22</title>
<path fill="none" stroke="#56d0d8" stroke-width="2" stroke-dasharray="5,2" d="M2290.5,-824C2290.5,-824 2009.5,-824 2009.5,-824 2003.5,-824 1997.5,-818 1997.5,-812 1997.5,-812 1997.5,-800 1997.5,-800 1997.5,-794 2003.5,-788 2009.5,-788 2009.5,-788 2290.5,-788 2290.5,-788 2296.5,-788 2302.5,-794 2302.5,-800 2302.5,-800 2302.5,-812 2302.5,-812 2302.5,-818 2296.5,-824 2290.5,-824"/>
<text text-anchor="middle" x="2150" y="-803.5" font-family="sans" font-size="10.00">Scripts_MultiOmics_Variant_analysis_outlier_proportions_R</text>
</g>
<!-- 8&#45;&gt;22 -->
<g id="edge73" class="edge"><title>8&#45;&gt;22</title>
<path fill="none" stroke="grey" stroke-width="2" d="M1715.35,-995.921C1756.65,-958.5 1857.99,-872.736 1960,-833 1968.83,-829.562 1978.03,-826.556 1987.43,-823.927"/>
<polygon fill="grey" stroke="grey" stroke-width="2" points="1988.51,-827.261 1997.29,-821.321 1986.73,-820.494 1988.51,-827.261"/>
</g>
<!-- 23 -->
<g id="node24" class="node"><title>23</title>
<path fill="none" stroke="#56d88a" stroke-width="2" stroke-dasharray="5,2" d="M2323.5,-770C2323.5,-770 1976.5,-770 1976.5,-770 1970.5,-770 1964.5,-764 1964.5,-758 1964.5,-758 1964.5,-746 1964.5,-746 1964.5,-740 1970.5,-734 1976.5,-734 1976.5,-734 2323.5,-734 2323.5,-734 2329.5,-734 2335.5,-740 2335.5,-746 2335.5,-746 2335.5,-758 2335.5,-758 2335.5,-764 2329.5,-770 2323.5,-770"/>
<text text-anchor="middle" x="2150" y="-749.5" font-family="sans" font-size="10.00">Scripts_MultiOmics_Variant_analysis_outlier_proportions_variant_type_R</text>
</g>
<!-- 8&#45;&gt;23 -->
<g id="edge74" class="edge"><title>8&#45;&gt;23</title>
<path fill="none" stroke="grey" stroke-width="2" d="M1709.94,-995.71C1745.74,-950.218 1846.18,-831.837 1960,-779 1964.17,-777.064 1968.45,-775.258 1972.8,-773.574"/>
<polygon fill="grey" stroke="grey" stroke-width="2" points="1974.24,-776.775 1982.45,-770.08 1971.86,-770.194 1974.24,-776.775"/>
</g>
<!-- 24 -->
<g id="node25" class="node"><title>24</title>
<path fill="none" stroke="#d8b456" stroke-width="2" stroke-dasharray="5,2" d="M2224.5,-716C2224.5,-716 2075.5,-716 2075.5,-716 2069.5,-716 2063.5,-710 2063.5,-704 2063.5,-704 2063.5,-692 2063.5,-692 2063.5,-686 2069.5,-680 2075.5,-680 2075.5,-680 2224.5,-680 2224.5,-680 2230.5,-680 2236.5,-686 2236.5,-692 2236.5,-692 2236.5,-704 2236.5,-704 2236.5,-710 2230.5,-716 2224.5,-716"/>
<text text-anchor="middle" x="2150" y="-695.5" font-family="sans" font-size="10.00">Scripts_Paper_figures_Figure1_R</text>
</g>
<!-- 8&#45;&gt;24 -->
<g id="edge75" class="edge"><title>8&#45;&gt;24</title>
<path fill="none" stroke="grey" stroke-width="2" d="M1706.29,-995.82C1737.01,-943.438 1833.83,-791.688 1960,-725 1988.29,-710.045 2022.13,-702.53 2053.3,-698.971"/>
<polygon fill="grey" stroke="grey" stroke-width="2" points="2053.73,-702.446 2063.32,-697.949 2053.02,-695.482 2053.73,-702.446"/>
</g>
<!-- 26 -->
<g id="node27" class="node"><title>26</title>
<path fill="none" stroke="#5673d8" stroke-width="2" stroke-dasharray="5,2" d="M2230,-662C2230,-662 2070,-662 2070,-662 2064,-662 2058,-656 2058,-650 2058,-650 2058,-638 2058,-638 2058,-632 2064,-626 2070,-626 2070,-626 2230,-626 2230,-626 2236,-626 2242,-632 2242,-638 2242,-638 2242,-650 2242,-650 2242,-656 2236,-662 2230,-662"/>
<text text-anchor="middle" x="2150" y="-641.5" font-family="sans" font-size="10.00">Scripts_Paper_figures_Figure2_b_R</text>
</g>
<!-- 8&#45;&gt;26 -->
<g id="edge78" class="edge"><title>8&#45;&gt;26</title>
<path fill="none" stroke="grey" stroke-width="2" d="M1712.13,-995.814C1750.78,-951.867 1850.88,-835.773 1924,-731 1941.8,-705.498 1934.09,-688.202 1960,-671 1985.55,-654.034 2017.33,-645.805 2047.49,-642.214"/>
<polygon fill="grey" stroke="grey" stroke-width="2" points="2048.05,-645.675 2057.64,-641.169 2047.34,-638.712 2048.05,-645.675"/>
</g>
<!-- 27 -->
<g id="node28" class="node"><title>27</title>
<path fill="none" stroke="#56d86b" stroke-width="2" stroke-dasharray="5,2" d="M2229.5,-608C2229.5,-608 2070.5,-608 2070.5,-608 2064.5,-608 2058.5,-602 2058.5,-596 2058.5,-596 2058.5,-584 2058.5,-584 2058.5,-578 2064.5,-572 2070.5,-572 2070.5,-572 2229.5,-572 2229.5,-572 2235.5,-572 2241.5,-578 2241.5,-584 2241.5,-584 2241.5,-596 2241.5,-596 2241.5,-602 2235.5,-608 2229.5,-608"/>
<text text-anchor="middle" x="2150" y="-587.5" font-family="sans" font-size="10.00">Scripts_Paper_figures_Figure2_c_R</text>
</g>
<!-- 8&#45;&gt;27 -->
<g id="edge79" class="edge"><title>8&#45;&gt;27</title>
<path fill="none" stroke="grey" stroke-width="2" d="M1714.75,-995.903C1757.7,-953.489 1864.09,-842.774 1924,-731 1949.1,-684.17 1919.48,-651.367 1960,-617 1984.29,-596.397 2016.98,-587.457 2048.34,-584.328"/>
<polygon fill="grey" stroke="grey" stroke-width="2" points="2048.77,-587.804 2058.46,-583.509 2048.21,-580.827 2048.77,-587.804"/>
</g>
<!-- 28 -->
<g id="node29" class="node"><title>28</title>
<path fill="none" stroke="#d8bc56" stroke-width="2" stroke-dasharray="5,2" d="M2230,-554C2230,-554 2070,-554 2070,-554 2064,-554 2058,-548 2058,-542 2058,-542 2058,-530 2058,-530 2058,-524 2064,-518 2070,-518 2070,-518 2230,-518 2230,-518 2236,-518 2242,-524 2242,-530 2242,-530 2242,-542 2242,-542 2242,-548 2236,-554 2230,-554"/>
<text text-anchor="middle" x="2150" y="-533.5" font-family="sans" font-size="10.00">Scripts_Paper_figures_Figure2_d_R</text>
</g>
<!-- 8&#45;&gt;28 -->
<g id="edge80" class="edge"><title>8&#45;&gt;28</title>
<path fill="none" stroke="grey" stroke-width="2" d="M1715.83,-995.966C1760.55,-954.112 1869.59,-845.202 1924,-731 1956.85,-662.063 1904.17,-615.096 1960,-563 1983.4,-541.167 2016.03,-531.962 2047.6,-528.966"/>
<polygon fill="grey" stroke="grey" stroke-width="2" points="2048.09,-532.439 2057.81,-528.203 2047.57,-525.459 2048.09,-532.439"/>
</g>
<!-- 8&#45;&gt;29 -->
<g id="edge81" class="edge"><title>8&#45;&gt;29</title>
<path fill="none" stroke="grey" stroke-width="2" d="M1700.49,-1032.12C1718.78,-1101.77 1794.69,-1353.95 1960,-1465 1985.83,-1482.35 2018.14,-1490.61 2048.69,-1494.11"/>
<polygon fill="grey" stroke="grey" stroke-width="2" points="2048.68,-1497.62 2058.98,-1495.12 2049.37,-1490.66 2048.68,-1497.62"/>
</g>
<!-- 8&#45;&gt;30 -->
<g id="edge83" class="edge"><title>8&#45;&gt;30</title>
<path fill="none" stroke="grey" stroke-width="2" d="M1701.94,-1032.16C1724.03,-1096.54 1808.1,-1315.15 1960,-1411 1985.81,-1427.29 2017.51,-1435.35 2047.52,-1439"/>
<polygon fill="grey" stroke="grey" stroke-width="2" points="2047.31,-1442.5 2057.62,-1440.08 2048.05,-1435.54 2047.31,-1442.5"/>
</g>
<!-- 8&#45;&gt;31 -->
<g id="edge85" class="edge"><title>8&#45;&gt;31</title>
<path fill="none" stroke="grey" stroke-width="2" d="M1703.77,-1032.12C1729.95,-1090.71 1821.12,-1275.93 1960,-1357 1986.23,-1372.31 2017.9,-1380.12 2047.76,-1383.84"/>
<polygon fill="grey" stroke="grey" stroke-width="2" points="2047.48,-1387.33 2057.8,-1384.95 2048.25,-1380.37 2047.48,-1387.33"/>
</g>
<!-- 32 -->
<g id="node33" class="node"><title>32</title>
<path fill="none" stroke="#a7d856" stroke-width="2" stroke-dasharray="5,2" d="M2230,-500C2230,-500 2070,-500 2070,-500 2064,-500 2058,-494 2058,-488 2058,-488 2058,-476 2058,-476 2058,-470 2064,-464 2070,-464 2070,-464 2230,-464 2230,-464 2236,-464 2242,-470 2242,-476 2242,-476 2242,-488 2242,-488 2242,-494 2236,-500 2230,-500"/>
<text text-anchor="middle" x="2150" y="-479.5" font-family="sans" font-size="10.00">Scripts_Paper_figures_Figure3_a_R</text>
</g>
<!-- 8&#45;&gt;32 -->
<g id="edge87" class="edge"><title>8&#45;&gt;32</title>
<path fill="none" stroke="grey" stroke-width="2" d="M1716.58,-995.843C1762.36,-954.15 1872.61,-846.247 1924,-731 1964.71,-639.71 1888.66,-579.009 1960,-509 1982.95,-486.481 2015.64,-477.151 2047.4,-474.248"/>
<polygon fill="grey" stroke="grey" stroke-width="2" points="2047.94,-477.719 2057.66,-473.523 2047.44,-470.736 2047.94,-477.719"/>
</g>
<!-- 33 -->
<g id="node34" class="node"><title>33</title>
<path fill="none" stroke="#88d856" stroke-width="2" stroke-dasharray="5,2" d="M2229.5,-392C2229.5,-392 2070.5,-392 2070.5,-392 2064.5,-392 2058.5,-386 2058.5,-380 2058.5,-380 2058.5,-368 2058.5,-368 2058.5,-362 2064.5,-356 2070.5,-356 2070.5,-356 2229.5,-356 2229.5,-356 2235.5,-356 2241.5,-362 2241.5,-368 2241.5,-368 2241.5,-380 2241.5,-380 2241.5,-386 2235.5,-392 2229.5,-392"/>
<text text-anchor="middle" x="2150" y="-371.5" font-family="sans" font-size="10.00">Scripts_Paper_figures_Figure3_c_R</text>
</g>
<!-- 8&#45;&gt;33 -->
<g id="edge88" class="edge"><title>8&#45;&gt;33</title>
<path fill="none" stroke="grey" stroke-width="2" d="M1714.51,-995.757C1759.36,-950.267 1873.85,-826.211 1924,-698 1948.22,-636.084 1913.49,-448.508 1960,-401 1982.7,-377.811 2015.68,-368.41 2047.76,-365.642"/>
<polygon fill="grey" stroke="grey" stroke-width="2" points="2048.38,-369.109 2058.13,-364.967 2047.92,-362.124 2048.38,-369.109"/>
</g>
<!-- 34 -->
<g id="node35" class="node"><title>34</title>
<path fill="none" stroke="#70d856" stroke-width="2" stroke-dasharray="5,2" d="M2230,-1348C2230,-1348 2070,-1348 2070,-1348 2064,-1348 2058,-1342 2058,-1336 2058,-1336 2058,-1324 2058,-1324 2058,-1318 2064,-1312 2070,-1312 2070,-1312 2230,-1312 2230,-1312 2236,-1312 2242,-1318 2242,-1324 2242,-1324 2242,-1336 2242,-1336 2242,-1342 2236,-1348 2230,-1348"/>
<text text-anchor="middle" x="2150" y="-1327.5" font-family="sans" font-size="10.00">Scripts_Paper_figures_Figure3_e_R</text>
</g>
<!-- 8&#45;&gt;34 -->
<g id="edge90" class="edge"><title>8&#45;&gt;34</title>
<path fill="none" stroke="grey" stroke-width="2" d="M1706.29,-1032.18C1737.01,-1084.56 1833.83,-1236.31 1960,-1303 1986.59,-1317.06 2018.08,-1324.54 2047.65,-1328.34"/>
<polygon fill="grey" stroke="grey" stroke-width="2" points="2047.26,-1331.82 2057.59,-1329.5 2048.06,-1324.87 2047.26,-1331.82"/>
</g>
<!-- 35 -->
<g id="node36" class="node"><title>35</title>
<path fill="none" stroke="#d86e56" stroke-width="2" stroke-dasharray="5,2" d="M2224.5,-1294C2224.5,-1294 2075.5,-1294 2075.5,-1294 2069.5,-1294 2063.5,-1288 2063.5,-1282 2063.5,-1282 2063.5,-1270 2063.5,-1270 2063.5,-1264 2069.5,-1258 2075.5,-1258 2075.5,-1258 2224.5,-1258 2224.5,-1258 2230.5,-1258 2236.5,-1264 2236.5,-1270 2236.5,-1270 2236.5,-1282 2236.5,-1282 2236.5,-1288 2230.5,-1294 2224.5,-1294"/>
<text text-anchor="middle" x="2150" y="-1273.5" font-family="sans" font-size="10.00">Scripts_Paper_figures_Figure4_R</text>
</g>
<!-- 8&#45;&gt;35 -->
<g id="edge91" class="edge"><title>8&#45;&gt;35</title>
<path fill="none" stroke="grey" stroke-width="2" d="M1709.94,-1032.29C1745.74,-1077.78 1846.18,-1196.16 1960,-1249 1988.63,-1262.29 2022.12,-1269.43 2052.88,-1273.15"/>
<polygon fill="grey" stroke="grey" stroke-width="2" points="2052.88,-1276.68 2063.2,-1274.29 2053.64,-1269.72 2052.88,-1276.68"/>
</g>
<!-- 8&#45;&gt;36 -->
<g id="edge92" class="edge"><title>8&#45;&gt;36</title>
<path fill="none" stroke="grey" stroke-width="2" d="M1705.25,-1032.25C1750.7,-1121.82 1948.57,-1510.91 1960,-1519 1978.74,-1532.25 2001.17,-1540.31 2023.93,-1545.02"/>
<polygon fill="grey" stroke="grey" stroke-width="2" points="2023.57,-1548.51 2034.04,-1546.89 2024.85,-1541.63 2023.57,-1548.51"/>
</g>
<!-- 37 -->
<g id="node38" class="node"><title>37</title>
<path fill="none" stroke="#d87556" stroke-width="2" stroke-dasharray="5,2" d="M2252.5,-1960C2252.5,-1960 2047.5,-1960 2047.5,-1960 2041.5,-1960 2035.5,-1954 2035.5,-1948 2035.5,-1948 2035.5,-1936 2035.5,-1936 2035.5,-1930 2041.5,-1924 2047.5,-1924 2047.5,-1924 2252.5,-1924 2252.5,-1924 2258.5,-1924 2264.5,-1930 2264.5,-1936 2264.5,-1936 2264.5,-1948 2264.5,-1948 2264.5,-1954 2258.5,-1960 2252.5,-1960"/>
<text text-anchor="middle" x="2150" y="-1939.5" font-family="sans" font-size="10.00">Scripts_Patient_analysis_detected_genes_R</text>
</g>
<!-- 8&#45;&gt;37 -->
<g id="edge95" class="edge"><title>8&#45;&gt;37</title>
<path fill="none" stroke="grey" stroke-width="2" d="M1706.66,-1032.23C1741.34,-1092.09 1852.89,-1288.66 1924,-1461 1943.94,-1509.33 1940.02,-1524.68 1960,-1573 2014.71,-1705.27 2098.47,-1854.71 2133.13,-1914.83"/>
<polygon fill="grey" stroke="grey" stroke-width="2" points="2130.22,-1916.79 2138.26,-1923.69 2136.28,-1913.28 2130.22,-1916.79"/>
</g>
<!-- 38 -->
<g id="node39" class="node"><title>38</title>
<path fill="none" stroke="#566bd8" stroke-width="2" stroke-dasharray="5,2" d="M2255.5,-1240C2255.5,-1240 2044.5,-1240 2044.5,-1240 2038.5,-1240 2032.5,-1234 2032.5,-1228 2032.5,-1228 2032.5,-1216 2032.5,-1216 2032.5,-1210 2038.5,-1204 2044.5,-1204 2044.5,-1204 2255.5,-1204 2255.5,-1204 2261.5,-1204 2267.5,-1210 2267.5,-1216 2267.5,-1216 2267.5,-1228 2267.5,-1228 2267.5,-1234 2261.5,-1240 2255.5,-1240"/>
<text text-anchor="middle" x="2150" y="-1219.5" font-family="sans" font-size="10.00">Scripts_Patient_analysis_diagnosed_cases_R</text>
</g>
<!-- 8&#45;&gt;38 -->
<g id="edge100" class="edge"><title>8&#45;&gt;38</title>
<path fill="none" stroke="grey" stroke-width="2" d="M1715.35,-1032.08C1756.65,-1069.5 1857.99,-1155.26 1960,-1195 1979.6,-1202.63 2001.09,-1208.14 2022.34,-1212.11"/>
<polygon fill="grey" stroke="grey" stroke-width="2" points="2021.95,-1215.59 2032.4,-1213.88 2023.16,-1208.7 2021.95,-1215.59"/>
</g>
<!-- 42 -->
<g id="node43" class="node"><title>42</title>
<path fill="none" stroke="#56d882" stroke-width="2" stroke-dasharray="5,2" d="M2251,-1186C2251,-1186 2049,-1186 2049,-1186 2043,-1186 2037,-1180 2037,-1174 2037,-1174 2037,-1162 2037,-1162 2037,-1156 2043,-1150 2049,-1150 2049,-1150 2251,-1150 2251,-1150 2257,-1150 2263,-1156 2263,-1162 2263,-1162 2263,-1174 2263,-1174 2263,-1180 2257,-1186 2251,-1186"/>
<text text-anchor="middle" x="2150" y="-1165.5" font-family="sans" font-size="10.00">Scripts_Supplementary_figures_S_Fig2_c_R</text>
</g>
<!-- 8&#45;&gt;42 -->
<g id="edge102" class="edge"><title>8&#45;&gt;42</title>
<path fill="none" stroke="grey" stroke-width="2" d="M1725.65,-1032.03C1773.25,-1060.08 1870.46,-1113.78 1960,-1141 1981.27,-1147.47 2004.37,-1152.4 2026.88,-1156.16"/>
<polygon fill="grey" stroke="grey" stroke-width="2" points="2026.4,-1159.62 2036.83,-1157.75 2027.5,-1152.71 2026.4,-1159.62"/>
</g>
<!-- 43 -->
<g id="node44" class="node"><title>43</title>
<path fill="none" stroke="#8fd856" stroke-width="2" stroke-dasharray="5,2" d="M2251.5,-446C2251.5,-446 2048.5,-446 2048.5,-446 2042.5,-446 2036.5,-440 2036.5,-434 2036.5,-434 2036.5,-422 2036.5,-422 2036.5,-416 2042.5,-410 2048.5,-410 2048.5,-410 2251.5,-410 2251.5,-410 2257.5,-410 2263.5,-416 2263.5,-422 2263.5,-422 2263.5,-434 2263.5,-434 2263.5,-440 2257.5,-446 2251.5,-446"/>
<text text-anchor="middle" x="2150" y="-425.5" font-family="sans" font-size="10.00">Scripts_Supplementary_figures_S_Fig2_d_R</text>
</g>
<!-- 8&#45;&gt;43 -->
<g id="edge103" class="edge"><title>8&#45;&gt;43</title>
<path fill="none" stroke="grey" stroke-width="2" d="M1716.84,-995.955C1763.14,-954.493 1874.4,-847.031 1924,-731 1948.31,-674.125 1916.53,-499.002 1960,-455 1977.69,-437.098 2001.5,-427.439 2026.26,-422.709"/>
<polygon fill="grey" stroke="grey" stroke-width="2" points="2026.86,-426.158 2036.16,-421.079 2025.72,-419.251 2026.86,-426.158"/>
</g>
<!-- 46 -->
<g id="node47" class="node"><title>46</title>
<path fill="none" stroke="#d87d56" stroke-width="2" stroke-dasharray="5,2" d="M2245.5,-1132C2245.5,-1132 2054.5,-1132 2054.5,-1132 2048.5,-1132 2042.5,-1126 2042.5,-1120 2042.5,-1120 2042.5,-1108 2042.5,-1108 2042.5,-1102 2048.5,-1096 2054.5,-1096 2054.5,-1096 2245.5,-1096 2245.5,-1096 2251.5,-1096 2257.5,-1102 2257.5,-1108 2257.5,-1108 2257.5,-1120 2257.5,-1120 2257.5,-1126 2251.5,-1132 2245.5,-1132"/>
<text text-anchor="middle" x="2150" y="-1111.5" font-family="sans" font-size="10.00">Scripts_Supplementary_figures_S_Fig3_R</text>
</g>
<!-- 8&#45;&gt;46 -->
<g id="edge108" class="edge"><title>8&#45;&gt;46</title>
<path fill="none" stroke="grey" stroke-width="2" d="M1752.9,-1032.01C1806.02,-1048.28 1887.73,-1071.91 1960,-1087 1983.14,-1091.83 2008.05,-1096.07 2031.96,-1099.66"/>
<polygon fill="grey" stroke="grey" stroke-width="2" points="2031.73,-1103.17 2042.13,-1101.16 2032.75,-1096.24 2031.73,-1103.17"/>
</g>
<!-- 47 -->
<g id="node48" class="node"><title>47</title>
<path fill="none" stroke="#59d856" stroke-width="2" stroke-dasharray="5,2" d="M2245.5,-1078C2245.5,-1078 2054.5,-1078 2054.5,-1078 2048.5,-1078 2042.5,-1072 2042.5,-1066 2042.5,-1066 2042.5,-1054 2042.5,-1054 2042.5,-1048 2048.5,-1042 2054.5,-1042 2054.5,-1042 2245.5,-1042 2245.5,-1042 2251.5,-1042 2257.5,-1048 2257.5,-1054 2257.5,-1054 2257.5,-1066 2257.5,-1066 2257.5,-1072 2251.5,-1078 2245.5,-1078"/>
<text text-anchor="middle" x="2150" y="-1057.5" font-family="sans" font-size="10.00">Scripts_Supplementary_figures_S_Fig4_R</text>
</g>
<!-- 8&#45;&gt;47 -->
<g id="edge109" class="edge"><title>8&#45;&gt;47</title>
<path fill="none" stroke="grey" stroke-width="2" d="M1827.03,-1027.31C1891.75,-1033.88 1969.21,-1041.74 2031.94,-1048.11"/>
<polygon fill="grey" stroke="grey" stroke-width="2" points="2031.97,-1051.63 2042.27,-1049.16 2032.68,-1044.67 2031.97,-1051.63"/>
</g>
<!-- 9&#45;&gt;1 -->
<g id="edge9" class="edge"><title>9&#45;&gt;1</title>
<path fill="none" stroke="grey" stroke-width="2" d="M2299.75,-975.793C2314.55,-981.455 2328.37,-989.291 2340,-1000 2387.58,-1043.81 2339.91,-1087.33 2376,-1141 2376.97,-1142.44 2378.04,-1143.83 2379.19,-1145.17"/>
<polygon fill="grey" stroke="grey" stroke-width="2" points="2376.86,-1147.79 2386.45,-1152.28 2381.76,-1142.79 2376.86,-1147.79"/>
</g>
<!-- 10 -->
<g id="node11" class="node"><title>10</title>
<path fill="none" stroke="#56d85b" stroke-width="2" stroke-dasharray="5,2" d="M1887,-1776C1887,-1776 1503,-1776 1503,-1776 1497,-1776 1491,-1770 1491,-1764 1491,-1764 1491,-1752 1491,-1752 1491,-1746 1497,-1740 1503,-1740 1503,-1740 1887,-1740 1887,-1740 1893,-1740 1899,-1746 1899,-1752 1899,-1752 1899,-1764 1899,-1764 1899,-1770 1893,-1776 1887,-1776"/>
<text text-anchor="middle" x="1695" y="-1755.5" font-family="sans" font-size="10.00">Scripts_MultiOmics_Proteomics_Aberrant_Expression_LIMMA_LIMMASummary_R</text>
</g>
<!-- 10&#45;&gt;1 -->
<g id="edge10" class="edge"><title>10&#45;&gt;1</title>
<path fill="none" stroke="grey" stroke-width="2" d="M1899.26,-1773.41C2063.73,-1781.11 2277.87,-1778.76 2340,-1721 2378.91,-1684.83 2404.39,-1304.26 2410.87,-1196.37"/>
<polygon fill="grey" stroke="grey" stroke-width="2" points="2414.37,-1196.43 2411.47,-1186.24 2407.38,-1196.02 2414.37,-1196.43"/>
</g>
<!-- 11 -->
<g id="node12" class="node"><title>11</title>
<path fill="none" stroke="#b6d856" stroke-width="2" stroke-dasharray="5,2" d="M897.5,-1876C897.5,-1876 492.5,-1876 492.5,-1876 486.5,-1876 480.5,-1870 480.5,-1864 480.5,-1864 480.5,-1852 480.5,-1852 480.5,-1846 486.5,-1840 492.5,-1840 492.5,-1840 897.5,-1840 897.5,-1840 903.5,-1840 909.5,-1846 909.5,-1852 909.5,-1852 909.5,-1864 909.5,-1864 909.5,-1870 903.5,-1876 897.5,-1876"/>
<text text-anchor="middle" x="695" y="-1855.5" font-family="sans" font-size="10.00">Scripts_MultiOmics_Proteomics_Aberrant_Expression_LIMMA_batch_normalization_R</text>
</g>
<!-- 11&#45;&gt;1 -->
<g id="edge11" class="edge"><title>11&#45;&gt;1</title>
<path fill="none" stroke="grey" stroke-width="2" d="M909.652,-1858.9C1343.13,-1859.7 2289.39,-1855.81 2340,-1807 2384.66,-1763.92 2406.43,-1313.78 2411.38,-1196.05"/>
<polygon fill="grey" stroke="grey" stroke-width="2" points="2414.88,-1196.15 2411.8,-1186.02 2407.89,-1195.86 2414.88,-1196.15"/>
</g>
<!-- 16 -->
<g id="node17" class="node"><title>16</title>
<path fill="none" stroke="#56c9d8" stroke-width="2" stroke-dasharray="5,2" d="M1835,-1936C1835,-1936 1555,-1936 1555,-1936 1549,-1936 1543,-1930 1543,-1924 1543,-1924 1543,-1912 1543,-1912 1543,-1906 1549,-1900 1555,-1900 1555,-1900 1835,-1900 1835,-1900 1841,-1900 1847,-1906 1847,-1912 1847,-1912 1847,-1924 1847,-1924 1847,-1930 1841,-1936 1835,-1936"/>
<text text-anchor="middle" x="1695" y="-1915.5" font-family="sans" font-size="10.00">Scripts_MultiOmics_Proteomics_disease_gene_coverage_R</text>
</g>
<!-- 11&#45;&gt;16 -->
<g id="edge66" class="edge"><title>11&#45;&gt;16</title>
<path fill="none" stroke="grey" stroke-width="2" d="M909.79,-1870.85C1096.49,-1882.08 1363.37,-1898.12 1532.64,-1908.3"/>
<polygon fill="grey" stroke="grey" stroke-width="2" points="1532.44,-1911.79 1542.63,-1908.9 1532.86,-1904.81 1532.44,-1911.79"/>
</g>
<!-- 51 -->
<g id="node52" class="node"><title>51</title>
<path fill="none" stroke="#d8cb56" stroke-width="2" stroke-dasharray="5,2" d="M1400.5,-1749C1400.5,-1749 985.5,-1749 985.5,-1749 979.5,-1749 973.5,-1743 973.5,-1737 973.5,-1737 973.5,-1725 973.5,-1725 973.5,-1719 979.5,-1713 985.5,-1713 985.5,-1713 1400.5,-1713 1400.5,-1713 1406.5,-1713 1412.5,-1719 1412.5,-1725 1412.5,-1725 1412.5,-1737 1412.5,-1737 1412.5,-1743 1406.5,-1749 1400.5,-1749"/>
<text text-anchor="middle" x="1193" y="-1728.5" font-family="sans" font-size="10.00">Scripts_MultiOmics_Proteomics_Aberrant_Expression_LIMMA_detect_outliers_limma_R</text>
</g>
<!-- 11&#45;&gt;51 -->
<g id="edge115" class="edge"><title>11&#45;&gt;51</title>
<path fill="none" stroke="grey" stroke-width="2" d="M766.538,-1839.94C857.593,-1816.62 1015.67,-1776.15 1111.38,-1751.64"/>
<polygon fill="grey" stroke="grey" stroke-width="2" points="1112.48,-1754.97 1121.3,-1749.1 1110.75,-1748.19 1112.48,-1754.97"/>
</g>
<!-- 12 -->
<g id="node13" class="node"><title>12</title>
<path fill="none" stroke="#a7d856" stroke-width="2" stroke-dasharray="5,2" d="M1912,-1614C1912,-1614 1478,-1614 1478,-1614 1472,-1614 1466,-1608 1466,-1602 1466,-1602 1466,-1590 1466,-1590 1466,-1584 1472,-1578 1478,-1578 1478,-1578 1912,-1578 1912,-1578 1918,-1578 1924,-1584 1924,-1590 1924,-1590 1924,-1602 1924,-1602 1924,-1608 1918,-1614 1912,-1614"/>
<text text-anchor="middle" x="1695" y="-1593.5" font-family="sans" font-size="10.00">Scripts_MultiOmics_Proteomics_Aberrant_Expression_PROTRIDER_PROTRIDERSummary_R</text>
</g>
<!-- 12&#45;&gt;1 -->
<g id="edge12" class="edge"><title>12&#45;&gt;1</title>
<path fill="none" stroke="grey" stroke-width="2" d="M1874.49,-1614.03C1891.29,-1616.66 1908.01,-1619.64 1924,-1623 1940.37,-1626.44 1943.45,-1631.53 1960,-1634 2127.04,-1658.95 2211.73,-1743.86 2340,-1634 2406.7,-1576.87 2412.52,-1288.24 2412.66,-1196.23"/>
<polygon fill="grey" stroke="grey" stroke-width="2" points="2416.16,-1196.01 2412.65,-1186.01 2409.16,-1196.01 2416.16,-1196.01"/>
</g>
<!-- 13 -->
<g id="node14" class="node"><title>13</title>
<path fill="none" stroke="#d85e56" stroke-width="2" stroke-dasharray="5,2" d="M1877,-1668C1877,-1668 1513,-1668 1513,-1668 1507,-1668 1501,-1662 1501,-1656 1501,-1656 1501,-1644 1501,-1644 1501,-1638 1507,-1632 1513,-1632 1513,-1632 1877,-1632 1877,-1632 1883,-1632 1889,-1638 1889,-1644 1889,-1644 1889,-1656 1889,-1656 1889,-1662 1883,-1668 1877,-1668"/>
<text text-anchor="middle" x="1695" y="-1647.5" font-family="sans" font-size="10.00">Scripts_MultiOmics_Proteomics_Aberrant_Expression_limma_vs_protrider_R</text>
</g>
<!-- 13&#45;&gt;1 -->
<g id="edge13" class="edge"><title>13&#45;&gt;1</title>
<path fill="none" stroke="grey" stroke-width="2" d="M1862.19,-1668.02C2041.01,-1685.61 2304.68,-1705.63 2340,-1675 2412.61,-1612.04 2414.29,-1293.9 2413.05,-1196.43"/>
<polygon fill="grey" stroke="grey" stroke-width="2" points="2416.55,-1196.12 2412.9,-1186.17 2409.55,-1196.22 2416.55,-1196.12"/>
</g>
<!-- 14 -->
<g id="node15" class="node"><title>14</title>
<path fill="none" stroke="#56c1d8" stroke-width="2" stroke-dasharray="5,2" d="M1885,-689C1885,-689 1505,-689 1505,-689 1499,-689 1493,-683 1493,-677 1493,-677 1493,-665 1493,-665 1493,-659 1499,-653 1505,-653 1505,-653 1885,-653 1885,-653 1891,-653 1897,-659 1897,-665 1897,-665 1897,-677 1897,-677 1897,-683 1891,-689 1885,-689"/>
<text text-anchor="middle" x="1695" y="-668.5" font-family="sans" font-size="10.00">Scripts_MultiOmics_Proteomics_Protein_complexes_AE_complexes_Protrider_R</text>
</g>
<!-- 14&#45;&gt;1 -->
<g id="edge14" class="edge"><title>14&#45;&gt;1</title>
<path fill="none" stroke="grey" stroke-width="2" d="M1850.49,-652.989C1878.38,-643.085 1904.69,-628.211 1924,-606 2000.25,-518.29 1872.35,-423.312 1960,-347 2023.69,-291.551 2278.95,-288.657 2340,-347 2403.85,-408.016 2334.47,-1063.06 2376,-1141 2376.95,-1142.77 2378.06,-1144.46 2379.31,-1146.06"/>
<polygon fill="grey" stroke="grey" stroke-width="2" points="2376.94,-1148.65 2386.44,-1153.36 2381.95,-1143.76 2376.94,-1148.65"/>
</g>
<!-- 15 -->
<g id="node16" class="node"><title>15</title>
<path fill="none" stroke="#56d8c9" stroke-width="2" stroke-dasharray="5,2" d="M1879.5,-1560C1879.5,-1560 1510.5,-1560 1510.5,-1560 1504.5,-1560 1498.5,-1554 1498.5,-1548 1498.5,-1548 1498.5,-1536 1498.5,-1536 1498.5,-1530 1504.5,-1524 1510.5,-1524 1510.5,-1524 1879.5,-1524 1879.5,-1524 1885.5,-1524 1891.5,-1530 1891.5,-1536 1891.5,-1536 1891.5,-1548 1891.5,-1548 1891.5,-1554 1885.5,-1560 1879.5,-1560"/>
<text text-anchor="middle" x="1695" y="-1539.5" font-family="sans" font-size="10.00">Scripts_MultiOmics_Proteomics_Protein_complexes_AE_complexes_limma_R</text>
</g>
<!-- 15&#45;&gt;1 -->
<g id="edge15" class="edge"><title>15&#45;&gt;1</title>
<path fill="none" stroke="grey" stroke-width="2" d="M1891.56,-1556.4C1902.76,-1559.91 1913.65,-1564.07 1924,-1569 1944.15,-1578.6 1939.32,-1595.61 1960,-1604 2038.24,-1635.77 2275.58,-1658.59 2340,-1604 2402.38,-1551.14 2411.14,-1284.14 2412.33,-1196.16"/>
<polygon fill="grey" stroke="grey" stroke-width="2" points="2415.83,-1196.15 2412.44,-1186.12 2408.83,-1196.08 2415.83,-1196.15"/>
</g>
<!-- 15&#45;&gt;36 -->
<g id="edge94" class="edge"><title>15&#45;&gt;36</title>
<path fill="none" stroke="grey" stroke-width="2" d="M1891.73,-1543.73C1936.71,-1544.13 1983.35,-1544.54 2024.36,-1544.9"/>
<polygon fill="grey" stroke="grey" stroke-width="2" points="2024.36,-1548.4 2034.39,-1544.99 2024.42,-1541.4 2024.36,-1548.4"/>
</g>
<!-- 16&#45;&gt;1 -->
<g id="edge16" class="edge"><title>16&#45;&gt;1</title>
<path fill="none" stroke="grey" stroke-width="2" d="M1847.33,-1917.23C2026.57,-1914.78 2305.39,-1905.54 2340,-1872 2389.35,-1824.17 2407.82,-1322.16 2411.69,-1196.43"/>
<polygon fill="grey" stroke="grey" stroke-width="2" points="2415.2,-1196.2 2412,-1186.1 2408.2,-1195.99 2415.2,-1196.2"/>
</g>
<!-- 25 -->
<g id="node26" class="node"><title>25</title>
<path fill="none" stroke="#d88556" stroke-width="2" stroke-dasharray="5,2" d="M2230,-2052C2230,-2052 2070,-2052 2070,-2052 2064,-2052 2058,-2046 2058,-2040 2058,-2040 2058,-2028 2058,-2028 2058,-2022 2064,-2016 2070,-2016 2070,-2016 2230,-2016 2230,-2016 2236,-2016 2242,-2022 2242,-2028 2242,-2028 2242,-2040 2242,-2040 2242,-2046 2236,-2052 2230,-2052"/>
<text text-anchor="middle" x="2150" y="-2031.5" font-family="sans" font-size="10.00">Scripts_Paper_figures_Figure2_a_R</text>
</g>
<!-- 16&#45;&gt;25 -->
<g id="edge76" class="edge"><title>16&#45;&gt;25</title>
<path fill="none" stroke="grey" stroke-width="2" d="M1766.78,-1936.12C1848.52,-1957.06 1982.71,-1991.42 2068.4,-2013.36"/>
<polygon fill="grey" stroke="grey" stroke-width="2" points="2067.79,-2016.82 2078.34,-2015.91 2069.52,-2010.04 2067.79,-2016.82"/>
</g>
<!-- 16&#45;&gt;37 -->
<g id="edge98" class="edge"><title>16&#45;&gt;37</title>
<path fill="none" stroke="grey" stroke-width="2" d="M1847.16,-1926.01C1904.93,-1929.07 1970.07,-1932.52 2025.02,-1935.43"/>
<polygon fill="grey" stroke="grey" stroke-width="2" points="2024.99,-1938.93 2035.16,-1935.97 2025.36,-1931.94 2024.99,-1938.93"/>
</g>
<!-- 17 -->
<g id="node18" class="node"><title>17</title>
<path fill="none" stroke="#56a9d8" stroke-width="2" stroke-dasharray="5,2" d="M1867,-2174C1867,-2174 1523,-2174 1523,-2174 1517,-2174 1511,-2168 1511,-2162 1511,-2162 1511,-2150 1511,-2150 1511,-2144 1517,-2138 1523,-2138 1523,-2138 1867,-2138 1867,-2138 1873,-2138 1879,-2144 1879,-2150 1879,-2150 1879,-2162 1879,-2162 1879,-2168 1873,-2174 1867,-2174"/>
<text text-anchor="middle" x="1695" y="-2153.5" font-family="sans" font-size="10.00">Scripts_MultiOmics_RNA_seq_Aberrant_Expression_OutriderSummary_R</text>
</g>
<!-- 17&#45;&gt;1 -->
<g id="edge17" class="edge"><title>17&#45;&gt;1</title>
<path fill="none" stroke="grey" stroke-width="2" d="M1865.54,-2174.03C2033.42,-2187.75 2274.62,-2194.96 2340,-2132 2409.07,-2065.49 2412.6,-1349.5 2412.56,-1196.62"/>
<polygon fill="grey" stroke="grey" stroke-width="2" points="2416.06,-1196.21 2412.55,-1186.22 2409.06,-1196.22 2416.06,-1196.21"/>
</g>
<!-- 18 -->
<g id="node19" class="node"><title>18</title>
<path fill="none" stroke="#97d856" stroke-width="2" stroke-dasharray="5,2" d="M1380,-2112C1380,-2112 1006,-2112 1006,-2112 1000,-2112 994,-2106 994,-2100 994,-2100 994,-2088 994,-2088 994,-2082 1000,-2076 1006,-2076 1006,-2076 1380,-2076 1380,-2076 1386,-2076 1392,-2082 1392,-2088 1392,-2088 1392,-2100 1392,-2100 1392,-2106 1386,-2112 1380,-2112"/>
<text text-anchor="middle" x="1193" y="-2091.5" font-family="sans" font-size="10.00">Scripts_MultiOmics_RNA_seq_Aberrant_Expression_detect_outliers_outrider_R</text>
</g>
<!-- 18&#45;&gt;1 -->
<g id="edge18" class="edge"><title>18&#45;&gt;1</title>
<path fill="none" stroke="grey" stroke-width="2" d="M1392.16,-2106.89C1701.94,-2124.95 2272.66,-2148.99 2340,-2086 2406.56,-2023.74 2412.07,-1343.96 2412.48,-1196.23"/>
<polygon fill="grey" stroke="grey" stroke-width="2" points="2415.98,-1196.16 2412.5,-1186.15 2408.98,-1196.14 2415.98,-1196.16"/>
</g>
<!-- 18&#45;&gt;7 -->
<g id="edge52" class="edge"><title>18&#45;&gt;7</title>
<path fill="none" stroke="grey" stroke-width="2" d="M1239.91,-2112.13C1293.36,-2132.51 1384.73,-2165.08 1466,-2183 1488.92,-2188.05 1513.36,-2192.21 1537.41,-2195.62"/>
<polygon fill="grey" stroke="grey" stroke-width="2" points="1536.94,-2199.09 1547.32,-2196.98 1537.89,-2192.15 1536.94,-2199.09"/>
</g>
<!-- 18&#45;&gt;8 -->
<g id="edge53" class="edge"><title>18&#45;&gt;8</title>
<path fill="none" stroke="grey" stroke-width="2" d="M1211.8,-2075.9C1257.22,-2028.47 1377.51,-1894.76 1430,-1758 1477.65,-1633.86 1427.2,-1588.18 1466,-1461 1517.84,-1291.09 1631.75,-1108.26 1675.96,-1040.89"/>
<polygon fill="grey" stroke="grey" stroke-width="2" points="1679.13,-1042.43 1681.72,-1032.16 1673.29,-1038.58 1679.13,-1042.43"/>
</g>
<!-- 18&#45;&gt;17 -->
<g id="edge67" class="edge"><title>18&#45;&gt;17</title>
<path fill="none" stroke="grey" stroke-width="2" d="M1339.29,-2112.02C1401.83,-2119.77 1475.04,-2128.85 1538.65,-2136.74"/>
<polygon fill="grey" stroke="grey" stroke-width="2" points="1538.42,-2140.24 1548.78,-2137.99 1539.28,-2133.29 1538.42,-2140.24"/>
</g>
<!-- 19 -->
<g id="node20" class="node"><title>19</title>
<path fill="none" stroke="#56d8c1" stroke-width="2" stroke-dasharray="5,2" d="M1829.5,-2082C1829.5,-2082 1560.5,-2082 1560.5,-2082 1554.5,-2082 1548.5,-2076 1548.5,-2070 1548.5,-2070 1548.5,-2058 1548.5,-2058 1548.5,-2052 1554.5,-2046 1560.5,-2046 1560.5,-2046 1829.5,-2046 1829.5,-2046 1835.5,-2046 1841.5,-2052 1841.5,-2058 1841.5,-2058 1841.5,-2070 1841.5,-2070 1841.5,-2076 1835.5,-2082 1829.5,-2082"/>
<text text-anchor="middle" x="1695" y="-2061.5" font-family="sans" font-size="10.00">Scripts_MultiOmics_RNA_seq_disease_gene_coverage_R</text>
</g>
<!-- 18&#45;&gt;19 -->
<g id="edge70" class="edge"><title>18&#45;&gt;19</title>
<path fill="none" stroke="grey" stroke-width="2" d="M1392.33,-2082.1C1440.85,-2079.19 1492.08,-2076.12 1538.28,-2073.34"/>
<polygon fill="grey" stroke="grey" stroke-width="2" points="1538.59,-2076.83 1548.36,-2072.74 1538.17,-2069.84 1538.59,-2076.83"/>
</g>
<!-- 44 -->
<g id="node45" class="node"><title>44</title>
<path fill="none" stroke="#61d856" stroke-width="2" stroke-dasharray="5,2" d="M1796.5,-1830C1796.5,-1830 1593.5,-1830 1593.5,-1830 1587.5,-1830 1581.5,-1824 1581.5,-1818 1581.5,-1818 1581.5,-1806 1581.5,-1806 1581.5,-1800 1587.5,-1794 1593.5,-1794 1593.5,-1794 1796.5,-1794 1796.5,-1794 1802.5,-1794 1808.5,-1800 1808.5,-1806 1808.5,-1806 1808.5,-1818 1808.5,-1818 1808.5,-1824 1802.5,-1830 1796.5,-1830"/>
<text text-anchor="middle" x="1695" y="-1809.5" font-family="sans" font-size="10.00">Scripts_Supplementary_figures_S_Fig2_e_R</text>
</g>
<!-- 18&#45;&gt;44 -->
<g id="edge105" class="edge"><title>18&#45;&gt;44</title>
<path fill="none" stroke="grey" stroke-width="2" d="M1213.68,-2075.87C1256.58,-2037.19 1362.91,-1945.63 1466,-1891 1513.07,-1866.05 1569.64,-1846.4 1614.65,-1832.93"/>
<polygon fill="grey" stroke="grey" stroke-width="2" points="1615.77,-1836.25 1624.37,-1830.07 1613.79,-1829.54 1615.77,-1836.25"/>
</g>
<!-- 19&#45;&gt;1 -->
<g id="edge19" class="edge"><title>19&#45;&gt;1</title>
<path fill="none" stroke="grey" stroke-width="2" d="M1841.68,-2073.49C2020.45,-2083.59 2304.37,-2094.01 2340,-2061 2404.92,-2000.86 2411.71,-1341.96 2412.42,-1196.37"/>
<polygon fill="grey" stroke="grey" stroke-width="2" points="2415.92,-1196.07 2412.46,-1186.05 2408.92,-1196.04 2415.92,-1196.07"/>
</g>
<!-- 19&#45;&gt;25 -->
<g id="edge77" class="edge"><title>19&#45;&gt;25</title>
<path fill="none" stroke="grey" stroke-width="2" d="M1841.51,-2054.36C1908.65,-2049.92 1986.71,-2044.75 2047.39,-2040.73"/>
<polygon fill="grey" stroke="grey" stroke-width="2" points="2047.99,-2044.2 2057.74,-2040.04 2047.53,-2037.21 2047.99,-2044.2"/>
</g>
<!-- 19&#45;&gt;37 -->
<g id="edge97" class="edge"><title>19&#45;&gt;37</title>
<path fill="none" stroke="grey" stroke-width="2" d="M1841.59,-2059.42C1869.71,-2055.04 1898.37,-2048.03 1924,-2037 1943.13,-2028.77 1941.85,-2017.22 1960,-2007 1993.16,-1988.32 2032.59,-1973.72 2066.84,-1963.13"/>
<polygon fill="grey" stroke="grey" stroke-width="2" points="2068.26,-1966.35 2076.82,-1960.11 2066.24,-1959.65 2068.26,-1966.35"/>
</g>
<!-- 20&#45;&gt;1 -->
<g id="edge20" class="edge"><title>20&#45;&gt;1</title>
<path fill="none" stroke="grey" stroke-width="2" d="M2307.22,-919.571C2319.28,-924.809 2330.46,-931.796 2340,-941 2405.01,-1003.7 2328.33,-1064.29 2376,-1141 2376.92,-1142.47 2377.94,-1143.89 2379.06,-1145.26"/>
<polygon fill="grey" stroke="grey" stroke-width="2" points="2376.67,-1147.82 2386.2,-1152.45 2381.64,-1142.89 2376.67,-1147.82"/>
</g>
<!-- 21&#45;&gt;1 -->
<g id="edge21" class="edge"><title>21&#45;&gt;1</title>
<path fill="none" stroke="grey" stroke-width="2" d="M2329.97,-878.261C2333.48,-880.927 2336.84,-883.834 2340,-887 2420.58,-967.667 2317.64,-1043.05 2376,-1141 2376.92,-1142.54 2377.96,-1144.01 2379.09,-1145.43"/>
<polygon fill="grey" stroke="grey" stroke-width="2" points="2376.91,-1148.2 2386.43,-1152.84 2381.88,-1143.27 2376.91,-1148.2"/>
</g>
<!-- 22&#45;&gt;1 -->
<g id="edge22" class="edge"><title>22&#45;&gt;1</title>
<path fill="none" stroke="grey" stroke-width="2" d="M2302.86,-808.839C2316.72,-814.387 2329.47,-822.201 2340,-833 2388.1,-882.345 2341.45,-1081.37 2376,-1141 2376.9,-1142.55 2377.92,-1144.03 2379.04,-1145.45"/>
<polygon fill="grey" stroke="grey" stroke-width="2" points="2376.84,-1148.2 2386.34,-1152.9 2381.84,-1143.31 2376.84,-1148.2"/>
</g>
<!-- 23&#45;&gt;1 -->
<g id="edge23" class="edge"><title>23&#45;&gt;1</title>
<path fill="none" stroke="grey" stroke-width="2" d="M2330.15,-770.085C2333.61,-772.804 2336.9,-775.769 2340,-779 2395.93,-837.373 2336.08,-1070.7 2376,-1141 2376.88,-1142.55 2377.9,-1144.05 2379.01,-1145.47"/>
<polygon fill="grey" stroke="grey" stroke-width="2" points="2376.79,-1148.21 2386.27,-1152.93 2381.81,-1143.33 2376.79,-1148.21"/>
</g>
<!-- 24&#45;&gt;1 -->
<g id="edge24" class="edge"><title>24&#45;&gt;1</title>
<path fill="none" stroke="grey" stroke-width="2" d="M2236.97,-688.368C2273.71,-689.193 2314.03,-697.549 2340,-725 2403.76,-792.41 2330.69,-1060.02 2376,-1141 2376.87,-1142.56 2377.88,-1144.06 2378.98,-1145.49"/>
<polygon fill="grey" stroke="grey" stroke-width="2" points="2376.75,-1148.21 2386.22,-1152.96 2381.78,-1143.34 2376.75,-1148.21"/>
</g>
<!-- 25&#45;&gt;1 -->
<g id="edge25" class="edge"><title>25&#45;&gt;1</title>
<path fill="none" stroke="grey" stroke-width="2" d="M2242.06,-2040.84C2277.5,-2038.43 2315.41,-2028.67 2340,-2002 2395.76,-1941.53 2409.6,-1335.89 2412.05,-1196.5"/>
<polygon fill="grey" stroke="grey" stroke-width="2" points="2415.56,-1196.28 2412.23,-1186.22 2408.56,-1196.16 2415.56,-1196.28"/>
</g>
<!-- 26&#45;&gt;1 -->
<g id="edge26" class="edge"><title>26&#45;&gt;1</title>
<path fill="none" stroke="grey" stroke-width="2" d="M2242.44,-634.42C2277.72,-635.903 2315.42,-644.752 2340,-671 2411.61,-747.454 2325.3,-1049.33 2376,-1141 2376.87,-1142.56 2377.86,-1144.06 2378.97,-1145.5"/>
<polygon fill="grey" stroke="grey" stroke-width="2" points="2376.72,-1148.22 2386.19,-1152.98 2381.76,-1143.36 2376.72,-1148.22"/>
</g>
<!-- 27&#45;&gt;1 -->
<g id="edge27" class="edge"><title>27&#45;&gt;1</title>
<path fill="none" stroke="grey" stroke-width="2" d="M2241.57,-580.285C2277.14,-581.63 2315.29,-590.413 2340,-617 2419.45,-702.502 2319.91,-1038.64 2376,-1141 2376.86,-1142.57 2377.85,-1144.07 2378.95,-1145.51"/>
<polygon fill="grey" stroke="grey" stroke-width="2" points="2376.7,-1148.22 2386.16,-1153 2381.75,-1143.36 2376.7,-1148.22"/>
</g>
<!-- 28&#45;&gt;1 -->
<g id="edge28" class="edge"><title>28&#45;&gt;1</title>
<path fill="none" stroke="grey" stroke-width="2" d="M2242.14,-526.227C2277.59,-527.621 2315.49,-536.456 2340,-563 2427.3,-657.553 2314.52,-1027.94 2376,-1141 2376.85,-1142.57 2377.84,-1144.08 2378.94,-1145.51"/>
<polygon fill="grey" stroke="grey" stroke-width="2" points="2376.68,-1148.22 2386.13,-1153.01 2381.73,-1143.37 2376.68,-1148.22"/>
</g>
<!-- 29&#45;&gt;1 -->
<g id="edge29" class="edge"><title>29&#45;&gt;1</title>
<path fill="none" stroke="grey" stroke-width="2" d="M2241.36,-1499.45C2276.05,-1497.53 2313.61,-1488.94 2340,-1465 2379.85,-1428.86 2402.05,-1263.73 2409.56,-1196.55"/>
<polygon fill="grey" stroke="grey" stroke-width="2" points="2413.08,-1196.6 2410.68,-1186.28 2406.12,-1195.84 2413.08,-1196.6"/>
</g>
<!-- 30&#45;&gt;1 -->
<g id="edge30" class="edge"><title>30&#45;&gt;1</title>
<path fill="none" stroke="grey" stroke-width="2" d="M2242.21,-1444.68C2276.41,-1442.51 2313.39,-1433.94 2340,-1411 2403.82,-1355.99 2412.74,-1247.42 2413.17,-1196.11"/>
<polygon fill="grey" stroke="grey" stroke-width="2" points="2416.67,-1196.07 2413.15,-1186.07 2409.67,-1196.08 2416.67,-1196.07"/>
</g>
<!-- 31&#45;&gt;1 -->
<g id="edge31" class="edge"><title>31&#45;&gt;1</title>
<path fill="none" stroke="grey" stroke-width="2" d="M2242.3,-1389.55C2276.11,-1387.14 2312.79,-1378.7 2340,-1357 2390.05,-1317.09 2405.58,-1238.29 2410.38,-1196.15"/>
<polygon fill="grey" stroke="grey" stroke-width="2" points="2413.87,-1196.33 2411.4,-1186.03 2406.91,-1195.62 2413.87,-1196.33"/>
</g>
<!-- 32&#45;&gt;1 -->
<g id="edge32" class="edge"><title>32&#45;&gt;1</title>
<path fill="none" stroke="grey" stroke-width="2" d="M2242.21,-472.162C2277.67,-473.546 2315.56,-482.391 2340,-509 2387.58,-560.803 2342.56,-1079.12 2376,-1141 2376.96,-1142.77 2378.08,-1144.45 2379.34,-1146.05"/>
<polygon fill="grey" stroke="grey" stroke-width="2" points="2376.98,-1148.64 2386.48,-1153.33 2381.98,-1143.74 2376.98,-1148.64"/>
</g>
<!-- 33&#45;&gt;1 -->
<g id="edge33" class="edge"><title>33&#45;&gt;1</title>
<path fill="none" stroke="grey" stroke-width="2" d="M2241.83,-364.044C2277.45,-365.349 2315.56,-374.167 2340,-401 2395.43,-461.859 2337.17,-1068.42 2376,-1141 2376.95,-1142.77 2378.07,-1144.46 2379.32,-1146.06"/>
<polygon fill="grey" stroke="grey" stroke-width="2" points="2376.95,-1148.65 2386.45,-1153.35 2381.96,-1143.75 2376.95,-1148.65"/>
</g>
<!-- 34&#45;&gt;1 -->
<g id="edge34" class="edge"><title>34&#45;&gt;1</title>
<path fill="none" stroke="grey" stroke-width="2" d="M2242.36,-1333.59C2275.6,-1330.83 2311.88,-1322.65 2340,-1303 2376.44,-1277.53 2396.2,-1227.79 2405.53,-1196.32"/>
<polygon fill="grey" stroke="grey" stroke-width="2" points="2408.98,-1196.98 2408.3,-1186.4 2402.24,-1195.09 2408.98,-1196.98"/>
</g>
<!-- 35&#45;&gt;1 -->
<g id="edge35" class="edge"><title>35&#45;&gt;1</title>
<path fill="none" stroke="grey" stroke-width="2" d="M2236.77,-1276.21C2270.58,-1273.19 2308.73,-1265.73 2340,-1249 2363.56,-1236.39 2383.23,-1212.96 2396.12,-1194.52"/>
<polygon fill="grey" stroke="grey" stroke-width="2" points="2399.03,-1196.46 2401.71,-1186.21 2393.23,-1192.55 2399.03,-1196.46"/>
</g>
<!-- 36&#45;&gt;1 -->
<g id="edge36" class="edge"><title>36&#45;&gt;1</title>
<path fill="none" stroke="grey" stroke-width="2" d="M2265.82,-1551.49C2293.04,-1547.31 2319.96,-1537.84 2340,-1519 2386.99,-1474.82 2405.42,-1272.03 2410.73,-1196.47"/>
<polygon fill="grey" stroke="grey" stroke-width="2" points="2414.24,-1196.5 2411.42,-1186.28 2407.25,-1196.02 2414.24,-1196.5"/>
</g>
<!-- 37&#45;&gt;1 -->
<g id="edge37" class="edge"><title>37&#45;&gt;1</title>
<path fill="none" stroke="grey" stroke-width="2" d="M2264.53,-1946.11C2292.75,-1941.42 2320.49,-1930.94 2340,-1910 2389.52,-1856.87 2407.94,-1326.49 2411.72,-1196.6"/>
<polygon fill="grey" stroke="grey" stroke-width="2" points="2415.23,-1196.38 2412.02,-1186.28 2408.24,-1196.18 2415.23,-1196.38"/>
</g>
<!-- 38&#45;&gt;1 -->
<g id="edge38" class="edge"><title>38&#45;&gt;1</title>
<path fill="none" stroke="grey" stroke-width="2" d="M2267.72,-1209.33C2291.8,-1205.6 2316.87,-1200.89 2340,-1195 2352.3,-1191.87 2365.41,-1187.37 2377.04,-1182.94"/>
<polygon fill="grey" stroke="grey" stroke-width="2" points="2378.39,-1186.17 2386.42,-1179.26 2375.83,-1179.65 2378.39,-1186.17"/>
</g>
<!-- 39 -->
<g id="node40" class="node"><title>39</title>
<path fill="none" stroke="#56d87b" stroke-width="2" stroke-dasharray="5,2" d="M2259.5,-144C2259.5,-144 2040.5,-144 2040.5,-144 2034.5,-144 2028.5,-138 2028.5,-132 2028.5,-132 2028.5,-120 2028.5,-120 2028.5,-114 2034.5,-108 2040.5,-108 2040.5,-108 2259.5,-108 2259.5,-108 2265.5,-108 2271.5,-114 2271.5,-120 2271.5,-120 2271.5,-132 2271.5,-132 2271.5,-138 2265.5,-144 2259.5,-144"/>
<text text-anchor="middle" x="2150" y="-123.5" font-family="sans" font-size="10.00">Scripts_Patient_analysis_samples_overview_R</text>
</g>
<!-- 39&#45;&gt;1 -->
<g id="edge39" class="edge"><title>39&#45;&gt;1</title>
<path fill="none" stroke="grey" stroke-width="2" d="M2271.77,-122.29C2297.72,-127.483 2322.56,-138.107 2340,-158 2412.05,-240.18 2325.02,-1044.32 2376,-1141 2376.94,-1142.78 2378.05,-1144.47 2379.29,-1146.07"/>
<polygon fill="grey" stroke="grey" stroke-width="2" points="2376.92,-1148.65 2386.4,-1153.37 2381.93,-1143.77 2376.92,-1148.65"/>
</g>
<!-- 40 -->
<g id="node41" class="node"><title>40</title>
<path fill="none" stroke="#d89556" stroke-width="2" stroke-dasharray="5,2" d="M2251.5,-90C2251.5,-90 2048.5,-90 2048.5,-90 2042.5,-90 2036.5,-84 2036.5,-78 2036.5,-78 2036.5,-66 2036.5,-66 2036.5,-60 2042.5,-54 2048.5,-54 2048.5,-54 2251.5,-54 2251.5,-54 2257.5,-54 2263.5,-60 2263.5,-66 2263.5,-66 2263.5,-78 2263.5,-78 2263.5,-84 2257.5,-90 2251.5,-90"/>
<text text-anchor="middle" x="2150" y="-69.5" font-family="sans" font-size="10.00">Scripts_Supplementary_figures_S_Fig2_a_R</text>
</g>
<!-- 40&#45;&gt;1 -->
<g id="edge40" class="edge"><title>40&#45;&gt;1</title>
<path fill="none" stroke="grey" stroke-width="2" d="M2263.67,-63.6478C2292.41,-67.4395 2320.62,-77.4214 2340,-99 2417.4,-185.193 2322.07,-1038.47 2376,-1141 2376.94,-1142.78 2378.05,-1144.47 2379.29,-1146.08"/>
<polygon fill="grey" stroke="grey" stroke-width="2" points="2376.91,-1148.65 2386.39,-1153.38 2381.93,-1143.77 2376.91,-1148.65"/>
</g>
<!-- 41 -->
<g id="node42" class="node"><title>41</title>
<path fill="none" stroke="#56a2d8" stroke-width="2" stroke-dasharray="5,2" d="M1796.5,-2028C1796.5,-2028 1593.5,-2028 1593.5,-2028 1587.5,-2028 1581.5,-2022 1581.5,-2016 1581.5,-2016 1581.5,-2004 1581.5,-2004 1581.5,-1998 1587.5,-1992 1593.5,-1992 1593.5,-1992 1796.5,-1992 1796.5,-1992 1802.5,-1992 1808.5,-1998 1808.5,-2004 1808.5,-2004 1808.5,-2016 1808.5,-2016 1808.5,-2022 1802.5,-2028 1796.5,-2028"/>
<text text-anchor="middle" x="1695" y="-2007.5" font-family="sans" font-size="10.00">Scripts_Supplementary_figures_S_Fig2_b_R</text>
</g>
<!-- 41&#45;&gt;1 -->
<g id="edge41" class="edge"><title>41&#45;&gt;1</title>
<path fill="none" stroke="grey" stroke-width="2" d="M1808.85,-2006.59C1988.49,-2000.63 2321.3,-1987.21 2340,-1969 2396.49,-1913.99 2409.74,-1332.44 2412.07,-1196.37"/>
<polygon fill="grey" stroke="grey" stroke-width="2" points="2415.57,-1196.37 2412.24,-1186.31 2408.57,-1196.25 2415.57,-1196.37"/>
</g>
<!-- 41&#45;&gt;37 -->
<g id="edge99" class="edge"><title>41&#45;&gt;37</title>
<path fill="none" stroke="grey" stroke-width="2" d="M1808.55,-1994.64C1845.37,-1989.5 1886.45,-1983.64 1924,-1978 1958.18,-1972.87 1995.24,-1967.04 2029.23,-1961.6"/>
<polygon fill="grey" stroke="grey" stroke-width="2" points="2029.88,-1965.04 2039.2,-1960 2028.77,-1958.13 2029.88,-1965.04"/>
</g>
<!-- 42&#45;&gt;1 -->
<g id="edge42" class="edge"><title>42&#45;&gt;1</title>
<path fill="none" stroke="grey" stroke-width="2" d="M2263.04,-1168C2303.66,-1168 2346.74,-1168 2376.16,-1168"/>
<polygon fill="grey" stroke="grey" stroke-width="2" points="2376.35,-1171.5 2386.35,-1168 2376.35,-1164.5 2376.35,-1171.5"/>
</g>
<!-- 43&#45;&gt;1 -->
<g id="edge43" class="edge"><title>43&#45;&gt;1</title>
<path fill="none" stroke="grey" stroke-width="2" d="M2263.91,-419.94C2292.48,-423.783 2320.54,-433.718 2340,-455 2391.5,-511.331 2339.87,-1073.77 2376,-1141 2376.95,-1142.77 2378.08,-1144.46 2379.33,-1146.06"/>
<polygon fill="grey" stroke="grey" stroke-width="2" points="2376.97,-1148.65 2386.46,-1153.34 2381.97,-1143.75 2376.97,-1148.65"/>
</g>
<!-- 44&#45;&gt;1 -->
<g id="edge44" class="edge"><title>44&#45;&gt;1</title>
<path fill="none" stroke="grey" stroke-width="2" d="M1808.52,-1819.6C1972.69,-1828.07 2266.37,-1832.46 2340,-1762 2381.4,-1722.38 2405.3,-1309.77 2411.1,-1196.58"/>
<polygon fill="grey" stroke="grey" stroke-width="2" points="2414.61,-1196.46 2411.62,-1186.29 2407.62,-1196.1 2414.61,-1196.46"/>
</g>
<!-- 45 -->
<g id="node46" class="node"><title>45</title>
<path fill="none" stroke="#78d856" stroke-width="2" stroke-dasharray="5,2" d="M2250,-36C2250,-36 2050,-36 2050,-36 2044,-36 2038,-30 2038,-24 2038,-24 2038,-12 2038,-12 2038,-6 2044,-0 2050,-0 2050,-0 2250,-0 2250,-0 2256,-0 2262,-6 2262,-12 2262,-12 2262,-24 2262,-24 2262,-30 2256,-36 2250,-36"/>
<text text-anchor="middle" x="2150" y="-15.5" font-family="sans" font-size="10.00">Scripts_Supplementary_figures_S_Fig2_f_R</text>
</g>
<!-- 45&#45;&gt;1 -->
<g id="edge45" class="edge"><title>45&#45;&gt;1</title>
<path fill="none" stroke="grey" stroke-width="2" d="M2262.21,-9.43685C2291.47,-13.0788 2320.31,-23.0347 2340,-45 2421.33,-135.724 2319.37,-1033.12 2376,-1141 2376.93,-1142.78 2378.04,-1144.47 2379.29,-1146.08"/>
<polygon fill="grey" stroke="grey" stroke-width="2" points="2376.91,-1148.65 2386.39,-1153.38 2381.93,-1143.77 2376.91,-1148.65"/>
</g>
<!-- 46&#45;&gt;1 -->
<g id="edge46" class="edge"><title>46&#45;&gt;1</title>
<path fill="none" stroke="grey" stroke-width="2" d="M2257.74,-1125.17C2284.8,-1129.12 2313.66,-1134.3 2340,-1141 2352.3,-1144.13 2365.41,-1148.63 2377.04,-1153.06"/>
<polygon fill="grey" stroke="grey" stroke-width="2" points="2375.83,-1156.35 2386.42,-1156.74 2378.39,-1149.83 2375.83,-1156.35"/>
</g>
<!-- 47&#45;&gt;1 -->
<g id="edge47" class="edge"><title>47&#45;&gt;1</title>
<path fill="none" stroke="grey" stroke-width="2" d="M2257.95,-1059.73C2286.3,-1063.67 2315.74,-1071.71 2340,-1087 2364.4,-1102.38 2356.11,-1120.11 2376,-1141 2376.89,-1141.93 2377.81,-1142.85 2378.76,-1143.76"/>
<polygon fill="grey" stroke="grey" stroke-width="2" points="2376.6,-1146.52 2386.43,-1150.47 2381.2,-1141.25 2376.6,-1146.52"/>
</g>
<!-- 48 -->
<g id="node49" class="node"><title>48</title>
<path fill="none" stroke="#d8c356" stroke-width="2" stroke-dasharray="5,2" d="M1790.5,-1722C1790.5,-1722 1599.5,-1722 1599.5,-1722 1593.5,-1722 1587.5,-1716 1587.5,-1710 1587.5,-1710 1587.5,-1698 1587.5,-1698 1587.5,-1692 1593.5,-1686 1599.5,-1686 1599.5,-1686 1790.5,-1686 1790.5,-1686 1796.5,-1686 1802.5,-1692 1802.5,-1698 1802.5,-1698 1802.5,-1710 1802.5,-1710 1802.5,-1716 1796.5,-1722 1790.5,-1722"/>
<text text-anchor="middle" x="1695" y="-1701.5" font-family="sans" font-size="10.00">Scripts_Supplementary_figures_S_Fig5_R</text>
</g>
<!-- 48&#45;&gt;1 -->
<g id="edge48" class="edge"><title>48&#45;&gt;1</title>
<path fill="none" stroke="grey" stroke-width="2" d="M1802.59,-1710.11C1975.25,-1718.92 2300.82,-1730.6 2340,-1696 2377.93,-1662.51 2403.98,-1300.7 2410.75,-1196.14"/>
<polygon fill="grey" stroke="grey" stroke-width="2" points="2414.25,-1196.24 2411.4,-1186.04 2407.27,-1195.79 2414.25,-1196.24"/>
</g>
<!-- 49 -->
<g id="node50" class="node"><title>49</title>
<path fill="none" stroke="#d8a456" stroke-width="2" stroke-dasharray="5,2" d="M1799.5,-597C1799.5,-597 1590.5,-597 1590.5,-597 1584.5,-597 1578.5,-591 1578.5,-585 1578.5,-585 1578.5,-573 1578.5,-573 1578.5,-567 1584.5,-561 1590.5,-561 1590.5,-561 1799.5,-561 1799.5,-561 1805.5,-561 1811.5,-567 1811.5,-573 1811.5,-573 1811.5,-585 1811.5,-585 1811.5,-591 1805.5,-597 1799.5,-597"/>
<text text-anchor="middle" x="1695" y="-576.5" font-family="sans" font-size="10.00">Scripts_Supplementary_figures_S_Fig5_ab_R</text>
</g>
<!-- 49&#45;&gt;1 -->
<g id="edge49" class="edge"><title>49&#45;&gt;1</title>
<path fill="none" stroke="grey" stroke-width="2" d="M1706.12,-560.832C1736.4,-508.635 1832.15,-358.494 1960,-304 2037.68,-270.89 2279.02,-245.586 2340,-304 2407.22,-368.392 2332.32,-1058.8 2376,-1141 2376.94,-1142.77 2378.06,-1144.46 2379.31,-1146.07"/>
<polygon fill="grey" stroke="grey" stroke-width="2" points="2376.94,-1148.65 2386.43,-1153.36 2381.95,-1143.76 2376.94,-1148.65"/>
</g>
<!-- 50 -->
<g id="node51" class="node"><title>50</title>
<path fill="none" stroke="#d89c56" stroke-width="2" stroke-dasharray="5,2" d="M1418,-1323C1418,-1323 968,-1323 968,-1323 962,-1323 956,-1317 956,-1311 956,-1311 956,-1299 956,-1299 956,-1293 962,-1287 968,-1287 968,-1287 1418,-1287 1418,-1287 1424,-1287 1430,-1293 1430,-1299 1430,-1299 1430,-1311 1430,-1311 1430,-1317 1424,-1323 1418,-1323"/>
<text text-anchor="middle" x="1193" y="-1302.5" font-family="sans" font-size="10.00">Scripts_MultiOmics_Proteomics_Aberrant_Expression_PROTRIDER_detect_outliers_protrider_R</text>
</g>
<!-- 50&#45;&gt;8 -->
<g id="edge54" class="edge"><title>50&#45;&gt;8</title>
<path fill="none" stroke="grey" stroke-width="2" d="M1225.28,-1286.8C1312.37,-1236.11 1557.59,-1093.39 1654.18,-1037.17"/>
<polygon fill="grey" stroke="grey" stroke-width="2" points="1656.17,-1040.07 1663.05,-1032.01 1652.65,-1034.02 1656.17,-1040.07"/>
</g>
<!-- 50&#45;&gt;12 -->
<g id="edge58" class="edge"><title>50&#45;&gt;12</title>
<path fill="none" stroke="grey" stroke-width="2" d="M1206.07,-1323.16C1240.09,-1372.66 1342.4,-1510.18 1466,-1569 1469.95,-1570.88 1473.98,-1572.65 1478.07,-1574.31"/>
<polygon fill="grey" stroke="grey" stroke-width="2" points="1477.15,-1577.7 1487.74,-1578 1479.64,-1571.16 1477.15,-1577.7"/>
</g>
<!-- 50&#45;&gt;13 -->
<g id="edge59" class="edge"><title>50&#45;&gt;13</title>
<path fill="none" stroke="grey" stroke-width="2" d="M1203.1,-1323.13C1232.31,-1379.17 1329.83,-1550.27 1466,-1623 1474.07,-1627.31 1482.52,-1631.06 1491.23,-1634.33"/>
<polygon fill="grey" stroke="grey" stroke-width="2" points="1490.17,-1637.67 1500.77,-1637.68 1492.49,-1631.06 1490.17,-1637.67"/>
</g>
<!-- 50&#45;&gt;14 -->
<g id="edge61" class="edge"><title>50&#45;&gt;14</title>
<path fill="none" stroke="grey" stroke-width="2" d="M1208.42,-1286.71C1279.28,-1196.87 1590.38,-802.391 1673.51,-696.977"/>
<polygon fill="grey" stroke="grey" stroke-width="2" points="1676.31,-699.08 1679.76,-689.061 1670.82,-694.746 1676.31,-699.08"/>
</g>
<!-- 50&#45;&gt;44 -->
<g id="edge106" class="edge"><title>50&#45;&gt;44</title>
<path fill="none" stroke="grey" stroke-width="2" d="M1205.84,-1323.26C1241.79,-1379.06 1351.98,-1552.72 1430,-1704 1448.06,-1739.01 1434.29,-1761.62 1466,-1785 1495.91,-1807.05 1534.28,-1816.62 1570.98,-1819.88"/>
<polygon fill="grey" stroke="grey" stroke-width="2" points="1571.04,-1823.39 1581.27,-1820.63 1571.56,-1816.41 1571.04,-1823.39"/>
</g>
<!-- 50&#45;&gt;48 -->
<g id="edge110" class="edge"><title>50&#45;&gt;48</title>
<path fill="none" stroke="grey" stroke-width="2" d="M1200.92,-1323.02C1225.73,-1384.93 1316.78,-1589.84 1466,-1677 1499.17,-1696.38 1539.69,-1704.99 1577.31,-1708.2"/>
<polygon fill="grey" stroke="grey" stroke-width="2" points="1577.1,-1711.69 1587.32,-1708.93 1577.61,-1704.71 1577.1,-1711.69"/>
</g>
<!-- 50&#45;&gt;49 -->
<g id="edge113" class="edge"><title>50&#45;&gt;49</title>
<path fill="none" stroke="grey" stroke-width="2" d="M1201.16,-1286.99C1242.83,-1182.25 1452.67,-655.909 1466,-644 1494.39,-618.64 1532.03,-603.121 1568.52,-593.641"/>
<polygon fill="grey" stroke="grey" stroke-width="2" points="1569.4,-597.03 1578.27,-591.241 1567.72,-590.233 1569.4,-597.03"/>
</g>
<!-- 51&#45;&gt;10 -->
<g id="edge57" class="edge"><title>51&#45;&gt;10</title>
<path fill="none" stroke="grey" stroke-width="2" d="M1412.58,-1742.8C1435.24,-1744.03 1458.25,-1745.27 1480.85,-1746.49"/>
<polygon fill="grey" stroke="grey" stroke-width="2" points="1480.68,-1749.99 1490.86,-1747.03 1481.06,-1743 1480.68,-1749.99"/>
</g>
<!-- 51&#45;&gt;13 -->
<g id="edge60" class="edge"><title>51&#45;&gt;13</title>
<path fill="none" stroke="grey" stroke-width="2" d="M1276.13,-1712.96C1329.94,-1701.57 1401.92,-1687.14 1466,-1677 1483.11,-1674.29 1500.98,-1671.73 1518.86,-1669.33"/>
<polygon fill="grey" stroke="grey" stroke-width="2" points="1519.33,-1672.8 1528.78,-1668.02 1518.41,-1665.86 1519.33,-1672.8"/>
</g>
<!-- 51&#45;&gt;15 -->
<g id="edge63" class="edge"><title>51&#45;&gt;15</title>
<path fill="none" stroke="grey" stroke-width="2" d="M1216.71,-1712.86C1261.43,-1678.26 1365.3,-1603.21 1466,-1569 1473.36,-1566.5 1480.93,-1564.22 1488.62,-1562.15"/>
<polygon fill="grey" stroke="grey" stroke-width="2" points="1489.62,-1565.51 1498.43,-1559.63 1487.88,-1558.73 1489.62,-1565.51"/>
</g>
<!-- 51&#45;&gt;44 -->
<g id="edge107" class="edge"><title>51&#45;&gt;44</title>
<path fill="none" stroke="grey" stroke-width="2" d="M1276.13,-1749.04C1329.94,-1760.43 1401.92,-1774.86 1466,-1785 1500.04,-1790.39 1537.1,-1795.21 1571.25,-1799.25"/>
<polygon fill="grey" stroke="grey" stroke-width="2" points="1570.93,-1802.73 1581.27,-1800.42 1571.74,-1795.78 1570.93,-1802.73"/>
</g>
<!-- 51&#45;&gt;48 -->
<g id="edge111" class="edge"><title>51&#45;&gt;48</title>
<path fill="none" stroke="grey" stroke-width="2" d="M1412.58,-1719.2C1469.25,-1716.14 1528.1,-1712.96 1577.25,-1710.3"/>
<polygon fill="grey" stroke="grey" stroke-width="2" points="1577.47,-1713.8 1587.26,-1709.76 1577.09,-1706.81 1577.47,-1713.8"/>
</g>
<!-- 52 -->
<g id="node53" class="node"><title>52</title>
<path fill="none" stroke="#5692d8" stroke-width="2" stroke-dasharray="5,2" d="M1381.5,-712C1381.5,-712 1004.5,-712 1004.5,-712 998.5,-712 992.5,-706 992.5,-700 992.5,-700 992.5,-688 992.5,-688 992.5,-682 998.5,-676 1004.5,-676 1004.5,-676 1381.5,-676 1381.5,-676 1387.5,-676 1393.5,-682 1393.5,-688 1393.5,-688 1393.5,-700 1393.5,-700 1393.5,-706 1387.5,-712 1381.5,-712"/>
<text text-anchor="middle" x="1193" y="-691.5" font-family="sans" font-size="10.00">Scripts_MultiOmics_Proteomics_Protein_complexes_get_CORUM_complexes_R</text>
</g>
<!-- 52&#45;&gt;14 -->
<g id="edge62" class="edge"><title>52&#45;&gt;14</title>
<path fill="none" stroke="grey" stroke-width="2" d="M1393.77,-684.811C1422.97,-683.467 1453.12,-682.08 1482.54,-680.727"/>
<polygon fill="grey" stroke="grey" stroke-width="2" points="1483.09,-684.206 1492.92,-680.25 1482.77,-677.213 1483.09,-684.206"/>
</g>
<!-- 52&#45;&gt;15 -->
<g id="edge64" class="edge"><title>52&#45;&gt;15</title>
<path fill="none" stroke="grey" stroke-width="2" d="M1203.16,-712.112C1238.41,-782.645 1366.58,-1046.5 1430,-1278 1444.08,-1329.38 1427.72,-1477.96 1466,-1515 1473.12,-1521.89 1481.01,-1527.7 1489.45,-1532.57"/>
<polygon fill="grey" stroke="grey" stroke-width="2" points="1487.96,-1535.74 1498.44,-1537.31 1491.23,-1529.55 1487.96,-1535.74"/>
</g>
<!-- 52&#45;&gt;33 -->
<g id="edge89" class="edge"><title>52&#45;&gt;33</title>
<path fill="none" stroke="grey" stroke-width="2" d="M1279.71,-675.995C1333.09,-665.342 1403.29,-652.344 1466,-644 1516.62,-637.265 1886.29,-640.427 1924,-606 1992.32,-543.634 1893.55,-465.358 1960,-401 1983.2,-378.527 2016.13,-369.251 2048.01,-366.382"/>
<polygon fill="grey" stroke="grey" stroke-width="2" points="2048.58,-369.851 2058.31,-365.666 2048.1,-362.867 2048.58,-369.851"/>
</g>
<!-- 52&#45;&gt;43 -->
<g id="edge104" class="edge"><title>52&#45;&gt;43</title>
<path fill="none" stroke="grey" stroke-width="2" d="M1238.95,-712.021C1364.66,-759.137 1723.68,-870.825 1924,-698 2006.66,-626.68 1882.6,-532.001 1960,-455 1977.84,-437.252 2001.72,-427.656 2026.49,-422.938"/>
<polygon fill="grey" stroke="grey" stroke-width="2" points="2027.09,-426.387 2036.39,-421.31 2025.96,-419.48 2027.09,-426.387"/>
</g>
<!-- 53 -->
<g id="node54" class="node"><title>53</title>
<path fill="none" stroke="#ced856" stroke-width="2" stroke-dasharray="5,2" d="M829.5,-2028C829.5,-2028 560.5,-2028 560.5,-2028 554.5,-2028 548.5,-2022 548.5,-2016 548.5,-2016 548.5,-2004 548.5,-2004 548.5,-1998 554.5,-1992 560.5,-1992 560.5,-1992 829.5,-1992 829.5,-1992 835.5,-1992 841.5,-1998 841.5,-2004 841.5,-2004 841.5,-2016 841.5,-2016 841.5,-2022 835.5,-2028 829.5,-2028"/>
<text text-anchor="middle" x="695" y="-2007.5" font-family="sans" font-size="10.00">Scripts_MultiOmics_RNA_seq_create_gene_annotation_R</text>
</g>
<!-- 53&#45;&gt;16 -->
<g id="edge65" class="edge"><title>53&#45;&gt;16</title>
<path fill="none" stroke="grey" stroke-width="2" d="M771.189,-1991.99C822.859,-1980.35 893.205,-1965.94 956,-1958 1153.55,-1933.02 1382.78,-1923.63 1532.7,-1920.1"/>
<polygon fill="grey" stroke="grey" stroke-width="2" points="1532.99,-1923.6 1542.9,-1919.87 1532.82,-1916.6 1532.99,-1923.6"/>
</g>
<!-- 53&#45;&gt;18 -->
<g id="edge68" class="edge"><title>53&#45;&gt;18</title>
<path fill="none" stroke="grey" stroke-width="2" d="M779.184,-2028.02C830.093,-2038.7 896.64,-2052.05 956,-2062 982.512,-2066.44 1010.78,-2070.69 1038.2,-2074.56"/>
<polygon fill="grey" stroke="grey" stroke-width="2" points="1037.87,-2078.05 1048.26,-2075.97 1038.84,-2071.12 1037.87,-2078.05"/>
</g>
<!-- 53&#45;&gt;19 -->
<g id="edge69" class="edge"><title>53&#45;&gt;19</title>
<path fill="none" stroke="grey" stroke-width="2" d="M841.652,-2017.88C1027.55,-2027.94 1347.81,-2045.27 1538.37,-2055.58"/>
<polygon fill="grey" stroke="grey" stroke-width="2" points="1538.3,-2059.08 1548.47,-2056.13 1538.67,-2052.09 1538.3,-2059.08"/>
</g>
<!-- 53&#45;&gt;37 -->
<g id="edge96" class="edge"><title>53&#45;&gt;37</title>
<path fill="none" stroke="grey" stroke-width="2" d="M841.636,-2003.18C1127.61,-1989.8 1757.94,-1960.3 2025.26,-1947.79"/>
<polygon fill="grey" stroke="grey" stroke-width="2" points="2025.57,-1951.28 2035.39,-1947.32 2025.24,-1944.29 2025.57,-1951.28"/>
</g>
<!-- 53&#45;&gt;41 -->
<g id="edge101" class="edge"><title>53&#45;&gt;41</title>
<path fill="none" stroke="grey" stroke-width="2" d="M841.652,-2010C1038.74,-2010 1386.87,-2010 1571.33,-2010"/>
<polygon fill="grey" stroke="grey" stroke-width="2" points="1571.34,-2013.5 1581.34,-2010 1571.34,-2006.5 1571.34,-2013.5"/>
</g>
<!-- 54 -->
<g id="node55" class="node"><title>54</title>
<path fill="none" stroke="#56d87b" stroke-width="2" stroke-dasharray="5,2" d="M908,-983C908,-983 482,-983 482,-983 476,-983 470,-977 470,-971 470,-971 470,-959 470,-959 470,-953 476,-947 482,-947 482,-947 908,-947 908,-947 914,-947 920,-953 920,-959 920,-959 920,-971 920,-971 920,-977 914,-983 908,-983"/>
<text text-anchor="middle" x="695" y="-962.5" font-family="sans" font-size="10.00">Scripts_MultiOmics_Proteomics_Aberrant_Expression_PROTRIDER_protrider_data_prep_R</text>
</g>
<!-- 54&#45;&gt;49 -->
<g id="edge112" class="edge"><title>54&#45;&gt;49</title>
<path fill="none" stroke="grey" stroke-width="2" d="M705.428,-946.934C734.436,-893.416 828.18,-735.191 956,-667 1150.48,-563.249 1414.02,-558.777 1567.86,-567.287"/>
<polygon fill="grey" stroke="grey" stroke-width="2" points="1568.1,-570.807 1578.29,-567.893 1568.51,-563.819 1568.1,-570.807"/>
</g>
<!-- 54&#45;&gt;50 -->
<g id="edge114" class="edge"><title>54&#45;&gt;50</title>
<path fill="none" stroke="grey" stroke-width="2" d="M722.317,-983.04C805.537,-1040.09 1063.04,-1216.6 1157.12,-1281.09"/>
<polygon fill="grey" stroke="grey" stroke-width="2" points="1155.22,-1284.03 1165.45,-1286.8 1159.18,-1278.26 1155.22,-1284.03"/>
</g>
<!-- 55 -->
<g id="node56" class="node"><title>55</title>
<path fill="none" stroke="#56d892" stroke-width="2" stroke-dasharray="5,2" d="M422,-983C422,-983 12,-983 12,-983 6,-983 0,-977 0,-971 0,-971 0,-959 0,-959 0,-953 6,-947 12,-947 12,-947 422,-947 422,-947 428,-947 434,-953 434,-959 434,-959 434,-971 434,-971 434,-977 428,-983 422,-983"/>
<text text-anchor="middle" x="217" y="-962.5" font-family="sans" font-size="10.00">Scripts_MultiOmics_Proteomics_Aberrant_Expression_PROTRIDER_data_imputation_R</text>
</g>
<!-- 55&#45;&gt;54 -->
<g id="edge116" class="edge"><title>55&#45;&gt;54</title>
<path fill="none" stroke="grey" stroke-width="2" d="M434.064,-965C442.632,-965 451.238,-965 459.838,-965"/>
<polygon fill="grey" stroke="grey" stroke-width="2" points="459.927,-968.5 469.927,-965 459.927,-961.5 459.927,-968.5"/>
</g>
</g>
</svg>
