<?xml version="1.0" encoding="UTF-8" standalone="no"?>
<!DOCTYPE svg PUBLIC "-//W3C//DTD SVG 1.1//EN"
 "http://www.w3.org/Graphics/SVG/1.1/DTD/svg11.dtd">
<!-- Generated by graphviz version 2.30.1 (20200930.0103)
 -->
<!-- Title: snakemake_dag Pages: 1 -->
<svg width="2336pt" height="2306pt"
 viewBox="0.00 0.00 2336.00 2306.00" xmlns="http://www.w3.org/2000/svg" xmlns:xlink="http://www.w3.org/1999/xlink">
<g id="graph0" class="graph" transform="scale(1 1) rotate(0) translate(4 2302)">
<title>snakemake_dag</title>
<polygon fill="white" stroke="white" points="-4,5 -4,-2302 2333,-2302 2333,5 -4,5"/>
<!-- 0 -->
<g id="node1" class="node"><title>0</title>
<path fill="none" stroke="#56d8d0" stroke-width="2" d="M42,-842C42,-842 12,-842 12,-842 6,-842 0,-836 0,-830 0,-830 0,-818 0,-818 0,-812 6,-806 12,-806 12,-806 42,-806 42,-806 48,-806 54,-812 54,-818 54,-818 54,-830 54,-830 54,-836 48,-842 42,-842"/>
<text text-anchor="middle" x="27" y="-821.5" font-family="sans" font-size="10.00">all</text>
</g>
<!-- 1 -->
<g id="node2" class="node"><title>1</title>
<path fill="none" stroke="#d6d856" stroke-width="2" d="M132,-1149C132,-1149 102,-1149 102,-1149 96,-1149 90,-1143 90,-1137 90,-1137 90,-1125 90,-1125 90,-1119 96,-1113 102,-1113 102,-1113 132,-1113 132,-1113 138,-1113 144,-1119 144,-1125 144,-1125 144,-1137 144,-1137 144,-1143 138,-1149 132,-1149"/>
<text text-anchor="middle" x="117" y="-1128.5" font-family="sans" font-size="10.00">Index</text>
</g>
<!-- 1&#45;&gt;0 -->
<g id="edge1" class="edge"><title>1&#45;&gt;0</title>
<path fill="none" stroke="grey" stroke-width="2" d="M110.759,-1112.72C95.963,-1061.1 53.7996,-914.005 36.0408,-852.052"/>
<polygon fill="grey" stroke="grey" points="39.3339,-850.837 33.2138,-842.189 32.6048,-852.766 39.3339,-850.837"/>
</g>
<!-- 2 -->
<g id="node3" class="node"><title>2</title>
<path fill="none" stroke="#d89556" stroke-width="2" d="M1809.5,-229C1809.5,-229 1514.5,-229 1514.5,-229 1508.5,-229 1502.5,-223 1502.5,-217 1502.5,-217 1502.5,-205 1502.5,-205 1502.5,-199 1508.5,-193 1514.5,-193 1514.5,-193 1809.5,-193 1809.5,-193 1815.5,-193 1821.5,-199 1821.5,-205 1821.5,-205 1821.5,-217 1821.5,-217 1821.5,-223 1815.5,-229 1809.5,-229"/>
<text text-anchor="middle" x="1662" y="-208.5" font-family="sans" font-size="10.00">MultiOmics_HPO_phenotype_Compare_HPOmatch_SemSim_R</text>
</g>
<!-- 2&#45;&gt;1 -->
<g id="edge8" class="edge"><title>2&#45;&gt;1</title>
<path fill="none" stroke="grey" stroke-width="2" d="M1502.25,-207.764C1129.75,-200.936 227.328,-189.138 180,-234 115.545,-295.097 116.69,-956.408 117.739,-1102.53"/>
<polygon fill="grey" stroke="grey" points="114.242,-1102.91 117.82,-1112.88 121.242,-1102.86 114.242,-1102.91"/>
</g>
<!-- 11 -->
<g id="node12" class="node"><title>11</title>
<path fill="none" stroke="#56b9d8" stroke-width="2" d="M1299,-967C1299,-967 1097,-967 1097,-967 1091,-967 1085,-961 1085,-955 1085,-955 1085,-943 1085,-943 1085,-937 1091,-931 1097,-931 1097,-931 1299,-931 1299,-931 1305,-931 1311,-937 1311,-943 1311,-943 1311,-955 1311,-955 1311,-961 1305,-967 1299,-967"/>
<text text-anchor="middle" x="1198" y="-946.5" font-family="sans" font-size="10.00">MultiOmics_Integration_integrate_omics_R</text>
</g>
<!-- 2&#45;&gt;11 -->
<g id="edge62" class="edge"><title>2&#45;&gt;11</title>
<path fill="none" stroke="grey" stroke-width="2" d="M1649.58,-229.243C1587.42,-328.538 1289.91,-803.776 1215.77,-922.217"/>
<polygon fill="grey" stroke="grey" points="1212.77,-920.401 1210.43,-930.734 1218.71,-924.115 1212.77,-920.401"/>
</g>
<!-- 3 -->
<g id="node4" class="node"><title>3</title>
<path fill="none" stroke="#5663d8" stroke-width="2" d="M2224.5,-256C2224.5,-256 2019.5,-256 2019.5,-256 2013.5,-256 2007.5,-250 2007.5,-244 2007.5,-244 2007.5,-232 2007.5,-232 2007.5,-226 2013.5,-220 2019.5,-220 2019.5,-220 2224.5,-220 2224.5,-220 2230.5,-220 2236.5,-226 2236.5,-232 2236.5,-232 2236.5,-244 2236.5,-244 2236.5,-250 2230.5,-256 2224.5,-256"/>
<text text-anchor="middle" x="2122" y="-235.5" font-family="sans" font-size="10.00">MultiOmics_HPO_phenotype_HPO_match_R</text>
</g>
<!-- 3&#45;&gt;1 -->
<g id="edge52" class="edge"><title>3&#45;&gt;1</title>
<path fill="none" stroke="grey" stroke-width="2" d="M2007.21,-238.622C1594.09,-241.005 196.701,-250.227 180,-266 117.859,-324.688 117.177,-959.885 117.816,-1102.63"/>
<polygon fill="grey" stroke="grey" points="114.317,-1102.78 117.867,-1112.77 121.316,-1102.75 114.317,-1102.78"/>
</g>
<!-- 3&#45;&gt;2 -->
<g id="edge54" class="edge"><title>3&#45;&gt;2</title>
<path fill="none" stroke="grey" stroke-width="2" d="M2007.49,-231.309C1954.53,-228.186 1890.4,-224.406 1831.9,-220.957"/>
<polygon fill="grey" stroke="grey" points="1831.99,-217.457 1821.81,-220.362 1831.58,-224.444 1831.99,-217.457"/>
</g>
<!-- 4 -->
<g id="node5" class="node"><title>4</title>
<path fill="none" stroke="#d8b456" stroke-width="2" d="M2244.5,-193C2244.5,-193 1999.5,-193 1999.5,-193 1993.5,-193 1987.5,-187 1987.5,-181 1987.5,-181 1987.5,-169 1987.5,-169 1987.5,-163 1993.5,-157 1999.5,-157 1999.5,-157 2244.5,-157 2244.5,-157 2250.5,-157 2256.5,-163 2256.5,-169 2256.5,-169 2256.5,-181 2256.5,-181 2256.5,-187 2250.5,-193 2244.5,-193"/>
<text text-anchor="middle" x="2122" y="-172.5" font-family="sans" font-size="10.00">MultiOmics_HPO_phenotype_Semantic_similarity_R</text>
</g>
<!-- 4&#45;&gt;1 -->
<g id="edge11" class="edge"><title>4&#45;&gt;1</title>
<path fill="none" stroke="grey" stroke-width="2" d="M1987.44,-171.807C1559.36,-162.21 245.469,-137.95 180,-200 112.899,-263.597 116.169,-954.111 117.663,-1102.87"/>
<polygon fill="grey" stroke="grey" points="114.165,-1103.04 117.771,-1113 121.164,-1102.96 114.165,-1103.04"/>
</g>
<!-- 4&#45;&gt;2 -->
<g id="edge55" class="edge"><title>4&#45;&gt;2</title>
<path fill="none" stroke="grey" stroke-width="2" d="M1987.3,-185.509C1938.66,-189.333 1883.04,-193.705 1831.75,-197.736"/>
<polygon fill="grey" stroke="grey" points="1831.25,-194.264 1821.56,-198.537 1831.8,-201.242 1831.25,-194.264"/>
</g>
<!-- 5 -->
<g id="node6" class="node"><title>5</title>
<path fill="none" stroke="#56d892" stroke-width="2" d="M390.5,-36C390.5,-36 339.5,-36 339.5,-36 333.5,-36 327.5,-30 327.5,-24 327.5,-24 327.5,-12 327.5,-12 327.5,-6 333.5,-0 339.5,-0 339.5,-0 390.5,-0 390.5,-0 396.5,-0 402.5,-6 402.5,-12 402.5,-12 402.5,-24 402.5,-24 402.5,-30 396.5,-36 390.5,-36"/>
<text text-anchor="middle" x="365" y="-15.5" font-family="sans" font-size="10.00">readme_md</text>
</g>
<!-- 5&#45;&gt;0 -->
<g id="edge2" class="edge"><title>5&#45;&gt;0</title>
<path fill="none" stroke="grey" stroke-width="2" d="M327.263,-12.0649C285.825,-7.6302 219.128,-7.66886 180,-45 68.2317,-151.635 35.6471,-669.047 29.2787,-795.887"/>
<polygon fill="grey" stroke="grey" points="25.7787,-795.804 28.7874,-805.962 32.7704,-796.145 25.7787,-795.804"/>
</g>
<!-- 5&#45;&gt;1 -->
<g id="edge33" class="edge"><title>5&#45;&gt;1</title>
<path fill="none" stroke="grey" stroke-width="2" d="M327.454,-11.2879C285.225,-5.87251 216.835,-4.74514 180,-45 170.79,-55.065 127.656,-932.535 119.376,-1102.63"/>
<polygon fill="grey" stroke="grey" points="115.872,-1102.63 118.882,-1112.79 122.864,-1102.97 115.872,-1102.63"/>
</g>
<!-- 6 -->
<g id="node7" class="node"><title>6</title>
<path fill="none" stroke="#a7d856" stroke-width="2" d="M888,-902C888,-902 650,-902 650,-902 644,-902 638,-896 638,-890 638,-890 638,-878 638,-878 638,-872 644,-866 650,-866 650,-866 888,-866 888,-866 894,-866 900,-872 900,-878 900,-878 900,-890 900,-890 900,-896 894,-902 888,-902"/>
<text text-anchor="middle" x="769" y="-881.5" font-family="sans" font-size="10.00">MultiOmics_HPO_phenotype_Organ_involvment_R</text>
</g>
<!-- 6&#45;&gt;1 -->
<g id="edge18" class="edge"><title>6&#45;&gt;1</title>
<path fill="none" stroke="grey" stroke-width="2" d="M637.849,-891.633C470.075,-902.005 197.63,-920.875 180,-935 128.904,-975.939 119.201,-1058.86 117.805,-1102.56"/>
<polygon fill="grey" stroke="grey" points="114.301,-1102.72 117.609,-1112.78 121.3,-1102.85 114.301,-1102.72"/>
</g>
<!-- 33 -->
<g id="node34" class="node"><title>33</title>
<path fill="none" stroke="#56d863" stroke-width="2" d="M447,-888C447,-888 283,-888 283,-888 277,-888 271,-882 271,-876 271,-876 271,-864 271,-864 271,-858 277,-852 283,-852 283,-852 447,-852 447,-852 453,-852 459,-858 459,-864 459,-864 459,-876 459,-876 459,-882 453,-888 447,-888"/>
<text text-anchor="middle" x="365" y="-867.5" font-family="sans" font-size="10.00">Paper_figures_Figure2_b_EPG5_p_R</text>
</g>
<!-- 6&#45;&gt;33 -->
<g id="edge86" class="edge"><title>6&#45;&gt;33</title>
<path fill="none" stroke="grey" stroke-width="2" d="M637.76,-879.464C583.151,-877.562 520.555,-875.382 469.213,-873.594"/>
<polygon fill="grey" stroke="grey" points="469.216,-870.093 459.1,-873.242 468.972,-877.088 469.216,-870.093"/>
</g>
<!-- 34 -->
<g id="node35" class="node"><title>34</title>
<path fill="none" stroke="#d8cb56" stroke-width="2" d="M471,-834C471,-834 259,-834 259,-834 253,-834 247,-828 247,-822 247,-822 247,-810 247,-810 247,-804 253,-798 259,-798 259,-798 471,-798 471,-798 477,-798 483,-804 483,-810 483,-810 483,-822 483,-822 483,-828 477,-834 471,-834"/>
<text text-anchor="middle" x="365" y="-813.5" font-family="sans" font-size="10.00">Paper_figures_Figure2_c_MORC2_dominant_R</text>
</g>
<!-- 6&#45;&gt;34 -->
<g id="edge88" class="edge"><title>6&#45;&gt;34</title>
<path fill="none" stroke="grey" stroke-width="2" d="M676.662,-865.975C637.696,-858.506 591.686,-849.976 550,-843 531.696,-839.937 512.335,-836.888 493.315,-834.002"/>
<polygon fill="grey" stroke="grey" points="493.818,-830.538 483.408,-832.508 492.774,-837.46 493.818,-830.538"/>
</g>
<!-- 35 -->
<g id="node36" class="node"><title>35</title>
<path fill="none" stroke="#d8ac56" stroke-width="2" d="M452.5,-780C452.5,-780 277.5,-780 277.5,-780 271.5,-780 265.5,-774 265.5,-768 265.5,-768 265.5,-756 265.5,-756 265.5,-750 271.5,-744 277.5,-744 277.5,-744 452.5,-744 452.5,-744 458.5,-744 464.5,-750 464.5,-756 464.5,-756 464.5,-768 464.5,-768 464.5,-774 458.5,-780 452.5,-780"/>
<text text-anchor="middle" x="365" y="-759.5" font-family="sans" font-size="10.00">Paper_figures_Figure2_d_DARS2_rp_R</text>
</g>
<!-- 6&#45;&gt;35 -->
<g id="edge90" class="edge"><title>6&#45;&gt;35</title>
<path fill="none" stroke="grey" stroke-width="2" d="M734.31,-865.95C692.344,-844.268 617.88,-808.397 550,-789 526.126,-782.178 499.991,-777.018 475.107,-773.137"/>
<polygon fill="grey" stroke="grey" points="475.312,-769.629 464.903,-771.605 474.272,-776.551 475.312,-769.629"/>
</g>
<!-- 36 -->
<g id="node37" class="node"><title>36</title>
<path fill="none" stroke="#d86e56" stroke-width="2" d="M479,-726C479,-726 251,-726 251,-726 245,-726 239,-720 239,-714 239,-714 239,-702 239,-702 239,-696 245,-690 251,-690 251,-690 479,-690 479,-690 485,-690 491,-696 491,-702 491,-702 491,-714 491,-714 491,-720 485,-726 479,-726"/>
<text text-anchor="middle" x="365" y="-705.5" font-family="sans" font-size="10.00">Paper_figures_Figure2_e_MRPS25_rp_complex_R</text>
</g>
<!-- 6&#45;&gt;36 -->
<g id="edge92" class="edge"><title>6&#45;&gt;36</title>
<path fill="none" stroke="grey" stroke-width="2" d="M748.463,-865.973C712.338,-833.778 631.337,-766.794 550,-735 534.541,-728.957 517.87,-724.252 501.097,-720.592"/>
<polygon fill="grey" stroke="grey" points="501.72,-717.147 491.219,-718.555 500.306,-724.003 501.72,-717.147"/>
</g>
<!-- 37 -->
<g id="node38" class="node"><title>37</title>
<path fill="none" stroke="#568ad8" stroke-width="2" d="M447.5,-1034C447.5,-1034 282.5,-1034 282.5,-1034 276.5,-1034 270.5,-1028 270.5,-1022 270.5,-1022 270.5,-1010 270.5,-1010 270.5,-1004 276.5,-998 282.5,-998 282.5,-998 447.5,-998 447.5,-998 453.5,-998 459.5,-1004 459.5,-1010 459.5,-1010 459.5,-1022 459.5,-1022 459.5,-1028 453.5,-1034 447.5,-1034"/>
<text text-anchor="middle" x="365" y="-1013.5" font-family="sans" font-size="10.00">Paper_figures_Figure3_a_MRPL38_R</text>
</g>
<!-- 6&#45;&gt;37 -->
<g id="edge94" class="edge"><title>6&#45;&gt;37</title>
<path fill="none" stroke="grey" stroke-width="2" d="M702.663,-902.034C666.58,-913.692 621.929,-931.009 586,-954 567.204,-966.028 570.011,-979.123 550,-989 525.375,-1001.15 496.802,-1008.21 469.623,-1012.22"/>
<polygon fill="grey" stroke="grey" points="469.124,-1008.76 459.682,-1013.56 470.061,-1015.69 469.124,-1008.76"/>
</g>
<!-- 39 -->
<g id="node40" class="node"><title>39</title>
<path fill="none" stroke="#d87d56" stroke-width="2" d="M439.5,-980C439.5,-980 290.5,-980 290.5,-980 284.5,-980 278.5,-974 278.5,-968 278.5,-968 278.5,-956 278.5,-956 278.5,-950 284.5,-944 290.5,-944 290.5,-944 439.5,-944 439.5,-944 445.5,-944 451.5,-950 451.5,-956 451.5,-956 451.5,-968 451.5,-968 451.5,-974 445.5,-980 439.5,-980"/>
<text text-anchor="middle" x="365" y="-959.5" font-family="sans" font-size="10.00">Paper_figures_Figure3_e_LIG3_R</text>
</g>
<!-- 6&#45;&gt;39 -->
<g id="edge98" class="edge"><title>6&#45;&gt;39</title>
<path fill="none" stroke="grey" stroke-width="2" d="M645.859,-902.056C625.71,-906.01 605.157,-910.647 586,-916 569.466,-920.62 566.538,-925.395 550,-930 521.639,-937.896 490.251,-944.216 461.549,-949.086"/>
<polygon fill="grey" stroke="grey" points="460.812,-945.66 451.519,-950.748 461.957,-952.566 460.812,-945.66"/>
</g>
<!-- 41 -->
<g id="node42" class="node"><title>41</title>
<path fill="none" stroke="#56c1d8" stroke-width="2" d="M449.5,-1126C449.5,-1126 280.5,-1126 280.5,-1126 274.5,-1126 268.5,-1120 268.5,-1114 268.5,-1114 268.5,-1102 268.5,-1102 268.5,-1096 274.5,-1090 280.5,-1090 280.5,-1090 449.5,-1090 449.5,-1090 455.5,-1090 461.5,-1096 461.5,-1102 461.5,-1102 461.5,-1114 461.5,-1114 461.5,-1120 455.5,-1126 449.5,-1126"/>
<text text-anchor="middle" x="365" y="-1105.5" font-family="sans" font-size="10.00">Patient_analysis_Patient_analysis_R</text>
</g>
<!-- 6&#45;&gt;41 -->
<g id="edge102" class="edge"><title>6&#45;&gt;41</title>
<path fill="none" stroke="grey" stroke-width="2" d="M722.926,-902.073C683.494,-919.505 626.37,-948.843 586,-987 564.497,-1007.32 573.201,-1024.64 550,-1043 524.83,-1062.92 493.088,-1077 463.086,-1086.83"/>
<polygon fill="grey" stroke="grey" points="461.903,-1083.53 453.416,-1089.88 464.006,-1090.21 461.903,-1083.53"/>
</g>
<!-- 7 -->
<g id="node8" class="node"><title>7</title>
<path fill="none" stroke="#56d892" stroke-width="2" d="M481.5,-1554C481.5,-1554 248.5,-1554 248.5,-1554 242.5,-1554 236.5,-1548 236.5,-1542 236.5,-1542 236.5,-1530 236.5,-1530 236.5,-1524 242.5,-1518 248.5,-1518 248.5,-1518 481.5,-1518 481.5,-1518 487.5,-1518 493.5,-1524 493.5,-1530 493.5,-1530 493.5,-1542 493.5,-1542 493.5,-1548 487.5,-1554 481.5,-1554"/>
<text text-anchor="middle" x="365" y="-1533.5" font-family="sans" font-size="10.00">MultiOmics_Integration_RNA_proteome_match_R</text>
</g>
<!-- 7&#45;&gt;1 -->
<g id="edge34" class="edge"><title>7&#45;&gt;1</title>
<path fill="none" stroke="grey" stroke-width="2" d="M236.237,-1534.64C215.2,-1528.96 195.304,-1519.42 180,-1504 131.747,-1455.39 120.964,-1238.17 118.626,-1159.53"/>
<polygon fill="grey" stroke="grey" points="122.121,-1159.29 118.349,-1149.39 115.123,-1159.48 122.121,-1159.29"/>
</g>
<!-- 8 -->
<g id="node9" class="node"><title>8</title>
<path fill="none" stroke="#d8c356" stroke-width="2" d="M1829.5,-1783C1829.5,-1783 1494.5,-1783 1494.5,-1783 1488.5,-1783 1482.5,-1777 1482.5,-1771 1482.5,-1771 1482.5,-1759 1482.5,-1759 1482.5,-1753 1488.5,-1747 1494.5,-1747 1494.5,-1747 1829.5,-1747 1829.5,-1747 1835.5,-1747 1841.5,-1753 1841.5,-1759 1841.5,-1759 1841.5,-1771 1841.5,-1771 1841.5,-1777 1835.5,-1783 1829.5,-1783"/>
<text text-anchor="middle" x="1662" y="-1762.5" font-family="sans" font-size="10.00">MultiOmics_RNA_seq_Aberrant_Expression_detect_outliers_outrider_R</text>
</g>
<!-- 8&#45;&gt;1 -->
<g id="edge12" class="edge"><title>8&#45;&gt;1</title>
<path fill="none" stroke="grey" stroke-width="2" d="M1482.22,-1768.9C1098.54,-1776.41 226.989,-1788.55 180,-1745 136.512,-1704.7 121.875,-1275.02 118.71,-1159.47"/>
<polygon fill="grey" stroke="grey" points="122.204,-1159.2 118.439,-1149.29 115.206,-1159.38 122.204,-1159.2"/>
</g>
<!-- 8&#45;&gt;7 -->
<g id="edge56" class="edge"><title>8&#45;&gt;7</title>
<path fill="none" stroke="grey" stroke-width="2" d="M1639.77,-1746.97C1598.39,-1713.04 1502.67,-1640.35 1408,-1610 1243.6,-1557.29 747.394,-1542.05 503.85,-1537.7"/>
<polygon fill="grey" stroke="grey" points="503.573,-1534.2 493.513,-1537.52 503.45,-1541.2 503.573,-1534.2"/>
</g>
<!-- 8&#45;&gt;11 -->
<g id="edge60" class="edge"><title>8&#45;&gt;11</title>
<path fill="none" stroke="grey" stroke-width="2" d="M1644.04,-1746.92C1605.04,-1704.67 1507.46,-1595.16 1444,-1491 1330.91,-1305.37 1238.15,-1058.56 1208.75,-976.69"/>
<polygon fill="grey" stroke="grey" points="1211.99,-975.348 1205.33,-967.107 1205.4,-977.702 1211.99,-975.348"/>
</g>
<!-- 23 -->
<g id="node24" class="node"><title>23</title>
<path fill="none" stroke="#565bd8" stroke-width="2" d="M1351,-1829C1351,-1829 1045,-1829 1045,-1829 1039,-1829 1033,-1823 1033,-1817 1033,-1817 1033,-1805 1033,-1805 1033,-1799 1039,-1793 1045,-1793 1045,-1793 1351,-1793 1351,-1793 1357,-1793 1363,-1799 1363,-1805 1363,-1805 1363,-1817 1363,-1817 1363,-1823 1357,-1829 1351,-1829"/>
<text text-anchor="middle" x="1198" y="-1808.5" font-family="sans" font-size="10.00">MultiOmics_RNA_seq_Aberrant_Expression_OutriderSummary_R</text>
</g>
<!-- 8&#45;&gt;23 -->
<g id="edge74" class="edge"><title>8&#45;&gt;23</title>
<path fill="none" stroke="grey" stroke-width="2" d="M1482.38,-1782.78C1446.52,-1786.36 1408.88,-1790.1 1373.18,-1793.66"/>
<polygon fill="grey" stroke="grey" points="1372.76,-1790.18 1363.16,-1794.66 1373.46,-1797.15 1372.76,-1790.18"/>
</g>
<!-- 24 -->
<g id="node25" class="node"><title>24</title>
<path fill="none" stroke="#59d856" stroke-width="2" d="M1313,-1921C1313,-1921 1083,-1921 1083,-1921 1077,-1921 1071,-1915 1071,-1909 1071,-1909 1071,-1897 1071,-1897 1071,-1891 1077,-1885 1083,-1885 1083,-1885 1313,-1885 1313,-1885 1319,-1885 1325,-1891 1325,-1897 1325,-1897 1325,-1909 1325,-1909 1325,-1915 1319,-1921 1313,-1921"/>
<text text-anchor="middle" x="1198" y="-1900.5" font-family="sans" font-size="10.00">MultiOmics_RNA_seq_disease_gene_coverage_R</text>
</g>
<!-- 8&#45;&gt;24 -->
<g id="edge75" class="edge"><title>8&#45;&gt;24</title>
<path fill="none" stroke="grey" stroke-width="2" d="M1600.6,-1783.04C1515.17,-1808.56 1359.41,-1855.09 1269.03,-1882.08"/>
<polygon fill="grey" stroke="grey" points="1267.99,-1878.74 1259.41,-1884.95 1270,-1885.45 1267.99,-1878.74"/>
</g>
<!-- 53 -->
<g id="node54" class="node"><title>53</title>
<path fill="none" stroke="#56d88a" stroke-width="2" d="M903.5,-1746C903.5,-1746 634.5,-1746 634.5,-1746 628.5,-1746 622.5,-1740 622.5,-1734 622.5,-1734 622.5,-1722 622.5,-1722 622.5,-1716 628.5,-1710 634.5,-1710 634.5,-1710 903.5,-1710 903.5,-1710 909.5,-1710 915.5,-1716 915.5,-1722 915.5,-1722 915.5,-1734 915.5,-1734 915.5,-1740 909.5,-1746 903.5,-1746"/>
<text text-anchor="middle" x="769" y="-1725.5" font-family="sans" font-size="10.00">Supplementary_figures_S_Fig2_a_outliers_per_sample_R</text>
</g>
<!-- 8&#45;&gt;53 -->
<g id="edge120" class="edge"><title>8&#45;&gt;53</title>
<path fill="none" stroke="grey" stroke-width="2" d="M1482.37,-1754.69C1457.4,-1753.37 1432.06,-1752.1 1408,-1751 1243.6,-1743.49 1055.29,-1736.95 926.097,-1732.79"/>
<polygon fill="grey" stroke="grey" points="925.84,-1729.28 915.733,-1732.46 925.615,-1736.28 925.84,-1729.28"/>
</g>
<!-- 9 -->
<g id="node10" class="node"><title>9</title>
<path fill="none" stroke="#56c9d8" stroke-width="2" d="M2237.5,-1975C2237.5,-1975 2006.5,-1975 2006.5,-1975 2000.5,-1975 1994.5,-1969 1994.5,-1963 1994.5,-1963 1994.5,-1951 1994.5,-1951 1994.5,-1945 2000.5,-1939 2006.5,-1939 2006.5,-1939 2237.5,-1939 2237.5,-1939 2243.5,-1939 2249.5,-1945 2249.5,-1951 2249.5,-1951 2249.5,-1963 2249.5,-1963 2249.5,-1969 2243.5,-1975 2237.5,-1975"/>
<text text-anchor="middle" x="2122" y="-1954.5" font-family="sans" font-size="10.00">MultiOmics_RNA_seq_create_gene_annotation_R</text>
</g>
<!-- 9&#45;&gt;8 -->
<g id="edge58" class="edge"><title>9&#45;&gt;8</title>
<path fill="none" stroke="grey" stroke-width="2" d="M2091.1,-1938.8C2046.42,-1912.19 1959.02,-1862.3 1880,-1830 1836.69,-1812.3 1786.78,-1797.01 1745.74,-1785.72"/>
<polygon fill="grey" stroke="grey" points="1746.62,-1782.33 1736.05,-1783.08 1744.78,-1789.09 1746.62,-1782.33"/>
</g>
<!-- 22 -->
<g id="node23" class="node"><title>22</title>
<path fill="none" stroke="#d8a456" stroke-width="2" d="M1319,-1975C1319,-1975 1077,-1975 1077,-1975 1071,-1975 1065,-1969 1065,-1963 1065,-1963 1065,-1951 1065,-1951 1065,-1945 1071,-1939 1077,-1939 1077,-1939 1319,-1939 1319,-1939 1325,-1939 1331,-1945 1331,-1951 1331,-1951 1331,-1963 1331,-1963 1331,-1969 1325,-1975 1319,-1975"/>
<text text-anchor="middle" x="1198" y="-1954.5" font-family="sans" font-size="10.00">MultiOmics_Proteomics_disease_gene_coverage_R</text>
</g>
<!-- 9&#45;&gt;22 -->
<g id="edge73" class="edge"><title>9&#45;&gt;22</title>
<path fill="none" stroke="grey" stroke-width="2" d="M1994.25,-1957C1823.33,-1957 1519.85,-1957 1341.29,-1957"/>
<polygon fill="grey" stroke="grey" points="1341.04,-1953.5 1331.04,-1957 1341.04,-1960.5 1341.04,-1953.5"/>
</g>
<!-- 9&#45;&gt;24 -->
<g id="edge76" class="edge"><title>9&#45;&gt;24</title>
<path fill="none" stroke="grey" stroke-width="2" d="M1994.25,-1949.58C1821.39,-1939.45 1512.95,-1921.39 1335.27,-1910.98"/>
<polygon fill="grey" stroke="grey" points="1335.26,-1907.47 1325.07,-1910.38 1334.85,-1914.46 1335.26,-1907.47"/>
</g>
<!-- 42 -->
<g id="node43" class="node"><title>42</title>
<path fill="none" stroke="#88d856" stroke-width="2" d="M852.5,-2006C852.5,-2006 685.5,-2006 685.5,-2006 679.5,-2006 673.5,-2000 673.5,-1994 673.5,-1994 673.5,-1982 673.5,-1982 673.5,-1976 679.5,-1970 685.5,-1970 685.5,-1970 852.5,-1970 852.5,-1970 858.5,-1970 864.5,-1976 864.5,-1982 864.5,-1982 864.5,-1994 864.5,-1994 864.5,-2000 858.5,-2006 852.5,-2006"/>
<text text-anchor="middle" x="769" y="-1985.5" font-family="sans" font-size="10.00">Patient_analysis_detected_genes_R</text>
</g>
<!-- 9&#45;&gt;42 -->
<g id="edge107" class="edge"><title>9&#45;&gt;42</title>
<path fill="none" stroke="grey" stroke-width="2" d="M1994.4,-1965.08C1957.52,-1967.24 1917.16,-1969.41 1880,-1971 1510.7,-1986.81 1071.73,-1988.47 874.763,-1988.31"/>
<polygon fill="grey" stroke="grey" points="874.713,-1984.81 864.71,-1988.3 874.706,-1991.81 874.713,-1984.81"/>
</g>
<!-- 43 -->
<g id="node44" class="node"><title>43</title>
<path fill="none" stroke="#56a2d8" stroke-width="2" d="M1323.5,-2067C1323.5,-2067 1072.5,-2067 1072.5,-2067 1066.5,-2067 1060.5,-2061 1060.5,-2055 1060.5,-2055 1060.5,-2043 1060.5,-2043 1060.5,-2037 1066.5,-2031 1072.5,-2031 1072.5,-2031 1323.5,-2031 1323.5,-2031 1329.5,-2031 1335.5,-2037 1335.5,-2043 1335.5,-2043 1335.5,-2055 1335.5,-2055 1335.5,-2061 1329.5,-2067 1323.5,-2067"/>
<text text-anchor="middle" x="1198" y="-2046.5" font-family="sans" font-size="10.00">Supplementary_figures_S_Fig1_e_gtex_proteomics_R</text>
</g>
<!-- 9&#45;&gt;43 -->
<g id="edge109" class="edge"><title>9&#45;&gt;43</title>
<path fill="none" stroke="grey" stroke-width="2" d="M2062.22,-1975.09C2013.82,-1989.14 1943.14,-2007.75 1880,-2017 1697.34,-2043.76 1484.47,-2049.79 1346,-2050.42"/>
<polygon fill="grey" stroke="grey" points="1345.73,-2046.92 1335.75,-2050.46 1345.76,-2053.92 1345.73,-2046.92"/>
</g>
<!-- 10 -->
<g id="node11" class="node"><title>10</title>
<path fill="none" stroke="#70d856" stroke-width="2" d="M887,-1470C887,-1470 651,-1470 651,-1470 645,-1470 639,-1464 639,-1458 639,-1458 639,-1446 639,-1446 639,-1440 645,-1434 651,-1434 651,-1434 887,-1434 887,-1434 893,-1434 899,-1440 899,-1446 899,-1446 899,-1458 899,-1458 899,-1464 893,-1470 887,-1470"/>
<text text-anchor="middle" x="769" y="-1449.5" font-family="sans" font-size="10.00">MultiOmics_Integration_rna_protein_correlation_R</text>
</g>
<!-- 10&#45;&gt;1 -->
<g id="edge24" class="edge"><title>10&#45;&gt;1</title>
<path fill="none" stroke="grey" stroke-width="2" d="M638.914,-1456.15C476.395,-1460.1 214.168,-1461.8 180,-1433 138.335,-1397.88 123.727,-1227.59 119.492,-1159.36"/>
<polygon fill="grey" stroke="grey" points="122.983,-1159.1 118.899,-1149.32 115.995,-1159.51 122.983,-1159.1"/>
</g>
<!-- 10&#45;&gt;7 -->
<g id="edge57" class="edge"><title>10&#45;&gt;7</title>
<path fill="none" stroke="grey" stroke-width="2" d="M638.943,-1469.41C621.106,-1472.32 603.061,-1475.53 586,-1479 536.318,-1489.09 481.085,-1503.41 438.39,-1515.17"/>
<polygon fill="grey" stroke="grey" points="437.352,-1511.83 428.65,-1517.87 439.222,-1518.58 437.352,-1511.83"/>
</g>
<!-- 11&#45;&gt;1 -->
<g id="edge44" class="edge"><title>11&#45;&gt;1</title>
<path fill="none" stroke="grey" stroke-width="2" d="M1191.22,-930.936C1170.61,-869.941 1094.22,-671.289 952,-597 875.957,-557.279 243.164,-552.943 180,-611 143.433,-644.611 124.119,-999.715 119.246,-1102.98"/>
<polygon fill="grey" stroke="grey" points="115.75,-1102.82 118.783,-1112.97 122.743,-1103.15 115.75,-1102.82"/>
</g>
<!-- 11&#45;&gt;10 -->
<g id="edge59" class="edge"><title>11&#45;&gt;10</title>
<path fill="none" stroke="grey" stroke-width="2" d="M1193.53,-967.21C1178.93,-1038.44 1115.54,-1300.11 952,-1420 939.144,-1429.42 924.422,-1436.4 909.043,-1441.51"/>
<polygon fill="grey" stroke="grey" points="907.933,-1438.19 899.393,-1444.46 909.98,-1444.89 907.933,-1438.19"/>
</g>
<!-- 25 -->
<g id="node26" class="node"><title>25</title>
<path fill="none" stroke="#ced856" stroke-width="2" d="M894.5,-550C894.5,-550 643.5,-550 643.5,-550 637.5,-550 631.5,-544 631.5,-538 631.5,-538 631.5,-526 631.5,-526 631.5,-520 637.5,-514 643.5,-514 643.5,-514 894.5,-514 894.5,-514 900.5,-514 906.5,-520 906.5,-526 906.5,-526 906.5,-538 906.5,-538 906.5,-544 900.5,-550 894.5,-550"/>
<text text-anchor="middle" x="769" y="-529.5" font-family="sans" font-size="10.00">MultiOmics_Variant_analysis_enrichment_analysis_R</text>
</g>
<!-- 11&#45;&gt;25 -->
<g id="edge77" class="edge"><title>11&#45;&gt;25</title>
<path fill="none" stroke="grey" stroke-width="2" d="M1191.35,-930.703C1170.88,-867.798 1094.29,-659.075 952,-564 941.053,-556.685 928.938,-550.893 916.312,-546.324"/>
<polygon fill="grey" stroke="grey" points="917.162,-542.918 906.568,-543.063 914.94,-549.556 917.162,-542.918"/>
</g>
<!-- 26 -->
<g id="node27" class="node"><title>26</title>
<path fill="none" stroke="#61d856" stroke-width="2" d="M524,-466C524,-466 206,-466 206,-466 200,-466 194,-460 194,-454 194,-454 194,-442 194,-442 194,-436 200,-430 206,-430 206,-430 524,-430 524,-430 530,-430 536,-436 536,-442 536,-442 536,-454 536,-454 536,-460 530,-466 524,-466"/>
<text text-anchor="middle" x="365" y="-445.5" font-family="sans" font-size="10.00">MultiOmics_Variant_analysis_enrichment_analysis_variant_type_R</text>
</g>
<!-- 11&#45;&gt;26 -->
<g id="edge78" class="edge"><title>11&#45;&gt;26</title>
<path fill="none" stroke="grey" stroke-width="2" d="M1193.33,-930.972C1178.16,-861.697 1113.46,-611.19 952,-505 943.43,-499.364 715.122,-478.378 546.066,-463.512"/>
<polygon fill="grey" stroke="grey" points="546.304,-460.02 536.036,-462.631 545.691,-466.993 546.304,-460.02"/>
</g>
<!-- 27 -->
<g id="node28" class="node"><title>27</title>
<path fill="none" stroke="#56d8c9" stroke-width="2" d="M486,-1424C486,-1424 244,-1424 244,-1424 238,-1424 232,-1418 232,-1412 232,-1412 232,-1400 232,-1400 232,-1394 238,-1388 244,-1388 244,-1388 486,-1388 486,-1388 492,-1388 498,-1394 498,-1400 498,-1400 498,-1412 498,-1412 498,-1418 492,-1424 486,-1424"/>
<text text-anchor="middle" x="365" y="-1403.5" font-family="sans" font-size="10.00">MultiOmics_Variant_analysis_outlier_proportions_R</text>
</g>
<!-- 11&#45;&gt;27 -->
<g id="edge79" class="edge"><title>11&#45;&gt;27</title>
<path fill="none" stroke="grey" stroke-width="2" d="M1193.14,-967.094C1177.5,-1035.44 1111.84,-1278.97 952,-1377 880.383,-1420.93 657.745,-1420.28 508.45,-1414.27"/>
<polygon fill="grey" stroke="grey" points="508.415,-1410.77 498.278,-1413.85 508.124,-1417.76 508.415,-1410.77"/>
</g>
<!-- 28 -->
<g id="node29" class="node"><title>28</title>
<path fill="none" stroke="#56d8a2" stroke-width="2" d="M519.5,-1370C519.5,-1370 210.5,-1370 210.5,-1370 204.5,-1370 198.5,-1364 198.5,-1358 198.5,-1358 198.5,-1346 198.5,-1346 198.5,-1340 204.5,-1334 210.5,-1334 210.5,-1334 519.5,-1334 519.5,-1334 525.5,-1334 531.5,-1340 531.5,-1346 531.5,-1346 531.5,-1358 531.5,-1358 531.5,-1364 525.5,-1370 519.5,-1370"/>
<text text-anchor="middle" x="365" y="-1349.5" font-family="sans" font-size="10.00">MultiOmics_Variant_analysis_outlier_proportions_variant_type_R</text>
</g>
<!-- 11&#45;&gt;28 -->
<g id="edge80" class="edge"><title>11&#45;&gt;28</title>
<path fill="none" stroke="grey" stroke-width="2" d="M1192.63,-967.063C1175.58,-1033.06 1106.66,-1261.84 952,-1349 884.257,-1387.18 688.476,-1380.83 541.719,-1369.52"/>
<polygon fill="grey" stroke="grey" points="541.925,-1366.03 531.682,-1368.73 541.378,-1373 541.925,-1366.03"/>
</g>
<!-- 30 -->
<g id="node31" class="node"><title>30</title>
<path fill="none" stroke="#569ad8" stroke-width="2" d="M873.5,-1032C873.5,-1032 664.5,-1032 664.5,-1032 658.5,-1032 652.5,-1026 652.5,-1020 652.5,-1020 652.5,-1008 652.5,-1008 652.5,-1002 658.5,-996 664.5,-996 664.5,-996 873.5,-996 873.5,-996 879.5,-996 885.5,-1002 885.5,-1008 885.5,-1008 885.5,-1020 885.5,-1020 885.5,-1026 879.5,-1032 873.5,-1032"/>
<text text-anchor="middle" x="769" y="-1011.5" font-family="sans" font-size="10.00">Paper_figures_Figure1_c_positive_controls_R</text>
</g>
<!-- 11&#45;&gt;30 -->
<g id="edge83" class="edge"><title>11&#45;&gt;30</title>
<path fill="none" stroke="grey" stroke-width="2" d="M1084.81,-966.078C1026.65,-974.932 955.421,-985.774 895.439,-994.905"/>
<polygon fill="grey" stroke="grey" points="894.89,-991.448 885.53,-996.413 895.943,-998.369 894.89,-991.448"/>
</g>
<!-- 31 -->
<g id="node32" class="node"><title>31</title>
<path fill="none" stroke="#56d8b1" stroke-width="2" d="M869.5,-1340C869.5,-1340 668.5,-1340 668.5,-1340 662.5,-1340 656.5,-1334 656.5,-1328 656.5,-1328 656.5,-1316 656.5,-1316 656.5,-1310 662.5,-1304 668.5,-1304 668.5,-1304 869.5,-1304 869.5,-1304 875.5,-1304 881.5,-1310 881.5,-1316 881.5,-1316 881.5,-1328 881.5,-1328 881.5,-1334 875.5,-1340 869.5,-1340"/>
<text text-anchor="middle" x="769" y="-1319.5" font-family="sans" font-size="10.00">Paper_figures_Figure1_d_VUS_validation_R</text>
</g>
<!-- 11&#45;&gt;31 -->
<g id="edge84" class="edge"><title>11&#45;&gt;31</title>
<path fill="none" stroke="grey" stroke-width="2" d="M1190.22,-967.225C1167.24,-1026.16 1086.2,-1212.54 952,-1295 933.909,-1306.12 912.942,-1313.28 891.812,-1317.79"/>
<polygon fill="grey" stroke="grey" points="890.921,-1314.4 881.772,-1319.74 892.256,-1321.27 890.921,-1314.4"/>
</g>
<!-- 32 -->
<g id="node33" class="node"><title>32</title>
<path fill="none" stroke="#d8c356" stroke-width="2" d="M859,-1286C859,-1286 679,-1286 679,-1286 673,-1286 667,-1280 667,-1274 667,-1274 667,-1262 667,-1262 667,-1256 673,-1250 679,-1250 679,-1250 859,-1250 859,-1250 865,-1250 871,-1256 871,-1262 871,-1262 871,-1274 871,-1274 871,-1280 865,-1286 859,-1286"/>
<text text-anchor="middle" x="769" y="-1265.5" font-family="sans" font-size="10.00">Paper_figures_Figure2_a_integration_R</text>
</g>
<!-- 11&#45;&gt;32 -->
<g id="edge85" class="edge"><title>11&#45;&gt;32</title>
<path fill="none" stroke="grey" stroke-width="2" d="M1187.86,-967.325C1160.45,-1020.13 1073.28,-1173.16 952,-1241 930.56,-1252.99 905.578,-1260.22 881.115,-1264.45"/>
<polygon fill="grey" stroke="grey" points="880.378,-1261.03 871.044,-1266.04 881.467,-1267.94 880.378,-1261.03"/>
</g>
<!-- 11&#45;&gt;33 -->
<g id="edge87" class="edge"><title>11&#45;&gt;33</title>
<path fill="none" stroke="grey" stroke-width="2" d="M1161.23,-930.882C1114.52,-908.334 1029.56,-871.082 952,-857 785.028,-826.684 586.924,-841.382 469.104,-855.312"/>
<polygon fill="grey" stroke="grey" points="468.519,-851.857 459.009,-856.527 469.356,-858.807 468.519,-851.857"/>
</g>
<!-- 11&#45;&gt;34 -->
<g id="edge89" class="edge"><title>11&#45;&gt;34</title>
<path fill="none" stroke="grey" stroke-width="2" d="M1167.85,-930.85C1123.29,-904.232 1034.72,-855.641 952,-836 797.42,-799.295 613.51,-799.912 493.491,-805.986"/>
<polygon fill="grey" stroke="grey" points="492.964,-802.509 483.162,-806.53 493.332,-809.499 492.964,-802.509"/>
</g>
<!-- 11&#45;&gt;35 -->
<g id="edge91" class="edge"><title>11&#45;&gt;35</title>
<path fill="none" stroke="grey" stroke-width="2" d="M1175.84,-930.975C1135.46,-897.808 1043.3,-827.866 952,-799 791.681,-748.314 594.684,-747.583 474.827,-753.475"/>
<polygon fill="grey" stroke="grey" points="474.352,-749.995 464.546,-754.006 474.713,-756.986 474.352,-749.995"/>
</g>
<!-- 11&#45;&gt;36 -->
<g id="edge93" class="edge"><title>11&#45;&gt;36</title>
<path fill="none" stroke="grey" stroke-width="2" d="M1182.17,-930.799C1147.2,-889.43 1054.79,-788.772 952,-748 872.95,-716.645 648.153,-709.168 501.083,-707.764"/>
<polygon fill="grey" stroke="grey" points="501.101,-704.264 491.071,-707.677 501.04,-711.264 501.101,-704.264"/>
</g>
<!-- 11&#45;&gt;37 -->
<g id="edge95" class="edge"><title>11&#45;&gt;37</title>
<path fill="none" stroke="grey" stroke-width="2" d="M1084.76,-953.657C962.066,-959.29 759.753,-970.165 586,-987 547.971,-990.685 506.389,-995.867 469.714,-1000.83"/>
<polygon fill="grey" stroke="grey" points="468.942,-997.406 459.507,-1002.23 469.889,-1004.34 468.942,-997.406"/>
</g>
<!-- 38 -->
<g id="node39" class="node"><title>38</title>
<path fill="none" stroke="#d88556" stroke-width="2" d="M869,-404C869,-404 669,-404 669,-404 663,-404 657,-398 657,-392 657,-392 657,-380 657,-380 657,-374 663,-368 669,-368 669,-368 869,-368 869,-368 875,-368 881,-374 881,-380 881,-380 881,-392 881,-392 881,-398 875,-404 869,-404"/>
<text text-anchor="middle" x="769" y="-383.5" font-family="sans" font-size="10.00">Paper_figures_Figure3_c_mito_ribosome_R</text>
</g>
<!-- 11&#45;&gt;38 -->
<g id="edge97" class="edge"><title>11&#45;&gt;38</title>
<path fill="none" stroke="grey" stroke-width="2" d="M1189.95,-930.972C1154.81,-841.478 998.36,-447.854 952,-413 934.398,-399.766 913.077,-391.702 891.317,-386.983"/>
<polygon fill="grey" stroke="grey" points="891.783,-383.508 881.3,-385.044 890.452,-390.381 891.783,-383.508"/>
</g>
<!-- 11&#45;&gt;39 -->
<g id="edge99" class="edge"><title>11&#45;&gt;39</title>
<path fill="none" stroke="grey" stroke-width="2" d="M1084.93,-948.972C962.381,-949.161 760.193,-950.121 586,-954 545.312,-954.906 500.409,-956.443 461.837,-957.928"/>
<polygon fill="grey" stroke="grey" points="461.511,-954.438 451.655,-958.325 461.784,-961.433 461.511,-954.438"/>
</g>
<!-- 40 -->
<g id="node41" class="node"><title>40</title>
<path fill="none" stroke="#d88d56" stroke-width="2" d="M859,-1178C859,-1178 679,-1178 679,-1178 673,-1178 667,-1172 667,-1166 667,-1166 667,-1154 667,-1154 667,-1148 673,-1142 679,-1142 679,-1142 859,-1142 859,-1142 865,-1142 871,-1148 871,-1154 871,-1154 871,-1166 871,-1166 871,-1172 865,-1178 859,-1178"/>
<text text-anchor="middle" x="769" y="-1157.5" font-family="sans" font-size="10.00">Paper_figures_Figure3_h_complexes_R</text>
</g>
<!-- 11&#45;&gt;40 -->
<g id="edge100" class="edge"><title>11&#45;&gt;40</title>
<path fill="none" stroke="grey" stroke-width="2" d="M1179.65,-967.09C1142.13,-1004.98 1048.94,-1092.5 952,-1133 929.949,-1142.21 905.244,-1148.35 881.318,-1152.41"/>
<polygon fill="grey" stroke="grey" points="880.448,-1149.01 871.121,-1154.03 881.547,-1155.92 880.448,-1149.01"/>
</g>
<!-- 11&#45;&gt;41 -->
<g id="edge103" class="edge"><title>11&#45;&gt;41</title>
<path fill="none" stroke="grey" stroke-width="2" d="M1158.08,-967.176C1110.55,-988.532 1027.18,-1023.29 952,-1041 792.816,-1078.5 748.418,-1059.87 586,-1079 548.754,-1083.39 508.023,-1088.63 471.843,-1093.45"/>
<polygon fill="grey" stroke="grey" points="471.214,-1090 461.765,-1094.79 472.14,-1096.94 471.214,-1090"/>
</g>
<!-- 11&#45;&gt;42 -->
<g id="edge108" class="edge"><title>11&#45;&gt;42</title>
<path fill="none" stroke="grey" stroke-width="2" d="M1187.5,-967.127C1153.31,-1033.35 1036.01,-1269.3 988,-1479 976.014,-1531.35 988.569,-1921.67 952,-1961 932.251,-1982.24 903.617,-1991.81 874.885,-1995.32"/>
<polygon fill="grey" stroke="grey" points="874.343,-1991.85 864.732,-1996.31 875.026,-1998.82 874.343,-1991.85"/>
</g>
<!-- 44 -->
<g id="node45" class="node"><title>44</title>
<path fill="none" stroke="#56d8b9" stroke-width="2" d="M855.5,-696C855.5,-696 682.5,-696 682.5,-696 676.5,-696 670.5,-690 670.5,-684 670.5,-684 670.5,-672 670.5,-672 670.5,-666 676.5,-660 682.5,-660 682.5,-660 855.5,-660 855.5,-660 861.5,-660 867.5,-666 867.5,-672 867.5,-672 867.5,-684 867.5,-684 867.5,-690 861.5,-696 855.5,-696"/>
<text text-anchor="middle" x="769" y="-675.5" font-family="sans" font-size="10.00">Patient_analysis_diagnosed_cases_R</text>
</g>
<!-- 11&#45;&gt;44 -->
<g id="edge110" class="edge"><title>11&#45;&gt;44</title>
<path fill="none" stroke="grey" stroke-width="2" d="M1184.61,-930.937C1152.3,-885.392 1060.41,-765.55 952,-710 929.315,-698.376 903.179,-690.885 877.921,-686.081"/>
<polygon fill="grey" stroke="grey" points="878.376,-682.607 867.919,-684.306 877.154,-689.499 878.376,-682.607"/>
</g>
<!-- 51 -->
<g id="node52" class="node"><title>51</title>
<path fill="none" stroke="#d8d356" stroke-width="2" d="M877,-642C877,-642 661,-642 661,-642 655,-642 649,-636 649,-630 649,-630 649,-618 649,-618 649,-612 655,-606 661,-606 661,-606 877,-606 877,-606 883,-606 889,-612 889,-618 889,-618 889,-630 889,-630 889,-636 883,-642 877,-642"/>
<text text-anchor="middle" x="769" y="-621.5" font-family="sans" font-size="10.00">Supplementary_figures_S_Fig1_f_validation_R</text>
</g>
<!-- 11&#45;&gt;51 -->
<g id="edge117" class="edge"><title>11&#45;&gt;51</title>
<path fill="none" stroke="grey" stroke-width="2" d="M1188.16,-930.686C1161.27,-877.167 1074.7,-720.438 952,-651 935.858,-641.865 917.676,-635.485 899.209,-631.08"/>
<polygon fill="grey" stroke="grey" points="899.752,-627.616 889.235,-628.892 898.252,-634.453 899.752,-627.616"/>
</g>
<!-- 52 -->
<g id="node53" class="node"><title>52</title>
<path fill="none" stroke="#56d89a" stroke-width="2" d="M890.5,-458C890.5,-458 647.5,-458 647.5,-458 641.5,-458 635.5,-452 635.5,-446 635.5,-446 635.5,-434 635.5,-434 635.5,-428 641.5,-422 647.5,-422 647.5,-422 890.5,-422 890.5,-422 896.5,-422 902.5,-428 902.5,-434 902.5,-434 902.5,-446 902.5,-446 902.5,-452 896.5,-458 890.5,-458"/>
<text text-anchor="middle" x="769" y="-437.5" font-family="sans" font-size="10.00">Supplementary_figures_S_Fig1_g_mito_ribosome_R</text>
</g>
<!-- 11&#45;&gt;52 -->
<g id="edge119" class="edge"><title>11&#45;&gt;52</title>
<path fill="none" stroke="grey" stroke-width="2" d="M1193.61,-930.564C1179.31,-858.454 1116.87,-593.52 952,-472 940.145,-463.262 926.689,-456.629 912.588,-451.626"/>
<polygon fill="grey" stroke="grey" points="913.326,-448.186 902.734,-448.418 911.159,-454.842 913.326,-448.186"/>
</g>
<!-- 58 -->
<g id="node59" class="node"><title>58</title>
<path fill="none" stroke="#5682d8" stroke-width="2" d="M845.5,-1232C845.5,-1232 692.5,-1232 692.5,-1232 686.5,-1232 680.5,-1226 680.5,-1220 680.5,-1220 680.5,-1208 680.5,-1208 680.5,-1202 686.5,-1196 692.5,-1196 692.5,-1196 845.5,-1196 845.5,-1196 851.5,-1196 857.5,-1202 857.5,-1208 857.5,-1208 857.5,-1220 857.5,-1220 857.5,-1226 851.5,-1232 845.5,-1232"/>
<text text-anchor="middle" x="769" y="-1211.5" font-family="sans" font-size="10.00">Supplementary_figures_S_Fig3_R</text>
</g>
<!-- 11&#45;&gt;58 -->
<g id="edge124" class="edge"><title>11&#45;&gt;58</title>
<path fill="none" stroke="grey" stroke-width="2" d="M1184.68,-967.16C1152.53,-1012.92 1060.98,-1133.13 952,-1187 926.129,-1199.79 895.85,-1206.91 867.496,-1210.78"/>
<polygon fill="grey" stroke="grey" points="867.05,-1207.31 857.558,-1212.01 867.914,-1214.25 867.05,-1207.31"/>
</g>
<!-- 12 -->
<g id="node13" class="node"><title>12</title>
<path fill="none" stroke="#5673d8" stroke-width="2" d="M1868,-1482C1868,-1482 1456,-1482 1456,-1482 1450,-1482 1444,-1476 1444,-1470 1444,-1470 1444,-1458 1444,-1458 1444,-1452 1450,-1446 1456,-1446 1456,-1446 1868,-1446 1868,-1446 1874,-1446 1880,-1452 1880,-1458 1880,-1458 1880,-1470 1880,-1470 1880,-1476 1874,-1482 1868,-1482"/>
<text text-anchor="middle" x="1662" y="-1461.5" font-family="sans" font-size="10.00">MultiOmics_Proteomics_Aberrant_Expression_PROTRIDER_detect_outliers_protrider_R</text>
</g>
<!-- 12&#45;&gt;11 -->
<g id="edge61" class="edge"><title>12&#45;&gt;11</title>
<path fill="none" stroke="grey" stroke-width="2" d="M1644.83,-1445.97C1575.53,-1368.72 1303.49,-1065.48 1222.12,-974.768"/>
<polygon fill="grey" stroke="grey" points="1224.56,-972.254 1215.28,-967.148 1219.35,-976.929 1224.56,-972.254"/>
</g>
<!-- 17 -->
<g id="node18" class="node"><title>17</title>
<path fill="none" stroke="#61d856" stroke-width="2" d="M1395.5,-1524C1395.5,-1524 1000.5,-1524 1000.5,-1524 994.5,-1524 988.5,-1518 988.5,-1512 988.5,-1512 988.5,-1500 988.5,-1500 988.5,-1494 994.5,-1488 1000.5,-1488 1000.5,-1488 1395.5,-1488 1395.5,-1488 1401.5,-1488 1407.5,-1494 1407.5,-1500 1407.5,-1500 1407.5,-1512 1407.5,-1512 1407.5,-1518 1401.5,-1524 1395.5,-1524"/>
<text text-anchor="middle" x="1198" y="-1503.5" font-family="sans" font-size="10.00">MultiOmics_Proteomics_Aberrant_Expression_PROTRIDER_PROTRIDERSummary_R</text>
</g>
<!-- 12&#45;&gt;17 -->
<g id="edge66" class="edge"><title>12&#45;&gt;17</title>
<path fill="none" stroke="grey" stroke-width="2" d="M1462.72,-1482.03C1444.45,-1483.69 1425.9,-1485.37 1407.53,-1487.04"/>
<polygon fill="grey" stroke="grey" points="1407,-1483.58 1397.35,-1487.97 1407.63,-1490.55 1407,-1483.58"/>
</g>
<!-- 18 -->
<g id="node19" class="node"><title>18</title>
<path fill="none" stroke="#56d8c1" stroke-width="2" d="M1373.5,-322C1373.5,-322 1022.5,-322 1022.5,-322 1016.5,-322 1010.5,-316 1010.5,-310 1010.5,-310 1010.5,-298 1010.5,-298 1010.5,-292 1016.5,-286 1022.5,-286 1022.5,-286 1373.5,-286 1373.5,-286 1379.5,-286 1385.5,-292 1385.5,-298 1385.5,-298 1385.5,-310 1385.5,-310 1385.5,-316 1379.5,-322 1373.5,-322"/>
<text text-anchor="middle" x="1198" y="-301.5" font-family="sans" font-size="10.00">MultiOmics_Proteomics_Protein_complexes_AE_MITO_groups_Protrider_R</text>
</g>
<!-- 12&#45;&gt;18 -->
<g id="edge67" class="edge"><title>12&#45;&gt;18</title>
<path fill="none" stroke="grey" stroke-width="2" d="M1659.48,-1445.61C1648.24,-1313.77 1573.65,-512.833 1408,-349 1398.94,-340.041 1388.56,-332.676 1377.36,-326.638"/>
<polygon fill="grey" stroke="grey" points="1378.73,-323.409 1368.22,-322.075 1375.6,-329.673 1378.73,-323.409"/>
</g>
<!-- 19 -->
<g id="node20" class="node"><title>19</title>
<path fill="none" stroke="#80d856" stroke-width="2" d="M939.5,-350C939.5,-350 598.5,-350 598.5,-350 592.5,-350 586.5,-344 586.5,-338 586.5,-338 586.5,-326 586.5,-326 586.5,-320 592.5,-314 598.5,-314 598.5,-314 939.5,-314 939.5,-314 945.5,-314 951.5,-320 951.5,-326 951.5,-326 951.5,-338 951.5,-338 951.5,-344 945.5,-350 939.5,-350"/>
<text text-anchor="middle" x="769" y="-329.5" font-family="sans" font-size="10.00">MultiOmics_Proteomics_Protein_complexes_AE_complexes_Protrider_R</text>
</g>
<!-- 12&#45;&gt;19 -->
<g id="edge68" class="edge"><title>12&#45;&gt;19</title>
<path fill="none" stroke="grey" stroke-width="2" d="M1659.4,-1445.63C1647.83,-1317.28 1572.72,-555.75 1408,-409 1343.74,-351.754 1125.24,-335.54 961.734,-331.694"/>
<polygon fill="grey" stroke="grey" points="961.613,-328.191 951.538,-331.469 961.458,-335.189 961.613,-328.191"/>
</g>
<!-- 46 -->
<g id="node47" class="node"><title>46</title>
<path fill="none" stroke="#5692d8" stroke-width="2" d="M857,-1524C857,-1524 681,-1524 681,-1524 675,-1524 669,-1518 669,-1512 669,-1512 669,-1500 669,-1500 669,-1494 675,-1488 681,-1488 681,-1488 857,-1488 857,-1488 863,-1488 869,-1494 869,-1500 869,-1500 869,-1512 869,-1512 869,-1518 863,-1524 857,-1524"/>
<text text-anchor="middle" x="769" y="-1503.5" font-family="sans" font-size="10.00">Supplementary_PROTRIDER_S_Fig5_R</text>
</g>
<!-- 12&#45;&gt;46 -->
<g id="edge112" class="edge"><title>12&#45;&gt;46</title>
<path fill="none" stroke="grey" stroke-width="2" d="M1443.65,-1463.29C1311.7,-1464.24 1139.97,-1467.92 988,-1479 952.516,-1481.59 913.944,-1485.87 879.246,-1490.28"/>
<polygon fill="grey" stroke="grey" points="878.563,-1486.84 869.091,-1491.58 879.456,-1493.78 878.563,-1486.84"/>
</g>
<!-- 49 -->
<g id="node50" class="node"><title>49</title>
<path fill="none" stroke="#68d856" stroke-width="2" d="M889.5,-1654C889.5,-1654 648.5,-1654 648.5,-1654 642.5,-1654 636.5,-1648 636.5,-1642 636.5,-1642 636.5,-1630 636.5,-1630 636.5,-1624 642.5,-1618 648.5,-1618 648.5,-1618 889.5,-1618 889.5,-1618 895.5,-1618 901.5,-1624 901.5,-1630 901.5,-1630 901.5,-1642 901.5,-1642 901.5,-1648 895.5,-1654 889.5,-1654"/>
<text text-anchor="middle" x="769" y="-1633.5" font-family="sans" font-size="10.00">Supplementary_PROTRIDER_limma_vs_protrider_R</text>
</g>
<!-- 12&#45;&gt;49 -->
<g id="edge115" class="edge"><title>12&#45;&gt;49</title>
<path fill="none" stroke="grey" stroke-width="2" d="M1601.89,-1482.04C1550.89,-1497.13 1475.08,-1518.48 1408,-1533 1238.6,-1569.66 1041.34,-1599.59 911.513,-1617.55"/>
<polygon fill="grey" stroke="grey" points="910.934,-1614.1 901.505,-1618.93 911.89,-1621.03 910.934,-1614.1"/>
</g>
<!-- 12&#45;&gt;53 -->
<g id="edge121" class="edge"><title>12&#45;&gt;53</title>
<path fill="none" stroke="grey" stroke-width="2" d="M1645.16,-1482.19C1608.31,-1523.06 1512.07,-1621.9 1408,-1664 1323.56,-1698.16 1086.34,-1714.8 926.191,-1722.36"/>
<polygon fill="grey" stroke="grey" points="925.583,-1718.89 915.756,-1722.85 925.908,-1725.88 925.583,-1718.89"/>
</g>
<!-- 13 -->
<g id="node14" class="node"><title>13</title>
<path fill="none" stroke="#56b1d8" stroke-width="2" d="M2316,-1459C2316,-1459 1928,-1459 1928,-1459 1922,-1459 1916,-1453 1916,-1447 1916,-1447 1916,-1435 1916,-1435 1916,-1429 1922,-1423 1928,-1423 1928,-1423 2316,-1423 2316,-1423 2322,-1423 2328,-1429 2328,-1435 2328,-1435 2328,-1447 2328,-1447 2328,-1453 2322,-1459 2316,-1459"/>
<text text-anchor="middle" x="2122" y="-1438.5" font-family="sans" font-size="10.00">MultiOmics_Proteomics_Aberrant_Expression_PROTRIDER_protrider_data_prep_R</text>
</g>
<!-- 13&#45;&gt;12 -->
<g id="edge63" class="edge"><title>13&#45;&gt;12</title>
<path fill="none" stroke="grey" stroke-width="2" d="M1915.78,-1451.31C1907.4,-1451.73 1898.99,-1452.15 1890.57,-1452.57"/>
<polygon fill="grey" stroke="grey" points="1890.12,-1449.09 1880.31,-1453.09 1890.47,-1456.08 1890.12,-1449.09"/>
</g>
<!-- 13&#45;&gt;46 -->
<g id="edge111" class="edge"><title>13&#45;&gt;46</title>
<path fill="none" stroke="grey" stroke-width="2" d="M1915.9,-1437.36C1903.75,-1437.22 1891.72,-1437.1 1880,-1437 1483.45,-1433.71 1369.38,-1350.3 988,-1459 970.398,-1464.02 969.332,-1473.12 952,-1479 929.004,-1486.8 903.614,-1492.36 879.282,-1496.3"/>
<polygon fill="grey" stroke="grey" points="878.643,-1492.86 869.294,-1497.84 879.711,-1499.78 878.643,-1492.86"/>
</g>
<!-- 14 -->
<g id="node15" class="node"><title>14</title>
<path fill="none" stroke="#9fd856" stroke-width="2" d="M538,-1700C538,-1700 192,-1700 192,-1700 186,-1700 180,-1694 180,-1688 180,-1688 180,-1676 180,-1676 180,-1670 186,-1664 192,-1664 192,-1664 538,-1664 538,-1664 544,-1664 550,-1670 550,-1676 550,-1676 550,-1688 550,-1688 550,-1694 544,-1700 538,-1700"/>
<text text-anchor="middle" x="365" y="-1679.5" font-family="sans" font-size="10.00">MultiOmics_Proteomics_Aberrant_Expression_LIMMA_LIMMASummary_R</text>
</g>
<!-- 14&#45;&gt;1 -->
<g id="edge20" class="edge"><title>14&#45;&gt;1</title>
<path fill="none" stroke="grey" stroke-width="2" d="M202.117,-1663.84C194.009,-1658.93 186.536,-1653.03 180,-1646 146.583,-1610.04 125.111,-1261.69 119.48,-1159.22"/>
<polygon fill="grey" stroke="grey" points="122.964,-1158.82 118.928,-1149.02 115.974,-1159.2 122.964,-1158.82"/>
</g>
<!-- 15 -->
<g id="node16" class="node"><title>15</title>
<path fill="none" stroke="#56d8d8" stroke-width="2" d="M1386.5,-1655C1386.5,-1655 1009.5,-1655 1009.5,-1655 1003.5,-1655 997.5,-1649 997.5,-1643 997.5,-1643 997.5,-1631 997.5,-1631 997.5,-1625 1003.5,-1619 1009.5,-1619 1009.5,-1619 1386.5,-1619 1386.5,-1619 1392.5,-1619 1398.5,-1625 1398.5,-1631 1398.5,-1631 1398.5,-1643 1398.5,-1643 1398.5,-1649 1392.5,-1655 1386.5,-1655"/>
<text text-anchor="middle" x="1198" y="-1634.5" font-family="sans" font-size="10.00">MultiOmics_Proteomics_Aberrant_Expression_LIMMA_detect_outliers_limma_R</text>
</g>
<!-- 15&#45;&gt;14 -->
<g id="edge64" class="edge"><title>15&#45;&gt;14</title>
<path fill="none" stroke="grey" stroke-width="2" d="M1043.59,-1655.02C1013.27,-1658.09 981.657,-1660.95 952,-1663 821.639,-1672.02 674.66,-1676.77 560.513,-1679.27"/>
<polygon fill="grey" stroke="grey" points="560.191,-1675.77 550.268,-1679.49 560.341,-1682.77 560.191,-1675.77"/>
</g>
<!-- 21 -->
<g id="node22" class="node"><title>21</title>
<path fill="none" stroke="#56a9d8" stroke-width="2" d="M934.5,-1124C934.5,-1124 603.5,-1124 603.5,-1124 597.5,-1124 591.5,-1118 591.5,-1112 591.5,-1112 591.5,-1100 591.5,-1100 591.5,-1094 597.5,-1088 603.5,-1088 603.5,-1088 934.5,-1088 934.5,-1088 940.5,-1088 946.5,-1094 946.5,-1100 946.5,-1100 946.5,-1112 946.5,-1112 946.5,-1118 940.5,-1124 934.5,-1124"/>
<text text-anchor="middle" x="769" y="-1103.5" font-family="sans" font-size="10.00">MultiOmics_Proteomics_Protein_complexes_AE_complexes_limma_R</text>
</g>
<!-- 15&#45;&gt;21 -->
<g id="edge71" class="edge"><title>15&#45;&gt;21</title>
<path fill="none" stroke="grey" stroke-width="2" d="M1119.94,-1618.95C1073.84,-1603.94 1018.47,-1577.59 988,-1533 937.65,-1459.31 1013.27,-1197.9 952,-1133 951.328,-1132.29 950.647,-1131.59 949.956,-1130.91"/>
<polygon fill="grey" stroke="grey" points="952.008,-1128.05 942.197,-1124.05 947.373,-1133.29 952.008,-1128.05"/>
</g>
<!-- 15&#45;&gt;46 -->
<g id="edge113" class="edge"><title>15&#45;&gt;46</title>
<path fill="none" stroke="grey" stroke-width="2" d="M1138.08,-1618.92C1059.73,-1594.89 921.532,-1552.49 838.59,-1527.04"/>
<polygon fill="grey" stroke="grey" points="839.591,-1523.69 829.005,-1524.1 837.538,-1530.38 839.591,-1523.69"/>
</g>
<!-- 15&#45;&gt;49 -->
<g id="edge116" class="edge"><title>15&#45;&gt;49</title>
<path fill="none" stroke="grey" stroke-width="2" d="M997.252,-1636.53C968.352,-1636.46 939.114,-1636.4 911.669,-1636.33"/>
<polygon fill="grey" stroke="grey" points="911.651,-1632.83 901.643,-1636.31 911.634,-1639.83 911.651,-1632.83"/>
</g>
<!-- 15&#45;&gt;53 -->
<g id="edge122" class="edge"><title>15&#45;&gt;53</title>
<path fill="none" stroke="grey" stroke-width="2" d="M1048.55,-1655.01C1027.86,-1659.69 1007.14,-1665.59 988,-1673 970.295,-1679.86 969.693,-1689.11 952,-1696 940.906,-1700.32 929.204,-1704.06 917.303,-1707.3"/>
<polygon fill="grey" stroke="grey" points="916.07,-1704 907.269,-1709.9 917.827,-1710.78 916.07,-1704"/>
</g>
<!-- 16 -->
<g id="node17" class="node"><title>16</title>
<path fill="none" stroke="#56d85b" stroke-width="2" d="M1845.5,-1875C1845.5,-1875 1478.5,-1875 1478.5,-1875 1472.5,-1875 1466.5,-1869 1466.5,-1863 1466.5,-1863 1466.5,-1851 1466.5,-1851 1466.5,-1845 1472.5,-1839 1478.5,-1839 1478.5,-1839 1845.5,-1839 1845.5,-1839 1851.5,-1839 1857.5,-1845 1857.5,-1851 1857.5,-1851 1857.5,-1863 1857.5,-1863 1857.5,-1869 1851.5,-1875 1845.5,-1875"/>
<text text-anchor="middle" x="1662" y="-1854.5" font-family="sans" font-size="10.00">MultiOmics_Proteomics_Aberrant_Expression_LIMMA_batch_normalization_R</text>
</g>
<!-- 16&#45;&gt;1 -->
<g id="edge29" class="edge"><title>16&#45;&gt;1</title>
<path fill="none" stroke="grey" stroke-width="2" d="M1466.36,-1859.24C1074.98,-1862.8 225.91,-1865.45 180,-1822 131.12,-1775.74 120.332,-1283.55 118.381,-1159.34"/>
<polygon fill="grey" stroke="grey" points="121.877,-1159.07 118.227,-1149.12 114.878,-1159.17 121.877,-1159.07"/>
</g>
<!-- 16&#45;&gt;15 -->
<g id="edge65" class="edge"><title>16&#45;&gt;15</title>
<path fill="none" stroke="grey" stroke-width="2" d="M1582.3,-1838.97C1540.25,-1827.97 1488.2,-1812.14 1444,-1792 1362.68,-1754.94 1276.3,-1694.73 1231.01,-1661.3"/>
<polygon fill="grey" stroke="grey" points="1232.89,-1658.34 1222.77,-1655.19 1228.71,-1663.96 1232.89,-1658.34"/>
</g>
<!-- 16&#45;&gt;22 -->
<g id="edge72" class="edge"><title>16&#45;&gt;22</title>
<path fill="none" stroke="grey" stroke-width="2" d="M1607.31,-1875.08C1556.5,-1891.57 1477.83,-1915.5 1408,-1930 1386.47,-1934.47 1363.53,-1938.33 1341.02,-1941.62"/>
<polygon fill="grey" stroke="grey" points="1340.47,-1938.16 1331.07,-1943.04 1341.46,-1945.09 1340.47,-1938.16"/>
</g>
<!-- 17&#45;&gt;1 -->
<g id="edge27" class="edge"><title>17&#45;&gt;1</title>
<path fill="none" stroke="grey" stroke-width="2" d="M1033.28,-1524C1017.97,-1525.69 1002.69,-1527.38 988,-1529 971.999,-1530.77 968.03,-1531.51 952,-1533 866.525,-1540.94 244.868,-1619.22 180,-1563 119.122,-1510.23 116.602,-1247.04 117.495,-1159.42"/>
<polygon fill="grey" stroke="grey" points="120.997,-1159.22 117.623,-1149.17 113.998,-1159.13 120.997,-1159.22"/>
</g>
<!-- 18&#45;&gt;1 -->
<g id="edge40" class="edge"><title>18&#45;&gt;1</title>
<path fill="none" stroke="grey" stroke-width="2" d="M1010.23,-290.579C733.122,-272.65 239.195,-249.077 180,-304 120.269,-359.421 117.695,-963.468 117.899,-1102.56"/>
<polygon fill="grey" stroke="grey" points="114.399,-1102.82 117.921,-1112.81 121.399,-1102.8 114.399,-1102.82"/>
</g>
<!-- 19&#45;&gt;1 -->
<g id="edge23" class="edge"><title>19&#45;&gt;1</title>
<path fill="none" stroke="grey" stroke-width="2" d="M592.331,-313.987C440.652,-302.704 237.151,-299.213 180,-354 152.388,-380.47 125.181,-966.416 119.208,-1102.81"/>
<polygon fill="grey" stroke="grey" points="115.708,-1102.74 118.77,-1112.88 122.701,-1103.04 115.708,-1102.74"/>
</g>
<!-- 20 -->
<g id="node21" class="node"><title>20</title>
<path fill="none" stroke="#d87d56" stroke-width="2" d="M1367.5,-454C1367.5,-454 1028.5,-454 1028.5,-454 1022.5,-454 1016.5,-448 1016.5,-442 1016.5,-442 1016.5,-430 1016.5,-430 1016.5,-424 1022.5,-418 1028.5,-418 1028.5,-418 1367.5,-418 1367.5,-418 1373.5,-418 1379.5,-424 1379.5,-430 1379.5,-430 1379.5,-442 1379.5,-442 1379.5,-448 1373.5,-454 1367.5,-454"/>
<text text-anchor="middle" x="1198" y="-433.5" font-family="sans" font-size="10.00">MultiOmics_Proteomics_Protein_complexes_get_CORUM_complexes_R</text>
</g>
<!-- 20&#45;&gt;19 -->
<g id="edge69" class="edge"><title>20&#45;&gt;19</title>
<path fill="none" stroke="grey" stroke-width="2" d="M1119.92,-417.951C1079.97,-407.669 1030.72,-393.539 988,-377 971.318,-370.541 969.06,-364.38 952,-359 944.42,-356.61 936.593,-354.429 928.641,-352.44"/>
<polygon fill="grey" stroke="grey" points="929.425,-349.029 918.886,-350.107 927.797,-355.837 929.425,-349.029"/>
</g>
<!-- 20&#45;&gt;21 -->
<g id="edge70" class="edge"><title>20&#45;&gt;21</title>
<path fill="none" stroke="grey" stroke-width="2" d="M1188.27,-454.238C1158.05,-517.771 1056.02,-735.637 988,-922 969.055,-973.907 990.098,-1000.98 952,-1041 932.839,-1061.13 907.025,-1075.04 880.868,-1084.64"/>
<polygon fill="grey" stroke="grey" points="879.526,-1081.4 871.228,-1087.99 881.823,-1088.02 879.526,-1081.4"/>
</g>
<!-- 20&#45;&gt;38 -->
<g id="edge96" class="edge"><title>20&#45;&gt;38</title>
<path fill="none" stroke="grey" stroke-width="2" d="M1043.14,-417.984C993.166,-412.132 938.446,-405.724 891.196,-400.192"/>
<polygon fill="grey" stroke="grey" points="891.57,-396.712 881.231,-399.025 890.756,-403.664 891.57,-396.712"/>
</g>
<!-- 20&#45;&gt;52 -->
<g id="edge118" class="edge"><title>20&#45;&gt;52</title>
<path fill="none" stroke="grey" stroke-width="2" d="M1016.22,-437.693C981.696,-438.017 945.999,-438.351 912.86,-438.662"/>
<polygon fill="grey" stroke="grey" points="912.629,-435.164 902.662,-438.757 912.695,-442.163 912.629,-435.164"/>
</g>
<!-- 21&#45;&gt;1 -->
<g id="edge45" class="edge"><title>21&#45;&gt;1</title>
<path fill="none" stroke="grey" stroke-width="2" d="M654.294,-1124.02C620.792,-1128.54 584.002,-1132.75 550,-1135 385.915,-1145.87 344.359,-1140.3 180,-1135 171.646,-1134.73 162.668,-1134.26 154.21,-1133.73"/>
<polygon fill="grey" stroke="grey" points="154.438,-1130.24 144.228,-1133.07 153.974,-1137.22 154.438,-1130.24"/>
</g>
<!-- 21&#45;&gt;41 -->
<g id="edge101" class="edge"><title>21&#45;&gt;41</title>
<path fill="none" stroke="grey" stroke-width="2" d="M591.384,-1106.88C550.631,-1107.08 508.52,-1107.29 471.887,-1107.47"/>
<polygon fill="grey" stroke="grey" points="471.688,-1103.97 461.705,-1107.52 471.723,-1110.97 471.688,-1103.97"/>
</g>
<!-- 22&#45;&gt;1 -->
<g id="edge9" class="edge"><title>22&#45;&gt;1</title>
<path fill="none" stroke="grey" stroke-width="2" d="M1137.78,-1975.11C1088.59,-1989.16 1016.47,-2007.47 952,-2015 781.465,-2034.91 301.184,-2105.63 180,-1984 120.568,-1924.35 117.781,-1300.67 117.917,-1159.36"/>
<polygon fill="grey" stroke="grey" points="121.417,-1159.32 117.932,-1149.32 114.417,-1159.31 121.417,-1159.32"/>
</g>
<!-- 29 -->
<g id="node30" class="node"><title>29</title>
<path fill="none" stroke="#5692d8" stroke-width="2" d="M891.5,-1952C891.5,-1952 646.5,-1952 646.5,-1952 640.5,-1952 634.5,-1946 634.5,-1940 634.5,-1940 634.5,-1928 634.5,-1928 634.5,-1922 640.5,-1916 646.5,-1916 646.5,-1916 891.5,-1916 891.5,-1916 897.5,-1916 903.5,-1922 903.5,-1928 903.5,-1928 903.5,-1940 903.5,-1940 903.5,-1946 897.5,-1952 891.5,-1952"/>
<text text-anchor="middle" x="769" y="-1931.5" font-family="sans" font-size="10.00">Paper_figures_Figure1_b_rna_proteome_coverage_R</text>
</g>
<!-- 22&#45;&gt;29 -->
<g id="edge82" class="edge"><title>22&#45;&gt;29</title>
<path fill="none" stroke="grey" stroke-width="2" d="M1064.82,-1949.88C1016.93,-1947.3 962.618,-1944.38 913.776,-1941.74"/>
<polygon fill="grey" stroke="grey" points="913.937,-1938.25 903.764,-1941.21 913.561,-1945.24 913.937,-1938.25"/>
</g>
<!-- 22&#45;&gt;42 -->
<g id="edge106" class="edge"><title>22&#45;&gt;42</title>
<path fill="none" stroke="grey" stroke-width="2" d="M1064.82,-1966.6C1003.7,-1971.03 932.136,-1976.23 874.82,-1980.39"/>
<polygon fill="grey" stroke="grey" points="874.375,-1976.91 864.655,-1981.13 874.882,-1983.89 874.375,-1976.91"/>
</g>
<!-- 23&#45;&gt;1 -->
<g id="edge53" class="edge"><title>23&#45;&gt;1</title>
<path fill="none" stroke="grey" stroke-width="2" d="M1032.98,-1818.95C761.096,-1830.44 240.774,-1844.58 180,-1788 133.344,-1744.57 120.951,-1280.12 118.509,-1159.49"/>
<polygon fill="grey" stroke="grey" points="122.003,-1159.15 118.309,-1149.22 115.005,-1159.29 122.003,-1159.15"/>
</g>
<!-- 24&#45;&gt;1 -->
<g id="edge28" class="edge"><title>24&#45;&gt;1</title>
<path fill="none" stroke="grey" stroke-width="2" d="M1070.93,-1902.56C805.695,-1901.05 211.706,-1894.28 180,-1864 128.172,-1814.51 119.565,-1288.3 118.231,-1159.39"/>
<polygon fill="grey" stroke="grey" points="121.729,-1159.11 118.132,-1149.15 114.729,-1159.18 121.729,-1159.11"/>
</g>
<!-- 24&#45;&gt;29 -->
<g id="edge81" class="edge"><title>24&#45;&gt;29</title>
<path fill="none" stroke="grey" stroke-width="2" d="M1070.91,-1912.15C1021.56,-1915.74 964.685,-1919.87 913.756,-1923.56"/>
<polygon fill="grey" stroke="grey" points="913.374,-1920.08 903.654,-1924.3 913.881,-1927.06 913.374,-1920.08"/>
</g>
<!-- 24&#45;&gt;42 -->
<g id="edge105" class="edge"><title>24&#45;&gt;42</title>
<path fill="none" stroke="grey" stroke-width="2" d="M1070.81,-1907.35C1042.7,-1911.55 1013.64,-1918.56 988,-1930 968.718,-1938.6 971.2,-1952.22 952,-1961 928.046,-1971.96 900.639,-1978.66 874.49,-1982.71"/>
<polygon fill="grey" stroke="grey" points="873.942,-1979.25 864.539,-1984.13 874.934,-1986.18 873.942,-1979.25"/>
</g>
<!-- 25&#45;&gt;1 -->
<g id="edge16" class="edge"><title>25&#45;&gt;1</title>
<path fill="none" stroke="grey" stroke-width="2" d="M631.209,-517.79C467.915,-502.323 212.639,-483.471 180,-513 135.7,-553.078 121.637,-986.848 118.658,-1102.7"/>
<polygon fill="grey" stroke="grey" points="115.154,-1102.81 118.404,-1112.89 122.152,-1102.98 115.154,-1102.81"/>
</g>
<!-- 54 -->
<g id="node55" class="node"><title>54</title>
<path fill="none" stroke="#56d882" stroke-width="2" d="M477.5,-558C477.5,-558 252.5,-558 252.5,-558 246.5,-558 240.5,-552 240.5,-546 240.5,-546 240.5,-534 240.5,-534 240.5,-528 246.5,-522 252.5,-522 252.5,-522 477.5,-522 477.5,-522 483.5,-522 489.5,-528 489.5,-534 489.5,-534 489.5,-546 489.5,-546 489.5,-552 483.5,-558 477.5,-558"/>
<text text-anchor="middle" x="365" y="-537.5" font-family="sans" font-size="10.00">Supplementary_figures_S_Fig2_b_enrichment_R</text>
</g>
<!-- 25&#45;&gt;54 -->
<g id="edge123" class="edge"><title>25&#45;&gt;54</title>
<path fill="none" stroke="grey" stroke-width="2" d="M631.34,-534.72C588.879,-535.565 542.136,-536.495 499.867,-537.336"/>
<polygon fill="grey" stroke="grey" points="499.721,-533.838 489.792,-537.536 499.86,-540.837 499.721,-533.838"/>
</g>
<!-- 26&#45;&gt;1 -->
<g id="edge26" class="edge"><title>26&#45;&gt;1</title>
<path fill="none" stroke="grey" stroke-width="2" d="M195.988,-466.21C190.217,-470.193 184.845,-474.765 180,-480 137.139,-526.307 121.964,-983.117 118.712,-1102.55"/>
<polygon fill="grey" stroke="grey" points="115.208,-1102.64 118.442,-1112.73 122.206,-1102.82 115.208,-1102.64"/>
</g>
<!-- 27&#45;&gt;1 -->
<g id="edge41" class="edge"><title>27&#45;&gt;1</title>
<path fill="none" stroke="grey" stroke-width="2" d="M231.776,-1405.88C212.69,-1400.67 194.6,-1392.22 180,-1379 147.479,-1349.56 128.212,-1217.69 121.122,-1159.15"/>
<polygon fill="grey" stroke="grey" points="124.586,-1158.64 119.94,-1149.11 117.634,-1159.46 124.586,-1158.64"/>
</g>
<!-- 28&#45;&gt;1 -->
<g id="edge36" class="edge"><title>28&#45;&gt;1</title>
<path fill="none" stroke="grey" stroke-width="2" d="M199.898,-1333.81C192.82,-1329.87 186.131,-1325.3 180,-1320 132.543,-1278.96 121.219,-1200.98 118.643,-1159.16"/>
<polygon fill="grey" stroke="grey" points="122.136,-1158.93 118.151,-1149.11 115.144,-1159.27 122.136,-1158.93"/>
</g>
<!-- 29&#45;&gt;1 -->
<g id="edge48" class="edge"><title>29&#45;&gt;1</title>
<path fill="none" stroke="grey" stroke-width="2" d="M634.242,-1946.15C480.76,-1956.87 242.191,-1962.6 180,-1902 125.861,-1849.24 118.994,-1292.81 118.125,-1159.56"/>
<polygon fill="grey" stroke="grey" points="121.624,-1159.32 118.065,-1149.34 114.624,-1159.36 121.624,-1159.32"/>
</g>
<!-- 30&#45;&gt;1 -->
<g id="edge47" class="edge"><title>30&#45;&gt;1</title>
<path fill="none" stroke="grey" stroke-width="2" d="M652.398,-1030.03C619.35,-1034.44 583.273,-1039.08 550,-1043 385.826,-1062.35 332.865,-1018.07 180,-1081 166.244,-1086.66 153.101,-1096.4 142.484,-1105.78"/>
<polygon fill="grey" stroke="grey" points="139.849,-1103.45 134.89,-1112.81 144.605,-1108.58 139.849,-1103.45"/>
</g>
<!-- 31&#45;&gt;1 -->
<g id="edge38" class="edge"><title>31&#45;&gt;1</title>
<path fill="none" stroke="grey" stroke-width="2" d="M656.33,-1324.54C507.442,-1325.77 254.051,-1319.66 180,-1267 144.472,-1241.73 128.873,-1191.06 122.347,-1159.2"/>
<polygon fill="grey" stroke="grey" points="125.751,-1158.37 120.466,-1149.19 118.872,-1159.66 125.751,-1158.37"/>
</g>
<!-- 32&#45;&gt;1 -->
<g id="edge13" class="edge"><title>32&#45;&gt;1</title>
<path fill="none" stroke="grey" stroke-width="2" d="M666.763,-1283.15C543.359,-1296.47 332.453,-1302.16 180,-1216 157.179,-1203.1 140.459,-1177.95 130.173,-1158.34"/>
<polygon fill="grey" stroke="grey" points="133.231,-1156.63 125.641,-1149.24 126.964,-1159.75 133.231,-1156.63"/>
</g>
<!-- 33&#45;&gt;1 -->
<g id="edge30" class="edge"><title>33&#45;&gt;1</title>
<path fill="none" stroke="grey" stroke-width="2" d="M270.886,-866.617C238.613,-870.111 204.439,-879.717 180,-902 150.325,-929.057 129.885,-1047.76 121.828,-1102.8"/>
<polygon fill="grey" stroke="grey" points="118.333,-1102.52 120.383,-1112.91 125.263,-1103.51 118.333,-1102.52"/>
</g>
<!-- 34&#45;&gt;1 -->
<g id="edge14" class="edge"><title>34&#45;&gt;1</title>
<path fill="none" stroke="grey" stroke-width="2" d="M246.55,-812.227C222.031,-816.803 198.152,-826.014 180,-843 142.237,-878.338 125.445,-1037.58 120.058,-1102.91"/>
<polygon fill="grey" stroke="grey" points="116.567,-1102.66 119.263,-1112.91 123.545,-1103.22 116.567,-1102.66"/>
</g>
<!-- 35&#45;&gt;1 -->
<g id="edge10" class="edge"><title>35&#45;&gt;1</title>
<path fill="none" stroke="grey" stroke-width="2" d="M265.287,-755.115C234.384,-758.082 202.514,-767.23 180,-789 135.23,-832.288 122.349,-1028.1 119.038,-1102.34"/>
<polygon fill="grey" stroke="grey" points="115.523,-1102.64 118.601,-1112.78 122.517,-1102.93 115.523,-1102.64"/>
</g>
<!-- 36&#45;&gt;1 -->
<g id="edge4" class="edge"><title>36&#45;&gt;1</title>
<path fill="none" stroke="grey" stroke-width="2" d="M238.705,-704.969C216.791,-710.003 195.943,-719.21 180,-735 127.951,-786.551 119.579,-1021.17 118.247,-1102.86"/>
<polygon fill="grey" stroke="grey" points="114.747,-1102.86 118.107,-1112.9 121.746,-1102.95 114.747,-1102.86"/>
</g>
<!-- 37&#45;&gt;1 -->
<g id="edge50" class="edge"><title>37&#45;&gt;1</title>
<path fill="none" stroke="grey" stroke-width="2" d="M270.248,-1018.65C239.709,-1022.96 206.801,-1031.54 180,-1048 158.366,-1061.29 141.74,-1085.15 131.176,-1103.9"/>
<polygon fill="grey" stroke="grey" points="127.999,-1102.41 126.346,-1112.88 134.164,-1105.73 127.999,-1102.41"/>
</g>
<!-- 38&#45;&gt;1 -->
<g id="edge6" class="edge"><title>38&#45;&gt;1</title>
<path fill="none" stroke="grey" stroke-width="2" d="M656.866,-372.276C505.639,-356.317 246.232,-339.48 180,-402 154.002,-426.541 125.772,-971.897 119.35,-1102.9"/>
<polygon fill="grey" stroke="grey" points="115.851,-1102.78 118.86,-1112.94 122.843,-1103.12 115.851,-1102.78"/>
</g>
<!-- 39&#45;&gt;1 -->
<g id="edge5" class="edge"><title>39&#45;&gt;1</title>
<path fill="none" stroke="grey" stroke-width="2" d="M278.395,-957.412C244.785,-959.717 207.708,-967.831 180,-989 143.738,-1016.7 128.31,-1070.05 122.027,-1102.88"/>
<polygon fill="grey" stroke="grey" points="118.574,-1102.31 120.293,-1112.76 125.469,-1103.52 118.574,-1102.31"/>
</g>
<!-- 40&#45;&gt;1 -->
<g id="edge7" class="edge"><title>40&#45;&gt;1</title>
<path fill="none" stroke="grey" stroke-width="2" d="M666.987,-1168.12C549.148,-1175.41 348.915,-1181.01 180,-1152 171.306,-1150.51 162.183,-1147.99 153.692,-1145.2"/>
<polygon fill="grey" stroke="grey" points="154.672,-1141.84 144.077,-1141.86 152.372,-1148.45 154.672,-1141.84"/>
</g>
<!-- 41&#45;&gt;1 -->
<g id="edge43" class="edge"><title>41&#45;&gt;1</title>
<path fill="none" stroke="grey" stroke-width="2" d="M268.186,-1116.96C228.12,-1120.7 184.004,-1124.83 154.016,-1127.63"/>
<polygon fill="grey" stroke="grey" points="153.659,-1124.15 144.028,-1128.57 154.31,-1131.12 153.659,-1124.15"/>
</g>
<!-- 42&#45;&gt;1 -->
<g id="edge22" class="edge"><title>42&#45;&gt;1</title>
<path fill="none" stroke="grey" stroke-width="2" d="M673.435,-1994.61C524.914,-2002.75 246.96,-2008.19 180,-1941 123.717,-1884.53 118.49,-1295.83 118.037,-1159.21"/>
<polygon fill="grey" stroke="grey" points="121.536,-1159.11 118.009,-1149.12 114.536,-1159.13 121.536,-1159.11"/>
</g>
<!-- 43&#45;&gt;1 -->
<g id="edge46" class="edge"><title>43&#45;&gt;1</title>
<path fill="none" stroke="grey" stroke-width="2" d="M1060.32,-2056.83C797.438,-2070.45 241.786,-2091.71 180,-2032 115.853,-1970.01 116.758,-1306.23 117.751,-1159.57"/>
<polygon fill="grey" stroke="grey" points="121.253,-1159.21 117.827,-1149.18 114.254,-1159.16 121.253,-1159.21"/>
</g>
<!-- 43&#45;&gt;42 -->
<g id="edge104" class="edge"><title>43&#45;&gt;42</title>
<path fill="none" stroke="grey" stroke-width="2" d="M1070.91,-2030.99C1008.48,-2022.07 933.996,-2011.43 874.754,-2002.96"/>
<polygon fill="grey" stroke="grey" points="875.025,-1999.47 864.631,-2001.52 874.035,-2006.4 875.025,-1999.47"/>
</g>
<!-- 44&#45;&gt;1 -->
<g id="edge39" class="edge"><title>44&#45;&gt;1</title>
<path fill="none" stroke="grey" stroke-width="2" d="M670.485,-663.773C522.385,-644.532 250.496,-619.234 180,-681 148.084,-708.964 126.01,-1007.98 119.788,-1102.52"/>
<polygon fill="grey" stroke="grey" points="116.279,-1102.55 119.124,-1112.76 123.264,-1103.01 116.279,-1102.55"/>
</g>
<!-- 45 -->
<g id="node46" class="node"><title>45</title>
<path fill="none" stroke="#d85e56" stroke-width="2" d="M455.5,-144C455.5,-144 274.5,-144 274.5,-144 268.5,-144 262.5,-138 262.5,-132 262.5,-132 262.5,-120 262.5,-120 262.5,-114 268.5,-108 274.5,-108 274.5,-108 455.5,-108 455.5,-108 461.5,-108 467.5,-114 467.5,-120 467.5,-120 467.5,-132 467.5,-132 467.5,-138 461.5,-144 455.5,-144"/>
<text text-anchor="middle" x="365" y="-123.5" font-family="sans" font-size="10.00">Patient_analysis_samples_overview_R</text>
</g>
<!-- 45&#45;&gt;1 -->
<g id="edge3" class="edge"><title>45&#45;&gt;1</title>
<path fill="none" stroke="grey" stroke-width="2" d="M262.095,-120.781C231.531,-124.643 200.675,-134.949 180,-158 163.789,-176.073 126.818,-943.674 119.335,-1102.44"/>
<polygon fill="grey" stroke="grey" points="115.822,-1102.65 118.848,-1112.81 122.814,-1102.98 115.822,-1102.65"/>
</g>
<!-- 46&#45;&gt;1 -->
<g id="edge49" class="edge"><title>46&#45;&gt;1</title>
<path fill="none" stroke="grey" stroke-width="2" d="M668.736,-1504.53C510.566,-1501.24 215.474,-1490.87 180,-1459 135.609,-1419.12 122.517,-1231.16 119.093,-1159.16"/>
<polygon fill="grey" stroke="grey" points="122.583,-1158.86 118.639,-1149.02 115.59,-1159.17 122.583,-1158.86"/>
</g>
<!-- 47 -->
<g id="node48" class="node"><title>47</title>
<path fill="none" stroke="#a7d856" stroke-width="2" d="M478.5,-90C478.5,-90 251.5,-90 251.5,-90 245.5,-90 239.5,-84 239.5,-78 239.5,-78 239.5,-66 239.5,-66 239.5,-60 245.5,-54 251.5,-54 251.5,-54 478.5,-54 478.5,-54 484.5,-54 490.5,-60 490.5,-66 490.5,-66 490.5,-78 490.5,-78 490.5,-84 484.5,-90 478.5,-90"/>
<text text-anchor="middle" x="365" y="-69.5" font-family="sans" font-size="10.00">Supplementary_PROTRIDER_Summary_fib_all_R</text>
</g>
<!-- 47&#45;&gt;1 -->
<g id="edge19" class="edge"><title>47&#45;&gt;1</title>
<path fill="none" stroke="grey" stroke-width="2" d="M239.365,-67.3559C216.853,-72.3788 195.609,-81.9923 180,-99 162.538,-118.027 126.344,-937.379 119.229,-1102.27"/>
<polygon fill="grey" stroke="grey" points="115.719,-1102.44 118.785,-1112.58 122.712,-1102.74 115.719,-1102.44"/>
</g>
<!-- 48 -->
<g id="node49" class="node"><title>48</title>
<path fill="none" stroke="#97d856" stroke-width="2" d="M903,-90C903,-90 635,-90 635,-90 629,-90 623,-84 623,-78 623,-78 623,-66 623,-66 623,-60 629,-54 635,-54 635,-54 903,-54 903,-54 909,-54 915,-60 915,-66 915,-66 915,-78 915,-78 915,-84 909,-90 903,-90"/>
<text text-anchor="middle" x="769" y="-69.5" font-family="sans" font-size="10.00">Supplementary_PROTRIDER_detect_outliers_all_fibros_R</text>
</g>
<!-- 48&#45;&gt;47 -->
<g id="edge114" class="edge"><title>48&#45;&gt;47</title>
<path fill="none" stroke="grey" stroke-width="2" d="M622.869,-72C583.043,-72 540.038,-72 500.817,-72"/>
<polygon fill="grey" stroke="grey" points="500.665,-68.5001 490.665,-72 500.665,-75.5001 500.665,-68.5001"/>
</g>
<!-- 49&#45;&gt;1 -->
<g id="edge25" class="edge"><title>49&#45;&gt;1</title>
<path fill="none" stroke="grey" stroke-width="2" d="M636.436,-1647.5C483.522,-1657.77 243.924,-1663.24 180,-1604 147.136,-1573.54 125.529,-1256.57 119.632,-1159.25"/>
<polygon fill="grey" stroke="grey" points="123.11,-1158.78 119.02,-1149.01 116.123,-1159.2 123.11,-1158.78"/>
</g>
<!-- 50 -->
<g id="node51" class="node"><title>50</title>
<path fill="none" stroke="#56d8d8" stroke-width="2" d="M493.5,-2298C493.5,-2298 236.5,-2298 236.5,-2298 230.5,-2298 224.5,-2292 224.5,-2286 224.5,-2286 224.5,-2274 224.5,-2274 224.5,-2268 230.5,-2262 236.5,-2262 236.5,-2262 493.5,-2262 493.5,-2262 499.5,-2262 505.5,-2268 505.5,-2274 505.5,-2274 505.5,-2286 505.5,-2286 505.5,-2292 499.5,-2298 493.5,-2298"/>
<text text-anchor="middle" x="365" y="-2277.5" font-family="sans" font-size="10.00">Supplementary_figures_S_Fig1_d_detected_proteins_R</text>
</g>
<!-- 50&#45;&gt;1 -->
<g id="edge42" class="edge"><title>50&#45;&gt;1</title>
<path fill="none" stroke="grey" stroke-width="2" d="M224.433,-2280.6C207.577,-2274.99 192.085,-2266.23 180,-2253 141.981,-2211.37 122.068,-1329.99 118.563,-1159.43"/>
<polygon fill="grey" stroke="grey" points="122.059,-1159.17 118.356,-1149.24 115.06,-1159.31 122.059,-1159.17"/>
</g>
<!-- 51&#45;&gt;1 -->
<g id="edge15" class="edge"><title>51&#45;&gt;1</title>
<path fill="none" stroke="grey" stroke-width="2" d="M648.937,-618.698C487.109,-612.712 213.858,-607.409 180,-638 145.258,-669.39 124.851,-1002.13 119.452,-1102.5"/>
<polygon fill="grey" stroke="grey" points="115.942,-1102.61 118.909,-1112.78 122.932,-1102.98 115.942,-1102.61"/>
</g>
<!-- 52&#45;&gt;1 -->
<g id="edge35" class="edge"><title>52&#45;&gt;1</title>
<path fill="none" stroke="grey" stroke-width="2" d="M635.392,-426.127C472.251,-410.519 212.731,-391.003 180,-421 128.924,-467.81 119.763,-976.171 118.27,-1102.64"/>
<polygon fill="grey" stroke="grey" points="114.77,-1102.67 118.158,-1112.7 121.769,-1102.74 114.77,-1102.67"/>
</g>
<!-- 53&#45;&gt;1 -->
<g id="edge32" class="edge"><title>53&#45;&gt;1</title>
<path fill="none" stroke="grey" stroke-width="2" d="M622.382,-1744.14C469.206,-1757.6 241.902,-1766.45 180,-1709 139.239,-1671.17 122.707,-1270.02 118.898,-1159.21"/>
<polygon fill="grey" stroke="grey" points="122.394,-1159.01 118.56,-1149.13 115.397,-1159.25 122.394,-1159.01"/>
</g>
<!-- 54&#45;&gt;1 -->
<g id="edge31" class="edge"><title>54&#45;&gt;1</title>
<path fill="none" stroke="grey" stroke-width="2" d="M240.259,-539.469C217.541,-545.018 195.99,-554.991 180,-572 143.265,-611.076 123.918,-994.808 119.17,-1102.83"/>
<polygon fill="grey" stroke="grey" points="115.668,-1102.82 118.733,-1112.96 122.661,-1103.12 115.668,-1102.82"/>
</g>
<!-- 55 -->
<g id="node56" class="node"><title>55</title>
<path fill="none" stroke="#56d8a9" stroke-width="2" d="M493.5,-2244C493.5,-2244 236.5,-2244 236.5,-2244 230.5,-2244 224.5,-2238 224.5,-2232 224.5,-2232 224.5,-2220 224.5,-2220 224.5,-2214 230.5,-2208 236.5,-2208 236.5,-2208 493.5,-2208 493.5,-2208 499.5,-2208 505.5,-2214 505.5,-2220 505.5,-2220 505.5,-2232 505.5,-2232 505.5,-2238 499.5,-2244 493.5,-2244"/>
<text text-anchor="middle" x="365" y="-2223.5" font-family="sans" font-size="10.00">Supplementary_figures_S_Fig2_c_proportion_of_RVs_R</text>
</g>
<!-- 55&#45;&gt;1 -->
<g id="edge37" class="edge"><title>55&#45;&gt;1</title>
<path fill="none" stroke="grey" stroke-width="2" d="M224.467,-2226.57C207.606,-2220.97 192.103,-2212.21 180,-2199 143.863,-2159.55 122.544,-1325.63 118.649,-1159.6"/>
<polygon fill="grey" stroke="grey" points="122.14,-1159.15 118.409,-1149.23 115.142,-1159.31 122.14,-1159.15"/>
</g>
<!-- 56 -->
<g id="node57" class="node"><title>56</title>
<path fill="none" stroke="#78d856" stroke-width="2" d="M477.5,-2190C477.5,-2190 252.5,-2190 252.5,-2190 246.5,-2190 240.5,-2184 240.5,-2178 240.5,-2178 240.5,-2166 240.5,-2166 240.5,-2160 246.5,-2154 252.5,-2154 252.5,-2154 477.5,-2154 477.5,-2154 483.5,-2154 489.5,-2160 489.5,-2166 489.5,-2166 489.5,-2178 489.5,-2178 489.5,-2184 483.5,-2190 477.5,-2190"/>
<text text-anchor="middle" x="365" y="-2169.5" font-family="sans" font-size="10.00">Supplementary_figures_S_Fig2_d_Hpo_match_R</text>
</g>
<!-- 56&#45;&gt;1 -->
<g id="edge21" class="edge"><title>56&#45;&gt;1</title>
<path fill="none" stroke="grey" stroke-width="2" d="M240.325,-2176.84C217.461,-2171.88 195.837,-2162.24 180,-2145 145.699,-2107.67 122.993,-1319.16 118.729,-1159.17"/>
<polygon fill="grey" stroke="grey" points="122.227,-1159.06 118.464,-1149.15 115.23,-1159.24 122.227,-1159.06"/>
</g>
<!-- 57 -->
<g id="node58" class="node"><title>57</title>
<path fill="none" stroke="#c6d856" stroke-width="2" d="M491.5,-2136C491.5,-2136 238.5,-2136 238.5,-2136 232.5,-2136 226.5,-2130 226.5,-2124 226.5,-2124 226.5,-2112 226.5,-2112 226.5,-2106 232.5,-2100 238.5,-2100 238.5,-2100 491.5,-2100 491.5,-2100 497.5,-2100 503.5,-2106 503.5,-2112 503.5,-2112 503.5,-2124 503.5,-2124 503.5,-2130 497.5,-2136 491.5,-2136"/>
<text text-anchor="middle" x="365" y="-2115.5" font-family="sans" font-size="10.00">Supplementary_figures_S_Fig2_e_proportion_of_PB_R</text>
</g>
<!-- 57&#45;&gt;1 -->
<g id="edge17" class="edge"><title>57&#45;&gt;1</title>
<path fill="none" stroke="grey" stroke-width="2" d="M226.146,-2115.14C208.6,-2109.13 192.457,-2099.87 180,-2086 116.644,-2015.45 116.98,-1311.3 117.795,-1159.67"/>
<polygon fill="grey" stroke="grey" points="121.297,-1159.36 117.856,-1149.34 114.297,-1159.32 121.297,-1159.36"/>
</g>
<!-- 58&#45;&gt;1 -->
<g id="edge51" class="edge"><title>58&#45;&gt;1</title>
<path fill="none" stroke="grey" stroke-width="2" d="M680.488,-1223.14C562.859,-1232.16 348.999,-1236.96 180,-1176 167.364,-1171.44 155.048,-1163.48 144.766,-1155.5"/>
<polygon fill="grey" stroke="grey" points="146.953,-1152.77 136.989,-1149.17 142.533,-1158.2 146.953,-1152.77"/>
</g>
</g>
</svg>
